<svg width="63" height="65" viewBox="0 0 63 65" fill="none" xmlns="http://www.w3.org/2000/svg">
<g clip-path="url(#clip0_189_44)">
<path d="M18.3334 14.579C18.1915 14.4559 18.0247 14.3648 17.8444 14.3121C17.6641 14.2593 17.4745 14.2461 17.2886 14.2733C17.1063 14.2991 16.932 14.3655 16.7786 14.4674C16.6252 14.5694 16.4967 14.7045 16.4024 14.8627C16.2929 15.0809 16.2306 15.3197 16.2195 15.5635C16.1401 16.5179 16.3246 17.4758 16.7528 18.3324C16.9546 18.7653 17.2474 19.1496 17.6113 19.4591C17.9069 19.6987 18.2595 19.8577 18.6349 19.9204L18.8102 19.948C18.8942 20.2621 18.9885 20.5269 19.0348 20.6673C19.303 21.3952 20.6803 23.735 22.483 24.9405C22.4774 25.7838 22.3978 25.9093 22.2638 26.6748C22.1397 27.3827 22.1786 28.0156 21.1945 28.3707C21.1293 28.3943 20.0376 28.8986 19.8905 28.9634C19.8905 28.9634 21.3577 33.1903 27.0459 33.1903C32.7341 33.1903 33.2426 28.6169 33.2426 28.6169C33.1223 28.5651 32.6378 28.3945 32.5723 28.3701C31.588 28.0151 31.6276 27.3828 31.5027 26.6743C31.4034 26.1779 31.3354 25.6757 31.2993 25.1707C32.1539 24.6835 32.9099 24.041 33.5286 23.2763C34.3194 22.3063 34.8964 21.1801 35.2216 19.9716L35.5553 19.9204C35.9306 19.8577 36.2833 19.6987 36.5788 19.4591C36.9427 19.1496 37.2355 18.7653 37.4372 18.3324C37.8655 17.4758 38.05 16.5179 37.9705 15.5635C37.9593 15.3197 37.897 15.0809 37.7877 14.8627C37.6933 14.7045 37.5647 14.5694 37.4113 14.4674C37.2579 14.3654 37.0836 14.2991 36.9012 14.2733C36.7154 14.2461 36.5258 14.2594 36.3455 14.3121C36.1652 14.3649 35.9984 14.4559 35.8565 14.579C35.8565 14.579 35.4429 7.66187 27.1815 7.66187C18.9201 7.66187 18.3334 14.579 18.3334 14.579Z" fill="white"/>
<path d="M31.533 26.2338C31.2391 26.9607 30.1436 28.8551 29.8134 29.4374C29.1571 30.5954 27.9111 32.6627 27.1055 33.7644L27.0664 33.8181L26.8162 33.4676C26.3922 32.8734 25.2012 31.1699 24.9361 30.7953C24.3637 29.9856 22.7462 27.2355 22.1632 26.2332" fill="white"/>
<path d="M33.1461 28.9691C32.845 28.8431 32.5287 28.7558 32.2309 28.6225C31.834 28.453 31.5198 28.1343 31.356 27.7351C31.2475 27.4008 31.1748 27.0558 31.1394 26.7061C31.0423 26.1978 30.9736 25.6845 30.9335 25.1686C30.9335 25.0717 30.972 24.9787 31.0406 24.9101C31.1092 24.8415 31.2022 24.803 31.2992 24.803C31.3962 24.803 31.4892 24.8415 31.5577 24.9101C31.6263 24.9787 31.6648 25.0717 31.6648 25.1686C31.6984 25.6087 31.7566 26.0465 31.839 26.48C31.8752 26.8042 31.9367 27.1252 32.0227 27.4399C32.0227 27.4425 32.0657 27.5453 32.039 27.4866C32.0543 27.5194 32.0706 27.5518 32.0886 27.5831C32.1125 27.6346 32.146 27.6811 32.1873 27.7202C32.3033 27.8398 32.4442 27.9326 32.5999 27.992C32.8427 28.0927 33.0978 28.1633 33.3405 28.2649C33.4323 28.2933 33.5097 28.3557 33.5572 28.4392C33.6046 28.5228 33.6184 28.6213 33.5958 28.7147C33.5696 28.8079 33.5076 28.8869 33.4234 28.9347C33.3392 28.9825 33.2396 28.9952 33.1461 28.97V28.9691Z" fill="#211715"/>
<path d="M22.846 25.0577C22.8308 25.5168 22.7753 25.9737 22.6802 26.4231C22.6285 26.8136 22.5567 27.2012 22.4649 27.5842C22.3445 27.9904 22.0705 28.3335 21.7011 28.5409C21.5883 28.6025 21.4711 28.656 21.3507 28.701C21.1915 28.7634 21.4282 28.6625 21.2995 28.7207C21.1797 28.7748 21.06 28.8292 20.9402 28.8837C20.6508 29.0157 20.364 29.1508 20.0738 29.2798C19.9894 29.3258 19.8906 29.3378 19.7976 29.3135C19.7046 29.2891 19.6244 29.2301 19.5734 29.1487C19.5252 29.0647 19.512 28.9652 19.5365 28.8716C19.561 28.778 19.6214 28.6978 19.7046 28.6483C20.0183 28.5094 20.3293 28.363 20.6409 28.2206C20.9465 28.0812 21.3265 27.9796 21.5641 27.7361C21.8111 27.4829 21.8325 27.0554 21.8952 26.6663C21.9851 26.1094 22.1038 25.617 22.1148 25.058C22.1242 24.5879 22.8555 24.5857 22.8461 25.058L22.846 25.0577Z" fill="#211715"/>
<path d="M41.4223 32.0742C41.1255 31.8372 35.7942 29.1478 33.0841 27.8509C33.0841 27.8509 32.0869 27.431 31.1483 27.035C30.7012 27.8931 30.0548 29.0133 29.8144 29.4374C29.158 30.5954 27.912 32.6627 27.1065 33.7644L27.0673 33.8181L26.8171 33.4676C26.3931 32.8734 25.2021 31.1699 24.937 30.7953C24.4781 30.1462 23.3476 28.2498 22.6164 27.0068C21.9322 27.2847 21.3197 27.5323 21.3197 27.5323C18.9598 28.5798 14.5601 30.7422 12.8682 31.6389L12.5918 31.776C9.92932 33.0936 6.74988 37.3429 3.52961 41.8637C2.47391 43.3456 0.0873528 46.1595 0.391006 48.094C0.714619 50.1581 2.45974 53.0761 3.70955 54.6975C5.42115 56.9179 7.18121 59.4416 9.02049 61.1823C10.3878 60.1485 12.3724 58.1046 13.7043 57.0021C12.8005 55.1336 9.59732 49.6432 9.13857 48.413C8.1554 49.0289 12.3786 44.8297 13.7855 43.4589L13.816 43.4284C13.8216 43.4741 13.8256 43.5046 13.828 43.5253C13.8489 44.3984 13.8585 53.1377 13.8638 59.4949C14.0913 59.4949 14.26 59.4949 14.26 59.4949C14.26 59.4949 26.9742 59.4949 39.5565 59.4949C39.5542 56.7297 39.5506 52.7617 39.5513 49.46C39.8588 50.2405 40.2362 50.9916 40.6788 51.7041C41.261 52.6399 41.3525 52.8991 42.2213 53.8494C43.5794 55.335 45.4844 56.1738 47.609 55.2601C49.6875 54.3662 50.405 52.4769 51.3497 50.7528C53.2099 47.3582 55.4191 41.8757 55.9771 40.0809C55.1564 39.5867 50.5421 37.0504 49.9994 36.9437C49.5702 37.5515 46.7646 42.8601 45.5019 44.9872C45.4318 44.7041 45.3785 44.4901 45.3785 44.4901C45.2823 44.0831 44.9545 42.0735 44.7223 41.2977C44.1585 38.8968 43.61 36.573 43.263 35.2437C43.0519 34.4342 42.6008 33.1925 41.962 32.4356C41.7528 32.2651 41.53 32.1122 41.2957 31.9785" fill="#B3B3B3"/>
<path d="M33.2679 27.5351C35.7945 28.7447 38.3087 29.9915 40.7856 31.2999C41.0981 31.4457 41.3974 31.6182 41.6801 31.8155C41.7482 31.8843 41.7864 31.9772 41.7864 32.0741C41.7864 32.1709 41.7482 32.2638 41.6801 32.3326C41.6104 32.399 41.5178 32.436 41.4215 32.436C41.3253 32.436 41.2327 32.399 41.163 32.3326C41.2977 32.4373 41.1913 32.3582 41.1537 32.3352C41.1027 32.3038 41.0504 32.2743 40.9983 32.2455C40.8404 32.1569 40.6809 32.0716 40.5211 31.9864C40.0197 31.7201 39.5146 31.4607 39.0092 31.2021C37.6746 30.5196 36.3349 29.8473 34.9901 29.1852C34.2948 28.8421 33.5977 28.5024 32.8989 28.1662C32.8158 28.1167 32.7555 28.0365 32.7309 27.9429C32.7064 27.8494 32.7196 27.7499 32.7677 27.666C32.818 27.5838 32.8982 27.5242 32.9914 27.4998C33.0846 27.4753 33.1837 27.4879 33.2679 27.5348V27.5351Z" fill="#211715"/>
<path d="M21.5037 27.8486C20.0878 28.4777 18.6907 29.1494 17.2977 29.827C15.9785 30.4684 14.6618 31.1159 13.3605 31.7933C13.1421 31.9071 12.9239 32.0218 12.7083 32.1407C12.64 32.1783 12.5712 32.2169 12.5047 32.2562C12.4628 32.2813 12.3178 32.3863 12.4563 32.2781C12.3863 32.3439 12.2938 32.3805 12.1977 32.3805C12.1017 32.3805 12.0092 32.3439 11.9392 32.2781C11.8712 32.2092 11.8331 32.1163 11.8331 32.0196C11.8331 31.9228 11.8712 31.8299 11.9392 31.761C12.2002 31.5766 12.477 31.4156 12.7663 31.2797C13.3179 30.9892 13.8741 30.7077 14.4313 30.4282C15.9025 29.6898 17.382 28.9681 18.8697 28.263C19.6211 27.9069 20.3746 27.5548 21.1345 27.2172C21.2189 27.1712 21.3177 27.1591 21.4107 27.1835C21.5037 27.2079 21.5839 27.2668 21.6349 27.3484C21.6831 27.4323 21.6963 27.5318 21.6718 27.6254C21.6472 27.7189 21.5869 27.7991 21.5037 27.8486Z" fill="#211715"/>
<path d="M41.4789 31.6641C41.7833 31.8117 42.0577 32.0146 42.2879 32.2626C42.6018 32.6671 42.8623 33.1103 43.0629 33.5814C43.4028 34.4063 43.6704 35.2591 43.8628 36.1302C44.1232 37.1815 44.3734 38.2352 44.6226 39.2891C44.8474 40.2394 45.0986 41.1863 45.2965 42.1425C45.4512 42.8901 45.5572 43.6508 45.7295 44.394C45.8362 44.8511 45.1308 45.0474 45.0243 44.5885C44.8775 43.9551 44.7843 43.3077 44.6586 42.6699C44.4873 41.8026 44.2625 40.9471 44.06 40.0867C43.8072 39.0147 43.5537 37.943 43.2925 36.8731C43.1154 36.0506 42.893 35.2386 42.6264 34.4406C42.4465 33.9271 42.2066 33.4367 41.9116 32.9796C41.8477 32.8806 41.7777 32.7856 41.7021 32.6953C41.6859 32.6787 41.6688 32.6631 41.6507 32.6487C41.706 32.6985 41.5876 32.6029 41.5745 32.5946C41.4247 32.4869 41.2693 32.387 41.1091 32.2955C40.6977 32.066 41.0664 31.434 41.4783 31.6641H41.4789Z" fill="#211715"/>
<path d="M39.1668 59.8612H14.258C13.7873 59.8612 13.7866 59.1299 14.258 59.1299H39.1668C39.6374 59.1299 39.6382 59.8612 39.1668 59.8612Z" fill="#211715"/>
<path d="M55.0644 39.329C55.5497 38.5694 56.5249 37.8982 57.0326 37.0854C57.6551 36.0884 58.2503 34.2337 58.4191 33.5164C58.8621 32.4436 58.1942 31.0634 57.2727 30.3813C56.5371 29.8643 55.9146 29.5067 55.0635 29.2744C54.6386 27.7867 55.1952 26.4114 53.7918 26.5191C52.6387 26.6076 52.6221 28.4713 52.5915 29.3733C52.1963 30.3299 52.2305 30.5221 52.7743 30.8924C52.5242 30.8102 52.2526 30.8227 52.011 30.9275C51.7695 31.0323 51.5748 31.2222 51.464 31.461C51.2632 31.8992 51.5362 32.5167 52.1228 32.8501C51.3063 32.5865 51.1029 33.172 50.9801 33.5053C50.7857 34.0342 50.9998 34.5565 51.4541 34.759C50.2188 34.9239 50.877 36.7229 51.6293 37.0328L51.3048 37.4942L55.0644 39.329Z" fill="white"/>
<path d="M57.3724 30.3876C57.5205 30.0967 58.2876 28.1881 58.4915 27.7458C58.844 26.9805 59.1558 26.0752 59.9599 25.6152C60.882 25.0878 61.6723 24.6909 62.281 23.7589C62.7607 23.0241 62.6771 22.1233 62.4585 21.2977C62.183 20.2574 61.2172 19.1617 60.6606 18.9762C60.5692 19.2838 60.1883 21.3635 60.0874 21.8388C59.9227 21.9549 58.9938 22.2807 58.761 22.2738C58.5297 22.1995 57.81 21.7153 57.4909 21.4493C57.5153 20.9862 57.6974 19.0536 57.7499 18.6116C56.3397 18.9061 54.6049 20.8587 54.8451 22.4379C54.9776 23.3096 55.3072 24.0028 55.62 24.8068C55.9425 25.6359 55.6558 26.2884 55.3457 27.0607C55.1804 27.472 54.871 28.3306 54.5757 28.9169L57.3724 30.3876Z" fill="#D9D9D9"/>
<path d="M57.0567 30.2027C57.1751 29.9663 57.2548 29.755 57.341 29.549C57.4909 29.1903 57.639 28.8307 57.7883 28.4718C58.0864 27.7557 58.3662 26.9986 58.7688 26.3339C59.0309 25.8857 59.4052 25.5135 59.8548 25.2538C60.3051 25.0175 60.7379 24.7494 61.1498 24.4513C61.5618 24.152 61.894 23.7561 62.117 23.2983C62.3183 22.8275 62.2947 22.2842 62.1984 21.7919C62.0364 20.9588 61.6121 20.1993 60.9876 19.6246C60.9168 19.5574 60.841 19.4957 60.7609 19.4401C60.7179 19.4111 60.6737 19.3846 60.6286 19.3593C60.6134 19.3506 60.5972 19.3429 60.5814 19.3351C60.5262 19.308 60.6557 19.3613 60.5636 19.3284L61.0135 19.073C60.8611 19.604 60.7834 20.1645 60.6792 20.7063C60.6192 21.0187 60.5598 21.331 60.4987 21.6437C60.4841 21.7419 60.4646 21.8394 60.4402 21.9357C60.3833 22.1225 60.2159 22.192 60.0539 22.2615C59.7286 22.4071 59.3899 22.5208 59.0426 22.6009C58.8744 22.6511 58.6939 22.6411 58.5323 22.5726C58.39 22.5062 58.2525 22.4299 58.1209 22.344C57.9491 22.236 57.781 22.1218 57.6165 22.0029C57.456 21.8871 57.1937 21.7492 57.1379 21.5458C57.1202 21.4313 57.1215 21.3146 57.1417 21.2004C57.1538 21.04 57.1673 20.8796 57.1812 20.7193C57.2421 20.0161 57.3014 19.3119 57.3835 18.6109L57.8464 18.9635C57.2231 19.1006 56.6802 19.501 56.2392 19.9575C55.7439 20.4434 55.3939 21.0577 55.2284 21.7314C55.0721 22.4704 55.396 23.2619 55.6689 23.952C55.8474 24.4046 56.0676 24.8462 56.1154 25.3362C56.1423 25.7658 56.0742 26.1959 55.9158 26.5961C55.6232 27.4504 55.2807 28.2868 54.89 29.101C54.6801 29.5225 54.0491 29.1524 54.2585 28.732C54.6116 28.0226 54.8856 27.2648 55.1656 26.524C55.3122 26.1361 55.4429 25.7243 55.3789 25.3052C55.3085 24.8427 55.0571 24.3956 54.8914 23.9615C54.5906 23.1738 54.3395 22.3325 54.5336 21.4893C54.7294 20.7477 55.113 20.0691 55.6474 19.519C56.1787 18.9452 56.8751 18.4295 57.6512 18.259C57.8581 18.2133 58.1435 18.3611 58.1141 18.6115C58.0039 19.5527 57.9073 20.5031 57.8551 21.4492L57.7484 21.1902C57.9456 21.3479 58.151 21.4951 58.3637 21.6312C58.4746 21.7037 58.5869 21.7745 58.7022 21.8397C58.7479 21.8658 58.8046 21.8865 58.8474 21.917C58.8931 21.9497 58.7765 21.8816 58.7779 21.9097C58.7779 21.9097 58.7474 21.9171 58.7989 21.9053C58.8206 21.9004 58.8425 21.8966 58.8642 21.8917C58.9208 21.879 58.9769 21.8641 59.0328 21.8486C59.1547 21.8144 59.2752 21.7759 59.3948 21.7348C59.5729 21.6883 59.7436 21.6169 59.9017 21.5227L59.7341 21.7412C59.8383 21.2446 59.9281 20.745 60.0244 20.2468C60.1121 19.7925 60.1795 19.3238 60.3075 18.8785C60.334 18.7855 60.396 18.7066 60.4801 18.6588C60.5642 18.6111 60.6637 18.5982 60.7572 18.6231C61.1721 18.7979 61.5359 19.0749 61.8147 19.4283C62.1923 19.856 62.4932 20.3456 62.7039 20.8758C62.9146 21.4229 63.0139 22.0066 62.996 22.5927C62.9697 23.2169 62.7392 23.8152 62.3399 24.2956C61.9962 24.7147 61.585 25.0734 61.1232 25.3571C60.6909 25.6342 60.1645 25.8344 59.7946 26.1951C59.4349 26.5455 59.2181 27.0125 59.0156 27.4644C58.9332 27.6483 58.85 27.832 58.7683 28.0164C58.7421 28.0757 58.7165 28.1352 58.6911 28.1948C58.6464 28.2992 58.6582 28.2719 58.6185 28.3662C58.3112 29.0987 58.0439 29.8619 57.6879 30.5725C57.4771 30.9933 56.846 30.6234 57.0564 30.2034L57.0567 30.2027Z" fill="#211715"/>
<path d="M57.0861 30.6969C56.1324 30.0289 55.0902 29.5269 53.9221 29.4251C53.6797 29.3944 53.4339 29.404 53.1947 29.4535C53.1197 29.4625 53.0482 29.4907 52.9873 29.5355C52.9264 29.5803 52.8781 29.6401 52.8472 29.7091C52.789 29.8436 52.7434 29.9832 52.711 30.1261C52.7042 30.1542 52.6982 30.1823 52.6931 30.2107C52.6962 30.1791 52.6957 30.1851 52.6919 30.2282C52.6919 30.2434 52.6886 30.3889 52.6889 30.296C52.6894 30.317 52.6947 30.3375 52.7043 30.3562C52.714 30.3748 52.7277 30.391 52.7445 30.4036C52.8087 30.4692 52.8803 30.5273 52.9578 30.5766C53.2846 30.8018 53.0949 31.366 52.6761 31.2449C52.3222 31.1427 51.9003 31.2818 51.779 31.6576C51.7463 31.8006 51.7704 31.9506 51.8462 32.0762C51.9529 32.2695 52.1125 32.4284 52.3063 32.5342C52.6567 32.7418 52.4282 33.3249 52.0244 33.2026C51.9211 33.1642 51.8113 33.1466 51.7011 33.1506C51.6485 33.1537 51.5981 33.1727 51.5565 33.2052C51.6074 33.1648 51.5108 33.2509 51.5009 33.2609C51.4449 33.3199 51.5162 33.2318 51.4763 33.2943C51.4523 33.3318 51.4319 33.3705 51.4104 33.4095C51.4008 33.4288 51.3915 33.4485 51.3826 33.4681C51.3964 33.4342 51.3984 33.4291 51.3886 33.4529C51.2293 33.8373 51.2163 34.2404 51.6382 34.4423C51.9071 34.5711 51.8588 35.0641 51.5508 35.1107C51.4507 35.1199 51.3538 35.1512 51.2672 35.2021C51.2308 35.2242 51.3023 35.1703 51.252 35.2139C51.245 35.22 51.1862 35.282 51.2171 35.2455C51.2338 35.2259 51.1763 35.3115 51.1632 35.338C51.1956 35.2727 51.1648 35.3341 51.1603 35.3519C51.1537 35.3775 51.1467 35.4031 51.1398 35.4281C51.1219 35.4962 51.1398 35.3994 51.1359 35.4433C51.1334 35.471 51.1316 35.4988 51.131 35.5267C51.1302 35.5784 51.1324 35.6301 51.1376 35.6816C51.1414 35.7215 51.1286 35.6405 51.1418 35.7077C51.1478 35.7374 51.1536 35.7669 51.1606 35.7965C51.2089 36.0082 51.2993 36.2081 51.4264 36.3841C51.4426 36.4145 51.4638 36.442 51.489 36.4655C51.527 36.508 51.5652 36.5484 51.6073 36.5874C51.6137 36.5935 51.6812 36.6497 51.6446 36.6212C51.608 36.5927 51.6838 36.6473 51.6838 36.6473C51.7254 36.673 51.7688 36.6959 51.8136 36.7157C51.8968 36.7651 51.9573 36.8453 51.9819 36.9389C52.0064 37.0326 51.9931 37.1321 51.9448 37.216C51.8942 37.2979 51.814 37.3573 51.7208 37.3817C51.6277 37.4061 51.5287 37.3938 51.4444 37.3472C50.3608 36.8749 49.8335 34.6352 51.3566 34.405L51.2693 35.0734C51.0959 34.9897 50.9435 34.8679 50.8236 34.7172C50.7038 34.5664 50.6195 34.3905 50.577 34.2026C50.5152 33.8737 50.5566 33.5337 50.6956 33.2292C50.7879 32.9649 50.9598 32.7356 51.1877 32.5729C51.4958 32.3725 51.8817 32.3944 52.2192 32.4967L51.9374 33.1651C51.3621 32.8247 50.8507 32.1205 51.087 31.4222C51.2156 31.0753 51.4719 30.7905 51.8035 30.6263C52.135 30.462 52.5168 30.4306 52.8708 30.5386L52.5891 31.2068C52.2321 30.9609 51.9222 30.66 51.9644 30.1903C52.0091 29.692 52.217 29.1053 52.6861 28.8663C53.1371 28.6365 53.6765 28.6557 54.1651 28.7203C54.7383 28.7913 55.3001 28.9353 55.8368 29.1489C56.4091 29.3924 56.9522 29.6994 57.4561 30.0641C57.5379 30.1148 57.5971 30.195 57.6215 30.2881C57.6459 30.3812 57.6337 30.4801 57.5872 30.5645C57.5377 30.6475 57.4575 30.7079 57.3639 30.7324C57.2703 30.7569 57.1708 30.7437 57.0869 30.6956L57.0861 30.6969Z" fill="#211715"/>
<path d="M55.6972 32.5719C55.1369 32.3434 54.5841 32.0951 54.0297 31.8523C53.7249 31.7189 53.4202 31.5854 53.1155 31.452C53.0021 31.4025 52.8887 31.3531 52.7753 31.3039L52.6534 31.2511C52.5548 31.2086 52.7375 31.2856 52.6456 31.2479C52.5538 31.2196 52.4762 31.1573 52.4288 31.0737C52.3813 30.9901 52.3676 30.8916 52.3903 30.7982C52.4165 30.705 52.4785 30.6259 52.5627 30.5781C52.6469 30.5302 52.7465 30.5175 52.84 30.5427C53.3428 30.7484 53.8371 30.9743 54.3344 31.192C54.6524 31.3313 54.9706 31.4702 55.2889 31.6087C55.4194 31.6652 55.5501 31.7215 55.6809 31.7777C55.7126 31.7913 55.8868 31.8642 55.7684 31.8152C55.81 31.8324 55.8513 31.8498 55.8929 31.8667C55.9847 31.895 56.0623 31.9574 56.1098 32.041C56.1572 32.1246 56.171 32.2232 56.1482 32.3166C56.1219 32.4097 56.0599 32.4888 55.9757 32.5366C55.8916 32.5844 55.7919 32.5971 55.6984 32.5719H55.6972Z" fill="#211715"/>
<path d="M54.8798 34.4717C53.9078 33.9232 52.947 33.6276 51.9519 33.1713C51.8687 33.1219 51.8083 33.0417 51.7838 32.9481C51.7592 32.8545 51.7725 32.755 51.8207 32.6711C51.8712 32.589 51.9513 32.5296 52.0445 32.5052C52.1377 32.4807 52.2367 32.4932 52.3209 32.5399C52.3471 32.552 52.3735 32.5634 52.4 32.5748L52.4457 32.5943C52.5056 32.6204 52.357 32.5573 52.4389 32.5914C52.5442 32.6353 52.6495 32.6792 52.7549 32.7231C53.0458 32.8437 53.3362 32.9656 53.6262 33.0887C54.1807 33.3091 54.7225 33.5602 55.2491 33.8408C55.6591 34.0719 55.2909 34.7039 54.88 34.4723L54.8798 34.4717Z" fill="#211715"/>
<path d="M53.7656 36.2314C52.9 35.8496 52.0552 35.4225 51.2037 35.0112C51.1206 34.9616 51.0603 34.8814 51.0358 34.7878C51.0113 34.6942 51.0244 34.5948 51.0725 34.5108C51.1229 34.4285 51.2031 34.3689 51.2964 34.3445C51.3897 34.32 51.4889 34.3326 51.5731 34.3796C52.4247 34.791 53.2695 35.2176 54.1349 35.5999C54.2182 35.6493 54.2786 35.7295 54.3031 35.8231C54.3277 35.9168 54.3144 36.0163 54.2661 36.1002C54.2156 36.1822 54.1354 36.2415 54.0423 36.2659C53.9491 36.2904 53.8502 36.278 53.7659 36.2314H53.7656Z" fill="#211715"/>
<path d="M57.4584 30.0654C58.0653 30.5186 58.5218 31.1439 58.7686 31.86C58.8927 32.2124 58.9437 32.5863 58.9186 32.959C58.8776 33.2557 58.8102 33.5481 58.7171 33.8328C58.5491 34.4526 58.3468 35.0627 58.1112 35.6602C57.8552 36.3153 57.578 36.9936 57.1481 37.5567C56.6149 38.2552 55.8627 38.7765 55.3808 39.5135C55.1244 39.906 54.4908 39.54 54.7492 39.1443C55.162 38.5123 55.7513 38.0321 56.2591 37.4813C56.6873 36.9902 57.0266 36.4283 57.2617 35.8206C57.5071 35.2357 57.7202 34.6379 57.9 34.0296C58.0478 33.5372 58.2526 33.0225 58.1758 32.5021C58.055 31.7844 57.6664 31.1393 57.0886 30.6969C57.0071 30.6459 56.9482 30.5657 56.9238 30.4728C56.8994 30.3798 56.9114 30.281 56.9574 30.1966C57.0068 30.1134 57.087 30.053 57.1807 30.0284C57.2743 30.0039 57.3738 30.0171 57.4577 30.0654H57.4584Z" fill="#211715"/>
<path d="M54.4606 27.5258C54.458 27.5025 54.4553 27.4791 54.4524 27.456C54.4544 27.4712 54.4635 27.5235 54.4516 27.452C54.4452 27.4145 54.4395 27.3772 54.432 27.3399C54.4164 27.2614 54.3957 27.184 54.37 27.1083C54.3415 27.0239 54.391 27.1325 54.3584 27.0819C54.34 27.0533 54.3223 27.021 54.3052 26.9917C54.3395 27.0512 54.317 27.0052 54.29 26.9776C54.278 26.9655 54.2652 26.9544 54.2528 26.943C54.2245 26.9168 54.3227 26.9764 54.254 26.9466C54.238 26.9398 54.1593 26.8993 54.2009 26.9162C54.245 26.9342 54.1489 26.9017 54.1335 26.8977C54.1129 26.8926 54.0924 26.8889 54.0717 26.8846C54.0869 26.8878 54.1433 26.8889 54.068 26.8846C54.0179 26.8816 53.9681 26.8788 53.9178 26.8795C53.8675 26.8801 53.8143 26.8833 53.7628 26.8878C53.8372 26.8813 53.7645 26.8891 53.7324 26.8965C53.7002 26.904 53.6714 26.9162 53.6409 26.9236C53.58 26.9389 53.6409 26.9236 53.6539 26.9169C53.6342 26.927 53.6144 26.9361 53.5952 26.9474C53.5684 26.9626 53.5439 26.9806 53.5174 26.9957C53.4637 27.0262 53.5189 26.9957 53.529 26.9858C53.516 26.9975 53.502 27.008 53.4895 27.0202C53.4672 27.0417 53.4452 27.063 53.4243 27.0859C53.4122 27.099 53.4011 27.113 53.3891 27.1261C53.3601 27.1578 53.4247 27.0699 53.3891 27.1273C53.3534 27.1848 53.3129 27.2442 53.2802 27.3068C53.2649 27.3373 53.2504 27.3678 53.2357 27.3982C53.2287 27.4135 53.2101 27.4625 53.2376 27.3924C53.2285 27.4158 53.2194 27.4391 53.2107 27.4627C53.1558 27.615 53.1125 27.7712 53.0813 27.93C53.0661 28.0039 53.0531 28.0781 53.0416 28.1526C53.039 28.1689 53.0221 28.2987 53.0321 28.216C53.0269 28.2588 53.0217 28.3016 53.0169 28.3444C52.9809 28.6808 52.9712 29.019 52.9591 29.357C52.9591 29.454 52.9206 29.547 52.852 29.6155C52.7835 29.6841 52.6904 29.7226 52.5935 29.7226C52.4965 29.7226 52.4035 29.6841 52.3349 29.6155C52.2663 29.547 52.2278 29.454 52.2278 29.357C52.2519 28.629 52.2628 27.8538 52.5435 27.1706C52.6707 26.7982 52.9305 26.4855 53.2733 26.2921C53.4806 26.1919 53.7082 26.1407 53.9384 26.1426C54.1686 26.1445 54.3954 26.1994 54.601 26.3031C55.0416 26.5539 55.1406 27.0649 55.1929 27.5271C55.1923 27.6239 55.1536 27.7166 55.0851 27.785C55.0167 27.8535 54.924 27.8922 54.8272 27.8928C54.7309 27.8906 54.6392 27.8514 54.571 27.7833C54.5029 27.7152 54.4637 27.6234 54.4615 27.5271L54.4606 27.5258Z" fill="#211715"/>
<path d="M39.1908 59.4859C39.1887 56.9209 39.187 54.3561 39.1856 51.7917C39.185 49.52 39.1871 47.2485 39.1917 44.977C39.1936 44.4635 39.1475 43.9196 39.2187 43.4097C39.2796 42.9698 39.3558 42.5316 39.4274 42.0933C39.7288 40.2403 40.0331 38.3877 40.3402 36.5355C40.5803 35.0729 40.8357 33.612 41.0473 32.1453C41.0482 32.1384 41.0603 32.0539 41.0603 32.0539C41.0571 32.0539 41.045 32.1797 41.0568 32.0749C41.0596 31.9788 41.099 31.8874 41.167 31.8194C41.2349 31.7514 41.3263 31.712 41.4224 31.7092C41.5192 31.7098 41.6119 31.7485 41.6803 31.817C41.7488 31.8854 41.7875 31.9781 41.7881 32.0749C41.7374 32.5272 41.6552 32.9773 41.5833 33.4266C41.4492 34.265 41.3131 35.103 41.1748 35.9406C40.8607 37.8591 40.5455 39.7773 40.2293 41.6953C40.1356 42.2677 40.0405 42.84 39.9523 43.4133C39.943 43.4727 39.9371 43.5332 39.9255 43.5923C39.9442 43.4927 39.933 43.4996 39.9334 43.5698C39.9334 43.61 39.932 43.6502 39.9314 43.6905C39.9279 43.9457 39.9267 44.2009 39.9253 44.4559C39.9142 46.5775 39.9167 48.6991 39.9168 50.8207C39.9168 53.4346 39.9184 56.0484 39.9215 58.6622C39.9215 58.9365 39.9215 59.2113 39.9215 59.4866C39.9215 59.9573 39.1902 59.958 39.1902 59.4866L39.1908 59.4859Z" fill="#211715"/>
<path d="M12.8438 32.1536C12.9758 33.3486 13.1237 34.5421 13.2649 35.736C13.4854 37.5985 13.7065 39.4608 13.9281 41.323C14.0362 42.2306 14.1908 43.1395 14.1978 44.0542C14.2131 46.0227 14.2131 47.9915 14.216 49.96C14.2208 52.8134 14.2243 55.6668 14.2265 58.5202C14.2265 58.857 14.2268 59.1939 14.2275 59.5309C14.2275 60.0014 13.4962 60.0022 13.4962 59.5309C13.4935 56.6762 13.4902 53.8214 13.4863 50.9665C13.483 48.8021 13.4814 46.6376 13.4692 44.4732C13.4812 44.1109 13.4726 43.7482 13.4433 43.3869C13.3824 42.8804 13.3218 42.3737 13.2616 41.867C13.0455 40.0539 12.8302 38.2408 12.6156 36.4277C12.4525 35.0524 12.2875 33.6773 12.1292 32.3015C12.1236 32.2523 12.1178 32.203 12.1125 32.1537C12.113 32.0569 12.1517 31.9643 12.2202 31.8958C12.2887 31.8274 12.3813 31.7886 12.4781 31.7881C12.5744 31.7903 12.6662 31.8295 12.7343 31.8976C12.8024 31.9657 12.8416 32.0575 12.8438 32.1537V32.1536Z" fill="#211715"/>
<path d="M27.3916 33.7648C27.3916 34.8436 27.3863 35.9225 27.3826 37.0013C27.3761 38.9927 27.3691 40.9841 27.3614 42.9755C27.353 45.2939 27.3444 47.6124 27.3357 49.9309C27.3283 51.9499 27.3209 53.969 27.3134 55.9882C27.3095 57.1082 27.3059 58.2281 27.3026 59.3479C27.3026 59.3936 27.3026 59.4393 27.3026 59.4861C27.3026 59.9566 26.5713 59.9573 26.5713 59.4861C26.5713 58.5143 26.5768 57.5426 26.5803 56.5708C26.587 54.6342 26.5941 52.6977 26.6015 50.7611C26.61 48.4458 26.6186 46.1306 26.6272 43.8153C26.6348 41.7475 26.6422 39.6797 26.6495 37.6118C26.6535 36.3916 26.6571 35.1713 26.6603 33.9508C26.6603 33.8887 26.6603 33.8267 26.6603 33.7648C26.6603 33.2943 27.3916 33.2935 27.3916 33.7648Z" fill="#211715"/>
<path d="M44.7221 45.5355C44.9943 45.1384 45.2459 44.7275 45.4759 44.3045C45.8612 43.6354 46.236 42.96 46.6091 42.284C47.3951 40.8603 48.1668 39.4287 48.9573 38.0075C49.1774 37.5794 49.4194 37.1629 49.6823 36.7597C49.7251 36.6922 49.7879 36.6397 49.8619 36.6097C49.9359 36.5796 50.0175 36.5735 50.0952 36.5921C50.3728 36.6727 50.6401 36.7855 50.8915 36.9282C51.3333 37.1415 51.7698 37.367 52.2045 37.5948C53.1916 38.1119 54.1718 38.6426 55.145 39.1869C55.4854 39.3768 55.827 39.5654 56.1611 39.7659C56.2298 39.8075 56.2833 39.8701 56.3135 39.9445C56.3437 40.0189 56.349 40.1011 56.3287 40.1788C55.8753 41.6314 55.2837 43.0477 54.6985 44.4508C53.9054 46.3512 53.0682 48.2377 52.1256 50.0691C51.6918 50.9112 51.252 51.7555 50.7889 52.5818C50.3223 53.4147 49.7698 54.2257 49.0188 54.8286C48.1531 55.5411 47.0797 55.9537 45.9596 56.0044C44.9227 56.016 43.9096 55.6936 43.0701 55.0849C42.2381 54.4819 41.5248 53.7302 40.9663 52.8678C40.3772 51.9949 39.8624 51.0741 39.4275 50.1151C39.3426 49.922 39.2608 49.7273 39.1857 49.5302C39.1607 49.4367 39.1735 49.3371 39.2212 49.253C39.269 49.1688 39.348 49.1068 39.4411 49.0804C39.5345 49.0568 39.6335 49.0702 39.7173 49.1178C39.8011 49.1653 39.8633 49.2434 39.891 49.3358C40.2496 50.2772 40.7661 51.1423 41.2883 52.002C41.739 52.7668 42.3 53.461 42.9531 54.0622C43.6419 54.6817 44.5116 55.1626 45.446 55.2543C46.4565 55.3353 47.463 55.0567 48.288 54.4675C49.0327 53.9541 49.5749 53.2144 50.0249 52.4421C50.4844 51.6544 50.8973 50.8348 51.3219 50.0278C52.236 48.2887 53.0452 46.493 53.8117 44.6844C54.4212 43.2478 55.0163 41.7972 55.5139 40.3175C55.5512 40.2065 55.5873 40.0953 55.6224 39.9836L55.79 40.3967C55.0635 39.96 54.3138 39.5587 53.5698 39.1542C52.6252 38.6398 51.678 38.1276 50.7131 37.6522C50.5272 37.5608 50.3404 37.4694 50.1507 37.3865C50.0987 37.3635 50.044 37.3434 50.1184 37.3722C50.0898 37.3609 50.0616 37.3489 50.0328 37.3381C49.9895 37.3209 49.945 37.3069 49.8996 37.2963L50.3127 37.1287C50.091 37.4668 49.8866 37.8159 49.7002 38.1747C49.3423 38.8146 48.9906 39.4578 48.6388 40.1009C47.8426 41.5558 47.0535 43.015 46.2316 44.4552C45.9646 44.9535 45.6712 45.4372 45.3528 45.9043C45.3019 45.986 45.2218 46.0452 45.1287 46.0696C45.0356 46.094 44.9368 46.0818 44.8524 46.0355C44.7692 45.9861 44.7089 45.9059 44.6843 45.8123C44.6598 45.7187 44.673 45.6192 44.7212 45.5353L44.7221 45.5355Z" fill="#211715"/>
<path d="M14.042 43.718C12.6671 45.0575 11.2952 46.4074 9.9892 47.8146C9.8533 47.9612 9.71815 48.1087 9.58667 48.2594C9.53746 48.3159 9.48854 48.3727 9.44101 48.4305C9.41907 48.4571 9.39789 48.4843 9.3761 48.5109C9.42562 48.45 9.402 48.4766 9.37214 48.5182C9.32136 48.6 9.24118 48.6591 9.14811 48.6835C9.05503 48.7079 8.95614 48.6957 8.87179 48.6494C8.78862 48.6 8.72825 48.5198 8.7037 48.4262C8.67915 48.3326 8.69241 48.2331 8.74061 48.1492C9.18017 47.5386 9.74238 47.0039 10.2642 46.4652C11.0062 45.6985 11.7599 44.943 12.5178 44.192C12.8523 43.8604 13.1882 43.5302 13.5253 43.2017C13.8626 42.873 14.3802 43.3897 14.0424 43.7188L14.042 43.718Z" fill="#211715"/>
<path d="M7.16599 47.529C6.92343 47.4549 6.67402 47.403 6.42948 47.3358C6.07509 47.2416 5.7292 47.118 5.39542 46.9662C5.312 46.9169 5.25141 46.8368 5.22684 46.7431C5.20227 46.6494 5.21571 46.5498 5.26424 46.466C5.31499 46.3842 5.39517 46.325 5.48826 46.3006C5.58134 46.2762 5.68025 46.2884 5.76458 46.3348C5.80207 46.3521 5.83985 46.3689 5.87778 46.3855C5.91907 46.4038 5.81502 46.3607 5.88023 46.3855L5.93233 46.4062C6.01064 46.4367 6.08967 46.4654 6.1694 46.4922C6.32755 46.5456 6.48768 46.5929 6.64873 46.6368C6.88519 46.7012 7.12607 46.7516 7.3604 46.8232C7.4539 46.849 7.53333 46.9109 7.58122 46.9952C7.62911 47.0796 7.64153 47.1795 7.61575 47.273C7.58997 47.3665 7.5281 47.446 7.44376 47.4938C7.35941 47.5417 7.25949 47.5541 7.16599 47.5284V47.529Z" fill="#211715"/>
<path d="M52.7882 42.0637C51.4002 41.3057 50.0382 40.4967 48.6274 39.7814C48.2075 39.5681 48.5773 38.9373 48.9965 39.1498C50.4074 39.8659 51.7695 40.6743 53.1573 41.4322C53.5705 41.6578 53.2018 42.2895 52.7882 42.0637Z" fill="#211715"/>
<path d="M12.0711 55.009C11.002 55.7723 9.90243 56.5416 9.00747 57.5116C8.68752 57.8582 8.17133 57.3401 8.49022 56.9945C9.42585 55.9807 10.5842 55.1755 11.7019 54.3776C11.7859 54.3294 11.8854 54.3161 11.979 54.3407C12.0726 54.3652 12.1528 54.4256 12.2023 54.5088C12.2492 54.593 12.2617 54.692 12.2373 54.7853C12.2128 54.8785 12.1533 54.9586 12.0711 55.009Z" fill="#211715"/>
<path d="M9.2528 61.2046C9.2528 61.8242 10.3222 62.8985 11.3967 62.978C12.4589 63.0568 13.1573 62.6512 13.9596 62.2924C14.3186 62.1379 14.7207 62.1158 15.0944 62.2302C15.5299 62.3573 15.9851 62.8286 16.3438 63.0658C16.8651 63.41 17.7403 64.0394 18.409 64.2754C18.6535 64.3617 19.2055 64.2528 19.4386 64.1256C19.5299 64.0672 19.6073 63.9894 19.6653 63.8979C19.7233 63.8063 19.7605 63.7031 19.7743 63.5957C19.7881 63.4882 19.7781 63.3789 19.7451 63.2757C19.7122 63.1725 19.6569 63.0777 19.5834 62.9981C19.9685 63.271 20.5248 63.3333 20.8801 62.8544C20.9588 62.744 21.0126 62.6178 21.0376 62.4846C21.0626 62.3513 21.0582 62.2142 21.0249 62.0828C20.9915 61.9513 20.93 61.8287 20.8444 61.7235C20.7589 61.6183 20.6515 61.533 20.5297 61.4735C20.9592 61.8141 21.4498 61.6083 21.7028 61.2774C21.9451 60.9603 21.941 60.2531 21.6853 60.0564C21.1764 59.5476 19.6062 58.3597 19.3111 58.2128L18.8578 57.9861C19.6739 57.9896 20.7416 57.9861 21.2676 57.9732C21.7562 57.9602 22.536 57.9614 22.5491 57.2266C22.5629 56.9801 22.4788 56.7382 22.315 56.5535C22.1512 56.3689 21.921 56.2565 21.6747 56.2408C21.2054 56.2256 20.0929 56.2091 19.6079 56.2091C19.0047 56.2091 17.9248 56.2091 17.3662 56.1931C15.8046 56.1508 14.634 56.4101 13.4963 57.071L9.2528 61.2046Z" fill="white"/>
<path d="M13.3109 56.7553C14.3833 56.1526 15.5914 55.8327 16.8216 55.8259C17.3894 55.814 17.9589 55.8393 18.5269 55.8421C19.0245 55.8443 19.522 55.8421 20.02 55.8463C20.53 55.8511 21.0401 55.8582 21.55 55.8721C22.1442 55.8884 22.6396 56.1829 22.8419 56.7626C23.0189 57.2701 22.8745 57.8847 22.3741 58.1418C21.9942 58.3368 21.5514 58.3333 21.1342 58.3418C20.0959 58.3627 19.0556 58.3609 18.0173 58.3453C17.5471 58.3382 17.5457 57.6068 18.0173 57.614C18.8685 57.6266 19.7203 57.6251 20.5717 57.6178C20.9347 57.6148 21.2992 57.616 21.6613 57.5895C21.8037 57.5789 21.9426 57.5396 22.0694 57.474C22.1021 57.4478 22.1301 57.4163 22.1523 57.3809C22.1384 57.4106 22.1738 57.3154 22.1774 57.2947C22.1831 57.2539 22.1846 57.2127 22.182 57.1717C22.1789 57.0824 22.1567 56.9949 22.1167 56.915C22.0767 56.8351 22.02 56.7648 21.9504 56.7088C21.7999 56.6183 21.6236 56.5803 21.4492 56.6008C20.9729 56.5892 20.4965 56.5815 20.02 56.5777C19.0774 56.5688 18.1349 56.5681 17.1922 56.556C15.9523 56.54 14.7627 56.7643 13.6804 57.3874C13.2719 57.6227 12.9033 56.9913 13.3114 56.7559L13.3109 56.7553Z" fill="#211715"/>
<path d="M19.4958 57.8968C19.6487 57.9824 19.7952 58.0792 19.9339 58.1863C20.1641 58.3507 20.391 58.5206 20.6145 58.693C21.0804 59.0333 21.5244 59.4026 21.944 59.7987C22.0125 59.8673 22.051 59.9603 22.051 60.0573C22.051 60.1543 22.0125 60.2473 21.9439 60.3159C21.8753 60.3845 21.7823 60.423 21.6853 60.423C21.5883 60.423 21.4953 60.3844 21.4267 60.3158C21.2567 60.1467 21.0726 59.9914 20.8881 59.8383C20.7688 59.7393 20.6483 59.6416 20.5269 59.5453C20.4719 59.5016 20.4168 59.4581 20.3615 59.4149L20.2663 59.3407C20.2337 59.3156 20.2346 59.3162 20.2691 59.3428L20.2217 59.3064C19.9992 59.1355 19.7745 58.967 19.5458 58.8044C19.413 58.7025 19.2729 58.6104 19.1267 58.5288C19.0852 58.5046 19.0489 58.4724 19.0199 58.4341C18.9909 58.3959 18.9697 58.3523 18.9575 58.3058C18.9453 58.2594 18.9424 58.211 18.949 58.1634C18.9555 58.1158 18.9713 58.07 18.9956 58.0285C19.0198 57.9871 19.052 57.9508 19.0902 57.9218C19.1285 57.8927 19.1721 57.8715 19.2186 57.8594C19.265 57.8472 19.3134 57.8443 19.361 57.8508C19.4086 57.8573 19.4544 57.8732 19.4958 57.8974V57.8968Z" fill="#211715"/>
<path d="M17.4195 58.7035C18.5681 59.5061 19.6818 60.3585 20.7897 61.2163C20.8578 61.2851 20.896 61.3781 20.896 61.4749C20.896 61.5717 20.8578 61.6646 20.7897 61.7334C20.7199 61.7998 20.6274 61.8368 20.5311 61.8368C20.4349 61.8368 20.3423 61.7998 20.2725 61.7334C19.2298 60.9259 18.145 60.1 17.0505 59.3348C16.9686 59.2842 16.9093 59.2041 16.8848 59.111C16.8604 59.0179 16.8726 58.9189 16.9191 58.8346C16.9686 58.7515 17.0488 58.6911 17.1424 58.6666C17.236 58.6421 17.3355 58.6553 17.4195 58.7035Z" fill="#211715"/>
<path d="M16.379 60.2047C17.5413 60.9817 18.6362 61.8613 19.7671 62.6833C19.8488 62.7342 19.9079 62.8143 19.9323 62.9074C19.9567 63.0004 19.9445 63.0993 19.8983 63.1836C19.8488 63.2668 19.7686 63.3272 19.675 63.3517C19.5814 63.3762 19.4819 63.363 19.398 63.3148C18.2672 62.4928 17.1723 61.6137 16.0098 60.8362C15.9278 60.7857 15.8684 60.7055 15.844 60.6124C15.8195 60.5192 15.8319 60.4202 15.8786 60.3359C15.9282 60.2529 16.0084 60.1926 16.102 60.1681C16.1956 60.1436 16.295 60.1567 16.379 60.2047Z" fill="#211715"/>
<path d="M21.9438 59.7977C22.3571 60.1544 22.3138 60.9364 22.0737 61.3746C21.9937 61.5218 21.8836 61.6506 21.7506 61.7525C21.6176 61.8545 21.4646 61.9274 21.3017 61.9664C21.1387 62.0055 20.9694 62.0099 20.8046 61.9793C20.6398 61.9488 20.4833 61.8839 20.3452 61.789C19.9736 61.5148 20.2911 60.9279 20.7144 61.1577C21.3497 61.5024 21.6302 62.3357 21.2421 62.9691C20.839 63.6268 20.016 63.7331 19.3986 63.3139L19.8417 62.7395C20.0103 62.9204 20.1144 63.1519 20.138 63.3981C20.1616 63.6443 20.1033 63.8914 19.9721 64.1011C19.7195 64.5003 19.243 64.6216 18.7989 64.6638C18.3322 64.7082 17.9193 64.4826 17.5241 64.2594C17.1064 64.0237 16.7104 63.7522 16.3126 63.4849C15.9218 63.2224 15.5761 62.8775 15.161 62.6538C14.6887 62.3994 14.2208 62.5717 13.7746 62.7774C12.8604 63.1978 11.8244 63.5631 10.8188 63.2326C10.3062 63.0598 9.84398 62.7634 9.47299 62.3697C9.17482 62.0541 8.8986 61.6536 8.88595 61.2046C8.8727 60.7338 9.60402 60.7343 9.61728 61.2046C9.61728 61.2189 9.63373 61.3152 9.61819 61.2369C9.62553 61.2719 9.63489 61.3065 9.64622 61.3405C9.66152 61.3865 9.68197 61.4307 9.70717 61.4721C9.78485 61.6107 9.87999 61.7387 9.99025 61.853C10.2465 62.1298 10.56 62.3474 10.9088 62.4908C11.702 62.8033 12.5648 62.5298 13.3009 62.194C13.7488 61.9898 14.1718 61.773 14.6796 61.7957C15.1976 61.8191 15.6039 62.0381 16.0051 62.3491C16.6464 62.8609 17.33 63.3174 18.0484 63.7136C18.1479 63.7667 18.2486 63.8183 18.3519 63.8634C18.3889 63.8796 18.4206 63.8928 18.4585 63.9067C18.4721 63.9117 18.5966 63.9436 18.5605 63.939C18.7447 63.9515 18.9296 63.9268 19.1042 63.8666C19.2444 63.825 19.3241 63.8002 19.3855 63.6518C19.4143 63.5871 19.4239 63.5155 19.4131 63.4455C19.4023 63.3755 19.3715 63.3102 19.3246 63.2572C19.0605 62.9643 19.4068 62.4378 19.7678 62.6828C20.0522 62.876 20.4019 62.9294 20.6108 62.6005C20.8015 62.3001 20.6351 61.9469 20.3454 61.7895L20.7145 61.1581C20.7764 61.2168 20.854 61.2562 20.938 61.2713C21.0219 61.2864 21.1084 61.2766 21.1868 61.2431C21.3 61.1897 21.3927 61.101 21.451 60.9904C21.5033 60.8582 21.5246 60.7158 21.5132 60.5741C21.5108 60.516 21.5005 60.4585 21.4827 60.4032C21.4632 60.3413 21.4874 60.3684 21.4257 60.3153C21.0689 60.0073 21.588 59.4925 21.943 59.7982L21.9438 59.7977Z" fill="#211715"/>
<path d="M12.7757 32.0924C11.9449 32.5356 11.1832 33.0977 10.5149 33.761C9.63549 34.6065 8.81006 35.5063 8.04343 36.4552C6.3495 38.5093 4.85104 40.706 3.26239 42.8391C2.61536 43.6732 2.02423 44.5492 1.49289 45.4613C1.24496 45.8907 1.04249 46.3448 0.888783 46.8163C0.825428 47.0167 0.7783 47.2218 0.747851 47.4298C0.735358 47.5355 0.729254 47.6418 0.729569 47.7482C0.729569 47.7964 0.731091 47.8447 0.733986 47.8928C0.735662 47.9186 0.747548 48.0318 0.742826 47.9974C0.889853 49.0655 1.36612 50.1054 1.85078 51.057C2.3753 52.0841 2.97628 53.0702 3.64862 54.0072C4.40798 55.0667 5.21792 56.0954 6.01019 57.1305C6.82013 58.2174 7.68779 59.26 8.60944 60.2539C8.82701 60.4828 9.05017 60.7063 9.27891 60.9243L8.83585 60.867C10.4768 59.6207 11.8603 58.0595 13.4456 56.7442L13.3885 57.1872C12.8248 56.0258 12.1806 54.9018 11.5567 53.7721C10.8478 52.4884 10.1292 51.2092 9.45184 49.9085C9.20266 49.4568 8.98073 48.9905 8.78725 48.5122C8.76225 48.4187 8.77503 48.3191 8.82283 48.2349C8.87063 48.1507 8.94963 48.0887 9.04275 48.0623C9.1362 48.0386 9.23517 48.052 9.31898 48.0996C9.40279 48.1472 9.46497 48.2254 9.49252 48.3178C9.50455 48.3498 9.51766 48.3814 9.53015 48.4134C9.55636 48.4808 9.49313 48.3289 9.52345 48.3982C9.53198 48.4174 9.54021 48.4368 9.54859 48.4558C9.5911 48.5522 9.63589 48.6478 9.68145 48.7428C9.78947 48.968 9.90267 49.1909 10.0174 49.4132C10.3264 50.0112 10.6476 50.603 10.9704 51.1937C11.6927 52.5156 12.43 53.8295 13.1482 55.1532C13.447 55.7038 13.7465 56.2552 14.02 56.819C14.0594 56.8892 14.0751 56.9702 14.0648 57.0501C14.0545 57.1299 14.0187 57.2043 13.9627 57.2622C12.3282 58.6182 10.8988 60.2129 9.20502 61.4994C9.13512 61.5399 9.05384 61.5563 8.97373 61.5459C8.89362 61.5356 8.81914 61.4992 8.7618 61.4423C6.72811 59.5101 5.13839 57.152 3.43547 54.9379C2.75149 54.0451 2.13433 53.103 1.58903 52.1193C1.0128 51.0843 0.483658 49.9895 0.177415 48.8408C0.0364075 48.3851 -0.0179529 47.9069 0.0171375 47.4312C0.0844994 46.9146 0.228271 46.411 0.443742 45.9367C0.877509 44.9311 1.50386 44.0156 2.14484 43.1333C3.69144 41.0028 5.21213 38.848 6.84664 36.7835C7.65007 35.7509 8.50747 34.7614 9.41527 33.8192C10.1445 33.0439 10.9628 32.3575 11.853 31.7741C12.0328 31.6618 12.2176 31.5581 12.4073 31.463C12.8271 31.2534 13.1979 31.884 12.7763 32.0945L12.7757 32.0924Z" fill="#211715"/>
<path d="M21.1975 26.9308C21.5032 26.6779 21.8255 26.4457 22.1622 26.2358C22.7193 27.1922 24.2115 29.7297 24.8462 30.6678C24.5744 30.8385 24.4044 30.9463 24.4044 30.9463C23.8877 31.2742 20.7247 32.2004 20.3274 32.1114C20.3041 30.946 20.3039 28.5715 20.3463 27.7873C20.5939 27.468 20.8798 27.1804 21.1975 26.9308Z" fill="#B3B3B3"/>
<path d="M32.2814 26.8572C32.0328 26.6571 31.7736 26.4704 31.5051 26.2979C31.1776 27.0659 30.1339 28.8714 29.8129 29.4374C29.5996 29.8122 29.3253 30.2827 29.0244 30.7848L29.4291 31.0417C29.9457 31.3696 32.8445 32.1996 33.2419 32.1114C33.2652 30.946 33.2653 28.5715 33.223 27.7873C32.95 27.4385 32.6335 27.1259 32.2814 26.8572Z" fill="#B3B3B3"/>
<path d="M31.8858 26.3308C31.4798 27.3222 30.9084 28.2539 30.3795 29.1828C29.8043 30.1928 29.2168 31.195 28.5988 32.1796C28.2222 32.7794 27.8386 33.3766 27.4215 33.9494C27.3707 34.031 27.2905 34.0901 27.1975 34.1145C27.1044 34.1389 27.0056 34.1267 26.9212 34.0805C26.838 34.0311 26.7776 33.9509 26.7531 33.8573C26.7285 33.7636 26.7418 33.6641 26.79 33.5802C27.5518 32.5347 28.2233 31.42 28.8833 30.3089C29.415 29.4138 29.9312 28.5092 30.4319 27.5951C30.5867 27.3133 30.7395 27.0304 30.8865 26.7446C30.9465 26.628 31.0055 26.511 31.0625 26.3928C31.0884 26.339 31.114 26.2849 31.1387 26.2307C31.1499 26.206 31.1609 26.1812 31.172 26.1565C31.2043 26.0838 31.1502 26.2106 31.1806 26.1364C31.2089 26.0446 31.2713 25.967 31.3548 25.9196C31.4384 25.8721 31.5369 25.8583 31.6303 25.881C31.7235 25.9073 31.8026 25.9693 31.8504 26.0535C31.8982 26.1376 31.911 26.2373 31.8858 26.3308Z" fill="#211715"/>
<path d="M22.4778 26.0492C23.0873 27.0946 23.7023 28.1365 24.333 29.1693C24.8559 30.0254 25.4167 30.8462 25.9926 31.6669C26.3712 32.2066 26.7486 32.747 27.1315 33.2835C27.1797 33.3674 27.1929 33.4669 27.1684 33.5605C27.1438 33.6541 27.0835 33.7343 27.0003 33.7838C26.9161 33.8307 26.817 33.8432 26.7238 33.8188C26.6305 33.7943 26.5504 33.7348 26.5 33.6527C25.8707 32.7709 25.2529 31.881 24.6301 30.9947C23.9643 30.0472 23.3888 29.0302 22.7979 28.0355C22.4784 27.4978 22.1612 26.9588 21.8465 26.4183C21.6091 26.0108 22.2408 25.6422 22.4778 26.0492Z" fill="#211715"/>
<path d="M31.7114 25.9956C32.197 26.3065 32.6513 26.6637 33.0681 27.0621C33.2423 27.2172 33.3965 27.3933 33.5272 27.5864C33.6172 27.7348 33.5974 27.9536 33.6025 28.1241C33.6279 28.9881 33.6262 29.8535 33.6229 30.7178C33.6211 31.1825 33.6174 31.6472 33.6076 32.1121C33.6068 32.1919 33.5802 32.2694 33.5318 32.3329C33.4835 32.3965 33.4159 32.4427 33.3392 32.4648C33.0502 32.4946 32.7581 32.468 32.4793 32.3865C32.0839 32.3047 31.6928 32.2018 31.3043 32.0921C30.8991 31.9778 30.4968 31.8547 30.0987 31.7161C29.8023 31.6276 29.5163 31.5076 29.2454 31.3582C28.846 31.1109 29.2128 30.478 29.6146 30.7267C29.6583 30.7532 29.7033 30.7774 29.7496 30.7992C29.7712 30.8096 29.7933 30.8192 29.815 30.8297C29.9081 30.8734 29.7897 30.8207 29.8529 30.8461C29.9986 30.9049 30.1457 30.9595 30.2938 31.0111C30.6775 31.1451 31.0663 31.2642 31.4571 31.3753C31.838 31.4833 32.22 31.5845 32.6065 31.6673C32.7471 31.6978 32.8884 31.7246 33.0308 31.7458C32.9213 31.7295 33.0765 31.7501 33.1117 31.7517C33.1879 31.7554 33.2405 31.7414 33.1455 31.7598L32.8771 32.1124C32.9053 30.675 32.9333 29.2246 32.8582 27.7883L32.908 27.9728C32.5271 27.4417 31.8989 26.9895 31.3424 26.6279C30.9491 26.3724 31.3152 25.739 31.7115 25.9964L31.7114 25.9956Z" fill="#211715"/>
<path d="M22.2274 26.6264C21.6708 26.988 21.0428 27.4403 20.6617 27.9713L20.7115 27.7868C20.6364 29.2231 20.6645 30.6735 20.6926 32.1109L20.4242 31.7583C20.4647 31.7662 20.309 31.7637 20.3849 31.7512C20.4057 31.7496 20.4266 31.7491 20.4475 31.7496C20.4731 31.7486 20.4984 31.7452 20.5237 31.7431C20.627 31.735 20.4678 31.7531 20.5389 31.7413C20.6976 31.7149 20.855 31.684 21.0112 31.6486C21.4255 31.5555 21.8356 31.4442 22.2434 31.3261C22.6617 31.2042 23.078 31.0758 23.4892 30.9322C23.6539 30.8746 23.8175 30.814 23.9793 30.7494C24.0433 30.7237 23.9184 30.7788 24.0119 30.7354C24.0394 30.7226 24.0669 30.7107 24.0942 30.6974C24.1367 30.6773 24.1782 30.655 24.2184 30.6306C24.6197 30.3821 24.9873 31.0145 24.5876 31.2621C24.3838 31.3762 24.1695 31.4702 23.9476 31.5429C23.6345 31.6599 23.3166 31.7641 22.9975 31.8628C22.34 32.0757 21.6719 32.2545 20.996 32.3987C20.747 32.4693 20.4866 32.4913 20.2293 32.4633C20.1524 32.4414 20.0847 32.3953 20.0363 32.3317C19.9879 32.2681 19.9614 32.1905 19.9609 32.1106C19.9438 31.2366 19.9423 30.3621 19.947 29.4879C19.9493 29.0765 19.9531 28.6644 19.9631 28.2527C19.9666 28.1104 19.968 27.9673 19.9784 27.8253C19.9962 27.5692 20.193 27.378 20.3635 27.1994C20.8137 26.7416 21.3153 26.3373 21.8583 25.9946C22.2545 25.7375 22.6212 26.3704 22.2275 26.6261L22.2274 26.6264Z" fill="#211715"/>
<path d="M17.0861 38.0418C18.5764 38.049 20.0667 38.0642 21.5569 38.0767L22.619 38.0853C22.9367 38.065 23.2556 38.0744 23.5715 38.1135C23.7969 38.1598 23.9959 38.2907 24.1278 38.4791C24.2427 38.6732 24.2897 38.9 24.2616 39.1237C24.2566 39.3573 24.2508 39.5909 24.2456 39.8246C24.2401 40.0748 24.2701 40.354 24.1513 40.5832C23.8435 41.1763 23.1014 41.0616 22.5428 41.0593C21.9175 41.0569 21.2922 41.0539 20.667 41.0503C19.4763 41.0441 18.2795 41.0741 17.0894 41.0351C16.6096 41.0199 16.1972 40.7022 16.1789 40.2009C16.1711 39.9876 16.1789 39.7714 16.1789 39.5574C16.1789 39.3331 16.1707 39.1071 16.1789 38.8829C16.1973 38.3811 16.6025 38.0601 17.0861 38.0418C17.5567 38.0236 17.5559 38.7549 17.0861 38.7732C16.9185 38.7796 16.9102 38.8507 16.9102 38.9842V39.6328C16.9102 39.8115 16.8987 39.9946 16.9102 40.173C16.9189 40.3067 17.0531 40.3038 17.1886 40.3039C18.2673 40.305 19.3459 40.3125 20.4246 40.3181C21.0025 40.321 21.5805 40.3239 22.1584 40.3266C22.3939 40.3276 22.6293 40.3286 22.8646 40.3295C23.0382 40.3466 23.2131 40.3446 23.3863 40.3234C23.4972 40.2969 23.4973 40.2596 23.5072 40.1729C23.5333 39.9444 23.5172 39.7015 23.5225 39.4708C23.525 39.3553 23.5276 39.2398 23.5303 39.1242C23.5417 39.052 23.5422 38.9785 23.5319 38.9062C23.4992 38.8262 23.3948 38.8241 23.3118 38.8213C22.7278 38.802 22.1412 38.8129 21.5569 38.8081C20.0667 38.7956 18.5764 38.7803 17.0861 38.7732C16.6157 38.7709 16.6147 38.0396 17.0861 38.0418Z" fill="#211715"/>
<path d="M23.9454 41.895C23.9445 42.7654 23.9243 43.6361 23.9158 44.5065C23.9108 45.0246 23.9061 45.5435 23.9073 46.062C23.9073 46.3726 23.8983 46.6641 23.6787 46.9105C23.4395 47.1783 23.1303 47.2152 22.7925 47.2152C21.5533 47.2162 20.3136 47.2176 19.0735 47.2193L17.3991 47.2211C17.2263 47.234 17.0532 47.2 16.8982 47.1226C16.7432 47.0452 16.6119 46.9274 16.5183 46.7816C16.3515 46.4974 16.3929 46.1686 16.4011 45.8539C16.4348 44.576 16.4984 43.297 16.4999 42.0185C16.4999 41.548 17.2312 41.5471 17.2312 42.0185C17.23 43.0799 17.1814 44.1418 17.1506 45.2028C17.1427 45.4782 17.1352 45.7534 17.1281 46.0285C17.1238 46.1973 17.0596 46.4586 17.2888 46.4935C17.4968 46.5072 17.7056 46.5059 17.9135 46.4897L18.7394 46.4887L22.3458 46.4848C22.5653 46.4992 22.7856 46.4992 23.0052 46.4848C23.2092 46.4567 23.1776 46.2748 23.177 46.1123C23.1753 45.6399 23.1795 45.1676 23.1837 44.6962C23.1921 43.763 23.2142 42.8297 23.215 41.8965C23.215 41.4258 23.9463 41.4251 23.9463 41.8965L23.9454 41.895Z" fill="#211715"/>
<path d="M30.2382 38.0421C31.7466 38.0506 33.2539 38.0686 34.7616 38.0832C35.1206 38.0868 35.4795 38.0901 35.8382 38.0933C36.146 38.096 36.5211 38.0453 36.8133 38.151C36.994 38.2173 37.1494 38.3385 37.2577 38.4977C37.3659 38.6568 37.4216 38.8459 37.417 39.0383C37.417 39.1349 37.4141 39.2317 37.4125 39.3278C37.3821 41.3637 37.3525 43.3998 37.3237 45.4359C37.3189 45.7569 37.3143 46.0779 37.3097 46.399C37.321 46.6213 37.2627 46.8416 37.1429 47.0291C36.8921 47.382 36.5229 47.4184 36.1254 47.41C34.6458 47.3788 33.1661 47.3501 31.6863 47.3238C31.3429 47.3181 30.9994 47.313 30.656 47.3086C30.2734 47.3037 29.8872 47.3317 29.5936 47.0363C29.3434 46.7844 29.3308 46.4762 29.3308 46.1526V39.3604C29.3241 39.1892 29.3271 39.0177 29.3398 38.8468C29.3663 38.6264 29.4722 38.4231 29.6376 38.275C29.803 38.1269 30.0167 38.044 30.2387 38.0419C30.7092 38.0219 30.7083 38.7534 30.2387 38.7732C30.022 38.7822 30.0629 39.0257 30.0629 39.1787V45.6902C30.0629 45.9096 30.0562 46.1299 30.0629 46.3491C30.065 46.4227 30.0629 46.4863 30.1311 46.5385C30.2149 46.6022 30.3678 46.574 30.4663 46.5751C30.6194 46.5769 30.7725 46.5789 30.9255 46.581C32.3739 46.6015 33.8222 46.631 35.2704 46.661L36.126 46.679C36.3076 46.683 36.5464 46.743 36.5775 46.5064C36.5938 46.2749 36.5972 46.0427 36.5875 45.8109C36.6164 43.8215 36.6453 41.8321 36.6742 39.8428C36.678 39.5838 36.6838 39.3234 36.6859 39.0636C36.6873 38.8742 36.5907 38.8304 36.4097 38.829C36.1197 38.8271 35.8298 38.8247 35.5399 38.8218C34.0664 38.8084 32.5931 38.7914 31.1196 38.7795C30.8259 38.777 30.5324 38.775 30.2387 38.7732C29.7679 38.7706 29.7667 38.0393 30.2382 38.0421Z" fill="#211715"/>
<path d="M36.8181 42.1357C35.7455 42.8206 34.6068 43.3959 33.4191 43.8529C32.3014 44.3182 31.1378 44.6644 29.9476 44.8858C29.8542 44.9088 29.7555 44.8951 29.6718 44.8476C29.5882 44.8001 29.5258 44.7224 29.4977 44.6304C29.4728 44.5369 29.4856 44.4374 29.5334 44.3533C29.5812 44.2691 29.6601 44.2071 29.7532 44.1807C30.9227 43.9632 32.0665 43.6249 33.166 43.171C34.3139 42.7283 35.4138 42.1698 36.4485 41.5042C36.8429 41.2452 37.2103 41.8781 36.8176 42.1357H36.8181Z" fill="#211715"/>
<path d="M18.0759 14.8373C17.8871 14.6818 17.6446 14.6071 17.401 14.6295C17.1574 14.652 16.9326 14.7698 16.7755 14.9572C16.5918 15.1989 16.5799 15.544 16.5704 15.8341C16.5582 16.1513 16.5782 16.469 16.6303 16.7822C16.8297 17.9386 17.4437 19.3478 18.7329 19.5679C18.8259 19.5944 18.9049 19.6563 18.9527 19.7405C19.0005 19.8246 19.0132 19.9242 18.9882 20.0177C18.9606 20.11 18.8984 20.1881 18.8146 20.2357C18.7308 20.2833 18.6319 20.2967 18.5385 20.2732C17.2388 20.0512 16.4636 18.838 16.0938 17.6695C15.8919 17.0332 15.8078 16.3653 15.8455 15.6988C15.884 15.0576 16.0682 14.4522 16.657 14.1142C16.9614 13.9443 17.3111 13.8729 17.6578 13.9099C18.0045 13.9469 18.3312 14.0905 18.593 14.3208C18.6608 14.3898 18.6988 14.4827 18.6988 14.5794C18.6988 14.6761 18.6608 14.7689 18.593 14.8379C18.5235 14.9047 18.4308 14.942 18.3344 14.942C18.238 14.942 18.1454 14.9047 18.0759 14.8379V14.8373Z" fill="#211715"/>
<path d="M19.0128 18.9488C19.0338 19.323 19.1026 19.6929 19.2176 20.0495C19.259 20.1892 19.3048 20.3277 19.3511 20.4659C19.3648 20.5064 19.3777 20.5471 19.3925 20.5878C19.3968 20.5995 19.402 20.6109 19.4061 20.6227C19.435 20.7051 19.3939 20.5968 19.405 20.6213C19.5735 20.9868 19.7664 21.3405 19.9824 21.68C20.6008 22.7066 21.3915 23.6189 22.3198 24.3768C22.8238 24.7904 23.4127 25.088 24.0447 25.2483C24.5031 25.3534 24.309 26.0587 23.8502 25.9536C22.5488 25.6549 21.46 24.7163 20.6018 23.7351C19.8724 22.9303 19.2642 22.0235 18.7965 21.0432C18.4928 20.3848 18.318 19.6743 18.2815 18.9502C18.2663 18.4796 18.9976 18.48 19.0128 18.9502V18.9488Z" fill="#211715"/>
<path d="M35.5975 14.3214C35.8254 14.1196 36.1038 13.9836 36.403 13.9278C36.7022 13.8721 37.011 13.8987 37.2963 14.0048C37.9251 14.2534 38.2409 14.7804 38.3212 15.4336C38.4744 16.7368 38.1418 18.0508 37.3871 19.1242C36.9605 19.7007 36.373 20.1513 35.6523 20.2744C35.5589 20.2973 35.4602 20.2836 35.3765 20.2361C35.2929 20.1886 35.2306 20.1109 35.2024 20.0189C35.1774 19.9254 35.1902 19.8258 35.238 19.7417C35.2858 19.6575 35.3648 19.5955 35.4579 19.5691C36.7467 19.3491 37.3609 17.9396 37.5605 16.7834C37.6125 16.4702 37.6326 16.1525 37.6203 15.8352C37.6107 15.5457 37.5987 15.1996 37.4153 14.9584C37.2581 14.7709 37.0333 14.6531 36.7897 14.6306C36.5461 14.6082 36.3035 14.6829 36.1147 14.8385C36.045 14.9048 35.9524 14.9418 35.8562 14.9418C35.7599 14.9418 35.6673 14.9048 35.5976 14.8385C35.5298 14.7695 35.4918 14.6767 35.4918 14.5799C35.4918 14.4832 35.5297 14.3904 35.5975 14.3214Z" fill="#211715"/>
<path d="M35.8558 18.8158C35.6505 20.1109 35.2044 21.356 34.5405 22.4867C33.7836 23.7318 32.6841 24.857 31.3874 25.5385C30.6989 25.901 29.947 26.1278 29.1729 26.2063C29.0761 26.2057 28.9834 26.167 28.915 26.0985C28.8465 26.0301 28.8078 25.9374 28.8072 25.8406C28.8093 25.7443 28.8485 25.6525 28.9166 25.5844C28.9847 25.5163 29.0765 25.4771 29.1729 25.475C31.8061 25.203 33.8559 22.844 34.6817 20.4712C34.8882 19.8684 35.045 19.2497 35.1505 18.6214C35.177 18.5283 35.239 18.4493 35.3232 18.4016C35.4074 18.3538 35.5069 18.341 35.6004 18.366C35.6928 18.3937 35.7709 18.4558 35.8184 18.5396C35.866 18.6234 35.8794 18.7224 35.8558 18.8158Z" fill="#211715"/>
<path d="M18.1215 4.9855C20.1482 1.98463 23.8422 0.364746 27.0964 0.364746C31.1303 0.364746 37.0455 3.5259 37.5635 9.19626C37.6574 10.2221 37.737 12.4973 37.4194 13.6272C37.2423 13.7034 37.0984 13.7643 37.0984 13.7643C36.3387 14.0907 33.6626 13.0287 32.3118 12.704C30.8958 12.3637 28.7923 11.9363 27.094 11.9719C25.3964 11.9366 23.2946 12.3638 21.8792 12.704C20.5283 13.0287 17.8523 14.0905 17.0925 13.7643C17.0925 13.7643 16.9487 13.7026 16.7716 13.6272C16.454 12.4973 16.5336 10.2221 16.6275 9.19626C16.7592 7.68843 17.2734 6.23912 18.1215 4.9855Z" fill="#B3B3B3"/>
<path d="M37.001 13.7364C37.2046 13.191 37.2364 12.6156 37.2637 12.0384C37.2959 11.3562 37.287 10.6717 37.2536 9.98973C37.1927 8.73871 36.9665 7.52791 36.4058 6.39725C35.3036 4.17463 33.2442 2.50493 30.9883 1.57203C30.4444 1.34688 29.8845 1.16232 29.3133 1.01988C28.8003 0.888264 28.277 0.800343 27.7492 0.757061C26.5907 0.676168 25.4271 0.798581 24.3109 1.11876C21.8909 1.78503 19.6347 3.26551 18.2829 5.4092C17.5617 6.55286 17.1205 7.85049 16.995 9.1967C16.9403 9.78999 16.9175 10.3871 16.9126 10.9828C16.8956 11.6474 16.9286 12.3123 17.0115 12.9719C17.0454 13.2326 17.1066 13.4891 17.1943 13.737C17.2193 13.8305 17.2065 13.9301 17.1587 14.0142C17.111 14.0984 17.032 14.1604 16.939 14.1869C16.8455 14.2106 16.7465 14.1972 16.6627 14.1496C16.5788 14.102 16.5166 14.0238 16.489 13.9314C16.2677 13.3381 16.23 12.6658 16.2003 12.039C16.1674 11.3418 16.1772 10.6418 16.2127 9.94479C16.2843 8.53744 16.5521 7.18221 17.1702 5.90726C18.364 3.44468 20.6378 1.65202 23.1744 0.716838C24.3886 0.265699 25.6705 0.0235752 26.9656 0.000748629C28.1296 -0.00130252 29.2858 0.191347 30.3864 0.570725C32.8569 1.39468 35.1455 2.978 36.5622 5.18965C37.3234 6.38145 37.791 7.73682 37.9266 9.14444C38.0771 10.4818 38.0645 11.8324 37.889 13.1667C37.855 13.4275 37.7937 13.6839 37.7062 13.9319C37.6782 14.024 37.6159 14.1018 37.5322 14.1494C37.4486 14.1969 37.3498 14.2105 37.2564 14.1874C37.1633 14.1609 37.0843 14.0989 37.0366 14.0147C36.9888 13.9306 36.976 13.831 37.001 13.7375V13.7364Z" fill="#211715"/>
<path d="M27.0966 7.81374C27.8779 7.79604 28.6581 7.8845 29.4156 8.07671C30.2559 8.27557 31.0796 8.53913 31.8793 8.86502C33.4058 9.47811 34.876 10.2422 36.0562 11.4085C36.6945 12.0393 37.3653 12.8375 37.4651 13.7637C37.4641 13.8435 37.4375 13.9209 37.3891 13.9844C37.3408 14.0479 37.2733 14.0942 37.1966 14.1164C36.765 14.291 36.202 14.1597 35.7678 14.0679C35.1317 13.9339 34.5087 13.7398 33.8881 13.5478C33.317 13.3709 32.7473 13.1833 32.1654 13.0439C31.4071 12.8623 30.6432 12.7019 29.8738 12.575C28.2518 12.2985 26.5976 12.2655 24.9658 12.4772C23.5509 12.6675 22.1542 12.9752 20.7903 13.3971C20.0806 13.6167 19.3724 13.8476 18.6489 14.018C18.3334 14.0963 18.0126 14.151 17.689 14.1818C17.4563 14.2127 17.2197 14.1904 16.997 14.1164C16.9206 14.0937 16.8534 14.0473 16.8052 13.9839C16.7569 13.9205 16.7301 13.8433 16.7285 13.7637C16.8155 12.9575 17.3407 12.2613 17.8735 11.6818C18.4583 11.0498 19.1293 10.5034 19.8667 10.0588C21.2965 9.20524 22.8428 8.56402 24.4571 8.15518C25.3155 7.91204 26.2051 7.79699 27.0972 7.81374C27.5658 7.83492 27.5684 8.56639 27.0972 8.54506C25.5801 8.47604 24.0348 8.96999 22.6393 9.51834C21.2505 10.0644 19.888 10.7576 18.7954 11.7897C18.449 12.1068 18.139 12.4616 17.8714 12.8475C17.759 13.0109 17.6612 13.1837 17.579 13.364C17.5516 13.4278 17.5279 13.4931 17.5081 13.5597C17.4966 13.5979 17.486 13.6358 17.4777 13.6756C17.4745 13.6895 17.4531 13.8309 17.4603 13.7637L17.1918 13.4111C17.2286 13.4264 17.2653 13.4343 17.3026 13.4463C17.3972 13.4768 17.2648 13.4523 17.3509 13.4545C17.4578 13.4591 17.5648 13.4582 17.6716 13.4518C17.7743 13.4456 17.8764 13.4323 17.9773 13.412C18.1223 13.3869 18.2667 13.3566 18.4101 13.3234C19.0429 13.1772 19.6636 12.9816 20.2841 12.7892C21.6036 12.3749 22.9515 12.0572 24.3171 11.8388C25.951 11.5705 27.6153 11.5406 29.2578 11.7499C30.6796 11.9329 32.0838 12.2336 33.4559 12.6489C34.1528 12.8629 34.8468 13.0907 35.554 13.2681C35.7181 13.3095 35.883 13.3479 36.0491 13.3811C36.1927 13.4097 36.3385 13.4346 36.4324 13.444C36.5543 13.458 36.6771 13.4626 36.7997 13.4579C36.8191 13.4568 36.8383 13.4551 36.8576 13.4538C36.949 13.4472 36.7839 13.4731 36.8671 13.452C36.913 13.4416 36.9583 13.4281 37.0024 13.4116L36.7339 13.7641C36.7421 13.8392 36.7257 13.7177 36.7249 13.714C36.7167 13.6755 36.7077 13.6378 36.697 13.5991C36.6785 13.5317 36.6562 13.4653 36.6302 13.4003C36.5667 13.2548 36.4924 13.1143 36.4077 12.9801C36.1849 12.6313 35.9241 12.3083 35.6299 12.017C35.0921 11.47 34.484 10.9967 33.8217 10.6095C32.4673 9.82143 31.0086 9.2281 29.4886 8.84704C28.7103 8.63027 27.9044 8.52868 27.0966 8.54552C26.6261 8.56639 26.6272 7.83507 27.0966 7.81374Z" fill="#211715"/>
<path d="M28.6039 21.5655C28.0945 21.8286 27.5273 21.9595 26.9542 21.9464C26.3702 21.9426 25.7723 21.8309 25.3037 21.4657C25.2356 21.3969 25.1974 21.304 25.1974 21.2072C25.1974 21.1104 25.2356 21.0174 25.3037 20.9486C25.3734 20.8822 25.4659 20.8452 25.5622 20.8452C25.6585 20.8452 25.751 20.8822 25.8208 20.9486C25.7141 20.8657 25.8127 20.9401 25.84 20.9575C25.8738 20.9791 25.9087 20.9992 25.9442 21.0184C25.966 21.0297 26.0843 21.0818 25.9998 21.0477C26.0471 21.0668 26.0951 21.0843 26.1436 21.1001C26.4233 21.1872 26.7157 21.2262 27.0084 21.2156C27.2876 21.2215 27.5661 21.1839 27.8337 21.1043C27.8865 21.0891 27.9378 21.0699 27.9898 21.0519C28.0068 21.0461 28.0233 21.0385 28.04 21.0324C27.9486 21.0659 28.026 21.0387 28.0437 21.0303C28.1083 20.9998 28.1718 20.9683 28.2349 20.9349C28.3191 20.888 28.4182 20.8755 28.5114 20.8999C28.6046 20.9244 28.6848 20.9839 28.7351 21.0661C28.783 21.1501 28.7961 21.2495 28.7716 21.343C28.7471 21.4366 28.6869 21.5168 28.6039 21.5664V21.5655Z" fill="#211715"/>
<path d="M27.1062 17.6368C27.0286 17.9172 26.9664 18.2016 26.92 18.4888L26.9331 18.3916C26.9275 18.4306 26.9264 18.47 26.9299 18.5092L26.9168 18.412C26.9193 18.43 26.9237 18.4477 26.9297 18.4649L26.8929 18.3776C26.898 18.3894 26.9042 18.4008 26.9114 18.4116L26.8543 18.3375C26.8626 18.3477 26.8719 18.3569 26.8822 18.3649L26.8081 18.3078C26.8298 18.3212 26.8524 18.3332 26.8756 18.3436L26.7883 18.3067C26.8248 18.3223 26.8629 18.3334 26.902 18.3398L26.8048 18.3268C26.8402 18.331 26.876 18.331 26.9114 18.3268L26.8142 18.3398C26.8545 18.3342 26.8941 18.3246 26.9343 18.3191C27.0295 18.2968 27.1297 18.3098 27.216 18.3558C27.2575 18.38 27.2938 18.4122 27.3228 18.4505C27.3519 18.4887 27.3731 18.5323 27.3853 18.5788C27.3974 18.6253 27.4004 18.6737 27.3938 18.7213C27.3873 18.7688 27.3714 18.8147 27.3472 18.8561C27.324 18.8974 27.2926 18.9335 27.2551 18.9623C27.2175 18.9911 27.1746 19.012 27.1287 19.0237C27.0434 19.0353 26.9611 19.0571 26.8738 19.0609C26.7462 19.0619 26.6202 19.0323 26.5063 18.9747C26.4355 18.9432 26.3727 18.8962 26.3226 18.8371C26.2724 18.778 26.2363 18.7084 26.2168 18.6334C26.1912 18.5094 26.1926 18.3813 26.2209 18.2578C26.2667 17.9836 26.3306 17.7113 26.4013 17.4421C26.4271 17.3486 26.489 17.2692 26.5733 17.2213C26.6577 17.1734 26.7576 17.161 26.8511 17.1867C26.9446 17.2125 27.024 17.2744 27.0719 17.3587C27.1198 17.4431 27.1322 17.543 27.1065 17.6365L27.1062 17.6368Z" fill="#211715"/>
<path d="M31.6789 15.2426C31.8212 15.705 31.7285 16.7688 30.8525 16.8593C29.6945 16.8524 29.6336 15.5664 30.0227 14.9617C30.3419 14.4666 31.2803 14.2605 31.6789 15.2426Z" fill="#211715"/>
<path d="M22.4091 15.2413C22.2668 15.7037 22.3596 16.7674 23.2355 16.8579C24.3935 16.8509 24.4544 15.5648 24.0653 14.9602C23.7462 14.4651 22.808 14.2591 22.4091 15.2413Z" fill="#211715"/>
</g>
<defs>
<clipPath id="clip0_189_44">
<rect width="63" height="64.6709" fill="white" transform="matrix(-1 0 0 1 63 0)"/>
</clipPath>
</defs>
</svg>
