<svg width="59" height="64" viewBox="0 0 59 64" fill="none" xmlns="http://www.w3.org/2000/svg">
<g clip-path="url(#clip0_189_101)">
<path d="M29.8646 26.1158C30.2508 24.585 29.4324 22.4893 28.0684 21.0881C26.9647 19.8853 25.2039 19.476 24.7319 20.1905C24.3636 20.7318 24.1328 21.3547 24.0594 22.0053C24.0385 22.1767 24.0236 22.359 24.0164 22.5527C24.0117 22.6755 24.0103 22.8028 24.0122 22.9346C24.0254 23.6727 24.2112 24.4293 24.2479 25.1674C24.2814 25.903 24.0904 26.627 23.3888 26.8654C23.3612 26.8748 23.3553 26.9645 23.3563 26.9873C23.3609 27.0437 23.3803 27.0979 23.4126 27.1445C23.5072 27.2749 23.6297 27.3827 23.7711 27.4598C24.5536 27.9395 25.7574 28.2237 27.0313 28.03C28.4961 27.8072 29.6828 26.9791 29.8646 26.1158Z" fill="#7A7473"/>
<path d="M24.2287 20.2345C23.7025 21.1552 23.545 22.2433 23.6295 23.2916C23.6781 23.8931 23.8051 24.4857 23.8421 25.0882C23.8649 25.4597 23.8589 25.8917 23.6352 26.2098C23.5587 26.3162 23.4566 26.4016 23.3384 26.4582C23.1732 26.5399 23.0456 26.5856 22.985 26.779C22.9485 26.8997 22.9462 27.0283 22.9783 27.1503C23.1122 27.6441 23.7069 27.9105 24.1376 28.0906C25.1351 28.4914 26.227 28.5968 27.2828 28.3942C28.313 28.2076 29.3874 27.7079 29.9939 26.8228C30.287 26.3953 29.5909 25.993 29.3 26.4172C28.7449 27.2268 27.5816 27.6003 26.6456 27.6727C26.0569 27.7225 25.4641 27.6666 24.8951 27.5077C24.6652 27.4441 24.4418 27.3589 24.228 27.2532C24.1212 27.2007 24.0177 27.1417 23.9181 27.0766C23.8711 27.045 23.8177 26.9799 23.7713 26.9544C23.731 26.9323 23.7713 26.9479 23.7599 26.9917L23.6566 27.169L23.6734 27.1493L23.4959 27.2526C23.757 27.1605 23.9911 27.0051 24.1772 26.8001C24.3633 26.5951 24.4955 26.3471 24.562 26.0784C24.7227 25.4838 24.6361 24.8632 24.5539 24.2642C24.385 23.0331 24.2809 21.7619 24.9222 20.6398C25.1792 20.1901 24.4851 19.7848 24.2283 20.2343L24.2287 20.2345Z" fill="#211715"/>
<path d="M43.134 15.0586C43.2804 14.9317 43.4524 14.8379 43.6383 14.7835C43.8242 14.7291 44.0196 14.7154 44.2113 14.7434C44.3993 14.77 44.5791 14.8384 44.7372 14.9435C44.8954 15.0487 45.028 15.1879 45.1253 15.3511C45.2381 15.5762 45.3022 15.8226 45.3135 16.0741C45.3956 17.0581 45.2057 18.0458 44.7644 18.9292C44.5563 19.3756 44.2543 19.7718 43.8791 20.091C43.5746 20.338 43.2112 20.5019 42.8245 20.5667L42.6439 20.5945C42.5573 20.9188 42.4597 21.1918 42.4122 21.3368C42.0941 22.2001 40.2631 25.2621 37.9927 26.2141C38.0072 26.8555 38.0714 27.4949 38.1849 28.1263C38.2937 28.7491 38.2602 29.3065 39.1257 29.6196C39.1826 29.6397 40.1586 30.0197 40.2456 30.0565C40.2456 30.0565 39.3042 35.2963 34.0961 35.2963C28.888 35.2963 28.3948 29.8293 28.3948 29.8293C28.5622 29.7724 28.9651 29.6398 29.0224 29.6191C29.8889 29.3062 29.8547 28.7486 29.964 28.1258C30.0795 27.4821 30.1436 26.8302 30.1557 26.1763C29.1115 25.6679 28.1935 24.9337 27.468 24.0268C26.6526 23.0267 26.0578 21.8655 25.7225 20.6195L25.3783 20.5666C24.9913 20.5018 24.6277 20.3379 24.3229 20.0908C23.9477 19.7717 23.6457 19.3754 23.4376 18.929C22.9964 18.0456 22.8064 17.058 22.8885 16.0739C22.8998 15.8224 22.9639 15.576 23.0767 15.3509C23.174 15.1878 23.3066 15.0485 23.4648 14.9434C23.6229 14.8382 23.8027 14.7698 23.9907 14.7432C24.1824 14.7152 24.3778 14.7289 24.5637 14.7833C24.7497 14.8377 24.9216 14.9316 25.068 15.0585C25.068 15.0585 24.5967 6.87476 33.7241 6.87476C42.8515 6.87476 43.134 15.0586 43.134 15.0586Z" fill="white"/>
<path d="M29.8049 27.4375C30.0765 28.109 31.0886 29.8592 31.3936 30.3972C32.0001 31.4664 33.1513 33.377 33.8953 34.3953L33.9316 34.4455L34.1628 34.1218C34.5543 33.5735 35.655 31.9991 35.8998 31.6529C36.4284 30.9049 37.9228 28.3641 38.4622 27.4382" fill="white"/>
<path d="M29.754 26.1885C29.746 26.6629 29.7088 27.1364 29.6425 27.6062C29.6021 27.9553 29.5441 28.3021 29.4687 28.6453C29.4609 28.6766 29.452 28.7078 29.443 28.7386C29.4403 28.7471 29.4076 28.8408 29.4242 28.7987C29.4408 28.7565 29.4011 28.8469 29.3968 28.8551C29.3788 28.8894 29.3587 28.9226 29.3367 28.9545C29.3676 28.9101 29.3256 28.9681 29.3114 28.9831C29.2412 29.0624 29.1547 29.1257 29.0579 29.1686C28.8085 29.2791 28.5511 29.3704 28.2879 29.442C28.1865 29.4724 28.1007 29.5408 28.0485 29.6328C27.9962 29.7249 27.9815 29.8335 28.0073 29.9362C28.0365 30.0383 28.1046 30.125 28.1971 30.1775C28.2895 30.2299 28.3988 30.244 28.5015 30.2167C28.8398 30.1227 29.1696 30 29.4872 29.8501C29.8342 29.6625 30.0942 29.3469 30.2119 28.9704C30.306 28.6157 30.3713 28.2539 30.4072 27.8886C30.494 27.3258 30.5444 26.7579 30.5579 26.1885C30.5679 25.6712 29.7644 25.6712 29.7543 26.1885H29.754Z" fill="#211715"/>
<path d="M37.5904 26.2147C37.6161 26.9213 37.6902 27.6252 37.8121 28.3216C37.8811 28.7539 37.9408 29.1712 38.2371 29.5159C38.505 29.8269 38.89 29.9562 39.2596 30.0995C39.5529 30.2131 39.8482 30.3231 40.1387 30.444C40.2414 30.4717 40.3509 30.4578 40.4435 30.4053C40.536 30.3527 40.6041 30.2658 40.633 30.1634C40.6586 30.0607 40.6437 29.9522 40.5915 29.8601C40.5392 29.7681 40.4536 29.6997 40.3523 29.6691C40.0956 29.5624 39.8345 29.465 39.5754 29.3644C39.3134 29.2626 39.0152 29.1793 38.8336 28.9794C38.7477 28.8742 38.6919 28.7478 38.6722 28.6134C38.6299 28.4323 38.6099 28.2468 38.5798 28.0635C38.4743 27.4522 38.4122 26.8343 38.394 26.2142C38.3828 25.6978 37.5792 25.6952 37.5904 26.2142V26.2147Z" fill="#211715"/>
<path d="M20.669 32.8338C20.9432 32.6148 25.8687 30.13 28.3724 28.9319C28.3724 28.9319 29.2746 28.509 30.1255 28.1096C30.539 28.9103 31.1647 29.9944 31.3934 30.3977C31.9999 31.4669 33.1511 33.3775 33.8951 34.3958L33.9314 34.446C34.0469 34.284 34.1626 34.1221 34.1626 34.1221C34.5541 33.5738 35.6548 31.9994 35.8996 31.6532C36.3181 31.0609 37.3426 29.3442 38.0184 28.1963L39.2416 28.6386C41.4215 29.6064 45.4858 31.604 47.0493 32.4325L47.3051 32.559C49.7648 33.7764 52.7024 37.7022 55.6775 41.8789C56.6528 43.248 58.8582 45.8477 58.5776 47.6349C58.2786 49.5422 56.6664 52.2385 55.5116 53.736C53.9303 55.7872 52.3043 58.1188 50.6048 59.727C49.3418 58.7728 47.5079 56.883 46.2776 55.865C47.1123 54.1398 50.0686 49.0724 50.4945 47.9309C50.4945 47.9309 50.5141 47.8912 50.5484 47.8273C50.043 47.1496 47.3664 44.4889 46.2662 43.4152C45.8517 46.0937 45.4195 48.7554 45.0976 50.9328C45.0366 51.3439 45.8043 59.6378 45.9297 60.2167L45.9518 60.3186H45.8485C45.8485 60.3186 34.6039 60.3186 23.3662 60.3186C23.3662 59.2454 23.2353 51.6702 23.1528 51.1114C23.0324 50.2983 22.8968 49.4136 22.7523 48.4832L22.6947 48.1119L22.4075 48.8716C22.1212 49.6016 21.769 50.304 21.3552 50.9701C20.8175 51.8346 20.7328 52.075 19.9302 52.952C18.6747 54.3247 16.9155 55.0995 14.9526 54.2553C13.0322 53.4295 12.3694 51.6841 11.4964 50.0911C9.77803 46.9549 7.73687 41.8898 7.22144 40.231C7.97961 39.7743 12.2427 37.431 12.7441 37.3326C13.1423 37.8966 15.7559 42.8423 16.9148 44.7897C16.9694 44.5199 17.0134 44.3043 17.0134 44.3043C17.1021 43.9283 17.4049 42.0718 17.6196 41.3549C18.1412 39.1367 18.6476 36.9899 18.9678 35.7617C19.1629 35.0139 19.5795 33.8666 20.1698 33.1669C20.363 33.0094 20.5688 32.8682 20.7853 32.7447" fill="#B3B3B3"/>
<path d="M23.7675 60.316C23.7675 59.0402 23.735 57.7637 23.7109 56.4883C23.6814 54.9344 23.6555 53.3797 23.5952 51.8267C23.5681 51.2938 23.5111 50.7629 23.4243 50.2364C23.2562 49.1228 23.0843 48.0099 22.9085 46.8975C22.5289 44.4655 22.1469 42.0336 21.8013 39.5964C21.5089 37.533 21.224 35.4615 21.0815 33.3815C21.0683 33.188 21.0572 32.9944 21.048 32.8008C21.0229 32.286 20.2192 32.283 20.2445 32.8008C20.3424 34.8059 20.6128 36.8044 20.8851 38.792C21.2176 41.2254 21.5944 43.6524 21.9733 46.0789C22.1543 47.2384 22.3346 48.398 22.5143 49.5577C22.594 50.0773 22.6726 50.5969 22.7502 51.1168C22.7584 51.1509 22.7635 51.1857 22.7656 51.2207C22.7639 51.2437 22.7574 51.0942 22.7535 51.1312C22.7538 51.1412 22.7549 51.1512 22.7567 51.1611C22.7582 51.1899 22.7617 51.2189 22.7639 51.2477C22.7696 51.327 22.7736 51.4066 22.7776 51.4859C22.8488 52.9283 22.866 54.3745 22.8948 55.8181C22.9234 57.2446 22.9527 58.6714 22.9635 60.098C22.9635 60.1708 22.9645 60.2436 22.9645 60.3166C22.9645 60.8336 23.768 60.8344 23.768 60.3166L23.7675 60.316Z" fill="#211715"/>
<path d="M46.3172 60.1094C46.3071 60.0618 46.3004 60.0138 46.2936 59.9657C46.2768 59.8626 46.3066 60.072 46.2917 59.9525C46.2855 59.9023 46.2793 59.8539 46.2733 59.8045C46.2429 59.5519 46.2154 59.299 46.1886 59.046C46.1091 58.2976 46.0363 57.5484 45.9651 56.7991C45.8145 55.2078 45.6672 53.6153 45.5518 52.0207C45.5137 51.6615 45.4958 51.3004 45.4982 50.9392C45.4937 51.0518 45.5038 50.9119 45.5085 50.8799L45.5406 50.6649C45.561 50.528 45.5816 50.3911 45.6024 50.2543C45.6453 49.9711 45.6886 49.688 45.7323 49.4051C45.8229 48.8178 45.9145 48.2307 46.0071 47.6436C46.4047 45.1158 46.8107 42.588 47.178 40.0545C47.496 37.857 47.8119 35.6505 47.9674 33.4342C47.9823 33.2222 47.995 33.0101 48.0054 32.7981C48.0307 32.2812 47.2272 32.2825 47.2019 32.7981C47.0996 34.8933 46.8087 36.9817 46.5156 39.057C46.1555 41.6039 45.7504 44.1442 45.3498 46.6851C45.1646 47.8581 44.98 49.0312 44.8027 50.2054C44.7415 50.4939 44.705 50.7871 44.6934 51.0818C44.6974 51.2711 44.7101 51.4603 44.7228 51.6493C44.8233 53.18 44.9666 54.7086 45.1089 56.2361C45.2312 57.5496 45.3302 58.8728 45.5188 60.1788C45.5259 60.2269 45.5324 60.2749 45.5424 60.3225C45.6491 60.8282 46.4238 60.6141 46.3173 60.1089L46.3172 60.1094Z" fill="#211715"/>
<path d="M23.389 60.7205H45.8481C46.3652 60.7205 46.366 59.917 45.8481 59.917H23.389C22.8721 59.917 22.8712 60.7205 23.389 60.7205Z" fill="#211715"/>
<path d="M28.167 28.5853C25.8349 29.7018 23.5143 30.8526 21.2278 32.0602C20.9324 32.199 20.6496 32.3628 20.3822 32.5499C20.3074 32.6255 20.2654 32.7276 20.2654 32.834C20.2654 32.9404 20.3074 33.0424 20.3822 33.118C20.4588 33.1909 20.5606 33.2316 20.6663 33.2316C20.7721 33.2316 20.8738 33.1909 20.9504 33.118C20.8054 33.2302 20.9107 33.1515 20.9504 33.1274C20.9981 33.0983 21.047 33.0712 21.0955 33.0437C21.2398 32.9629 21.3858 32.8849 21.532 32.8074C21.9942 32.5618 22.4597 32.3219 22.9258 32.0842C24.1612 31.4525 25.4013 30.8302 26.6461 30.2173C27.2866 29.9012 27.9283 29.5884 28.5713 29.2788C28.6626 29.2244 28.7288 29.1363 28.7558 29.0335C28.7827 28.9307 28.7682 28.8214 28.7154 28.7292C28.6601 28.6389 28.572 28.5735 28.4695 28.5466C28.3671 28.5198 28.2582 28.5335 28.1657 28.5851L28.167 28.5853Z" fill="#211715"/>
<path d="M39.0363 28.9854C41.5782 30.1149 44.0869 31.3428 46.5541 32.6269C46.7566 32.7324 46.959 32.8385 47.1591 32.9489C47.2235 32.9843 47.2878 33.02 47.3509 33.0578C47.3936 33.0834 47.5321 33.1842 47.3821 33.0677C47.459 33.14 47.5606 33.1802 47.6662 33.1802C47.7717 33.1802 47.8733 33.14 47.9502 33.0677C48.025 32.992 48.0669 32.89 48.0669 32.7836C48.0669 32.6773 48.025 32.5752 47.9502 32.4995C47.7019 32.3236 47.4386 32.1699 47.1634 32.04C46.6582 31.774 46.1486 31.5162 45.6382 31.2601C44.2719 30.5741 42.8977 29.9036 41.5157 29.2486C40.8279 28.9228 40.138 28.6005 39.4424 28.2915C39.3497 28.241 39.2411 28.2277 39.139 28.2545C39.0368 28.2813 38.9487 28.3461 38.8927 28.4356C38.8397 28.5278 38.8251 28.6372 38.8521 28.7401C38.8791 28.8429 38.9454 28.931 39.0368 28.9854H39.0363Z" fill="#211715"/>
<path d="M20.581 32.3999C20.2758 32.5514 20.0032 32.7611 19.7784 33.0172C19.4984 33.3862 19.2655 33.7887 19.0852 34.2154C18.7773 34.9653 18.5338 35.7401 18.3572 36.5314C18.1124 37.5179 17.8779 38.5068 17.6439 39.4963C17.438 40.3668 17.2078 41.2351 17.0262 42.1115C16.8825 42.8047 16.7838 43.5093 16.6244 44.1992C16.5082 44.7024 17.2828 44.9171 17.3993 44.4128C17.5332 43.8359 17.6179 43.2466 17.7323 42.6657C17.8915 41.8573 18.1006 41.0602 18.2892 40.2585C18.5228 39.2678 18.7592 38.2778 18.9983 37.2886C19.161 36.5352 19.3641 35.7912 19.6067 35.0597C19.7654 34.606 19.9742 34.1713 20.2291 33.7637C20.2853 33.6714 20.3473 33.5827 20.4149 33.4984C20.4379 33.4707 20.4625 33.4443 20.4886 33.4193C20.4333 33.4724 20.5212 33.3952 20.5351 33.3859C20.6804 33.2806 20.8313 33.1833 20.9871 33.0944C21.4381 32.8413 21.0335 32.1469 20.5815 32.4005L20.581 32.3999Z" fill="#211715"/>
<path d="M33.5652 34.3961C33.5652 35.4585 33.5702 36.521 33.5734 37.5833C33.5795 39.5949 33.5861 41.6064 33.593 43.6179C33.6009 45.9549 33.6089 48.2918 33.6169 50.6286C33.6237 52.6673 33.6305 54.7059 33.6373 56.7444C33.641 57.8594 33.6444 58.9744 33.6474 60.0895C33.6474 60.1333 33.6474 60.1773 33.6474 60.2212C33.6474 60.7381 34.4509 60.739 34.4509 60.2212C34.4509 59.2576 34.4457 58.2941 34.4427 57.3305C34.4364 55.3697 34.4298 53.409 34.423 51.4484C34.415 49.1143 34.4071 46.7803 34.3992 44.4462C34.3922 42.3627 34.3853 40.2791 34.3786 38.1954C34.3749 36.9875 34.3716 35.7798 34.3687 34.5723C34.3687 34.5135 34.3687 34.4551 34.3687 34.3961C34.3687 33.8792 33.5652 33.8782 33.5652 34.3961Z" fill="#211715"/>
<path d="M8.05846 39.5975C7.5919 38.8671 6.6541 38.2216 6.16679 37.44C5.56815 36.4813 4.99496 34.6981 4.83359 34.0082C4.40754 32.9767 5.04987 31.6493 5.93594 30.9936C6.83858 30.3595 7.56394 29.9746 8.79302 29.7696C9.40405 29.6676 10.2829 29.6301 10.5052 30.1941C10.8102 30.969 10.7498 31.152 10.2607 31.4851C10.5012 31.406 10.7625 31.418 10.9948 31.5188C11.2271 31.6197 11.4143 31.8023 11.5209 32.032C11.7139 32.4532 11.4512 33.047 10.8872 33.3676C11.6724 33.1141 11.8679 33.6773 11.9856 33.9972C12.0809 34.218 12.0867 34.4672 12.0016 34.6921C11.9165 34.917 11.7473 35.1001 11.5297 35.2025C12.7183 35.361 12.0845 37.091 11.3613 37.389L11.6031 37.776L8.05846 39.5975Z" fill="white"/>
<path d="M10.44 30.0646C10.4373 30.0289 10.4367 30.0072 10.4367 30.0072C10.4075 29.1336 10.3846 27.3642 9.28308 27.2796C7.93364 27.176 8.46883 28.4987 8.06104 29.929C8.30249 29.8628 8.54731 29.8094 8.79443 29.7693C9.35574 29.6755 10.1445 29.6363 10.44 30.0646Z" fill="white"/>
<path d="M5.74731 31.0408C5.5938 30.7262 4.95766 28.93 4.74707 28.452C4.38263 27.6251 4.06456 26.6488 3.21063 26.141C2.23132 25.5588 1.39095 25.119 0.755155 24.1087C0.25378 23.3122 0.359747 22.3478 0.609011 21.4663C0.923061 20.3559 1.97838 19.1983 2.57852 19.0093C2.67059 19.3407 3.04273 21.5778 3.14183 22.0895C3.3161 22.2169 4.30646 22.5832 4.55623 22.5798C4.80549 22.5042 5.5861 21.9979 5.93296 21.7184C5.91521 21.2215 5.75467 19.1457 5.70646 18.6716C7.2131 19.0128 9.0378 21.1378 8.75321 22.8268C8.59535 23.7592 8.22957 24.4966 7.8797 25.3531C7.51894 26.2364 7.81474 26.941 8.13348 27.7749C8.30323 28.219 8.517 28.9849 8.82319 29.6188" fill="#D9D9D9"/>
<path d="M7.46327 33.1487C8.00616 32.9274 8.54169 32.6868 9.07872 32.4518C9.37201 32.3234 9.66525 32.1951 9.95843 32.0668C10.0675 32.0192 10.1765 31.9718 10.2855 31.9245C10.3247 31.9077 10.364 31.891 10.4027 31.8742C10.5032 31.8307 10.3038 31.9149 10.3984 31.8763C10.4992 31.8451 10.5844 31.7766 10.6366 31.6848C10.6887 31.5929 10.7038 31.4847 10.6789 31.3821C10.65 31.2797 10.5819 31.1929 10.4894 31.1404C10.3969 31.0879 10.2875 31.0739 10.1848 31.1015C9.69761 31.3009 9.218 31.52 8.73588 31.7309C8.43009 31.8649 8.12413 31.9984 7.818 32.1315C7.69245 32.1859 7.56673 32.2401 7.44084 32.2941C7.40451 32.3097 7.2356 32.393 7.36886 32.3249C7.33086 32.3443 7.28867 32.3584 7.24916 32.3751C7.14822 32.4062 7.06296 32.4747 7.01081 32.5665C6.95866 32.6584 6.94356 32.7667 6.96859 32.8693C6.99753 32.9716 7.06561 33.0585 7.1581 33.111C7.2506 33.1635 7.36006 33.1775 7.46277 33.1499L7.46327 33.1487Z" fill="#211715"/>
<path d="M8.26323 34.9695C8.76958 34.6996 9.29056 34.4582 9.82376 34.2463L9.92203 34.2048L9.97075 34.1843C10.0377 34.156 10.1047 34.1281 10.1716 34.1006C10.2918 34.0504 10.4121 34.0002 10.5324 33.95C10.7147 33.8741 10.8988 33.8013 11.0785 33.7191C11.1698 33.6647 11.2361 33.5766 11.2631 33.4738C11.2901 33.3709 11.2755 33.2616 11.2226 33.1694C11.1671 33.0792 11.079 33.0139 10.9766 32.9871C10.8742 32.9602 10.7654 32.9739 10.6728 33.0252C10.6477 33.0368 10.6226 33.0478 10.5968 33.0587L10.5531 33.0775C10.49 33.1049 10.6558 33.0346 10.5716 33.0698L10.2677 33.1963C9.98414 33.3141 9.70089 33.4327 9.41798 33.5522C8.88477 33.7642 8.36378 34.0057 7.85744 34.2756C7.81189 34.3022 7.77203 34.3376 7.74014 34.3796C7.70825 34.4216 7.68495 34.4695 7.67157 34.5206C7.6582 34.5716 7.655 34.6248 7.66218 34.6771C7.66935 34.7293 7.68675 34.7797 7.71339 34.8252C7.74002 34.8708 7.77537 34.9107 7.8174 34.9425C7.85944 34.9744 7.90735 34.9977 7.95839 35.0111C8.00943 35.0245 8.06261 35.0277 8.11488 35.0205C8.16716 35.0133 8.21751 34.9959 8.26306 34.9693L8.26323 34.9695Z" fill="#211715"/>
<path d="M9.33244 36.6614C10.1648 36.2943 10.977 35.8836 11.7958 35.4879C11.8874 35.4338 11.9539 35.3457 11.9809 35.2427C12.0079 35.1398 11.9932 35.0304 11.9399 34.9383C11.8843 34.8484 11.7962 34.7832 11.6939 34.7564C11.5916 34.7296 11.4829 34.7431 11.3903 34.7942C10.5714 35.1897 9.75916 35.6004 8.92682 35.9675C8.83509 36.0216 8.76846 36.1097 8.74146 36.2127C8.71446 36.3157 8.72928 36.4252 8.78269 36.5173C8.83865 36.6069 8.92674 36.6717 9.02894 36.6985C9.13114 36.7253 9.23971 36.712 9.33244 36.6614Z" fill="#211715"/>
<path d="M8.40543 39.3946C8.06108 38.9198 7.66923 38.4813 7.23595 38.0859C6.85124 37.7166 6.52773 37.2885 6.27756 36.8176C5.83853 35.9355 5.49664 35.0083 5.25791 34.0523C5.19 33.8573 5.13892 33.6568 5.10523 33.4531C5.08792 33.2164 5.11385 32.9785 5.18174 32.7511C5.32627 32.2639 5.60028 31.8251 5.97456 31.4815C6.37609 31.1338 6.82632 30.8468 7.31095 30.6295C7.81524 30.3975 8.34999 30.2383 8.89911 30.1568C9.14289 30.1146 9.39078 30.1012 9.63769 30.1168C9.73763 30.1236 9.83623 30.1436 9.93098 30.176C9.9945 30.1953 10.0517 30.2312 10.0969 30.2798C10.1576 30.3843 10.2027 30.4971 10.2308 30.6146C10.263 30.7061 10.2827 30.8015 10.2894 30.8982C10.2894 30.9474 10.2961 30.8878 10.2963 30.8815C10.2963 30.8925 10.2685 30.9819 10.2881 30.9302C10.3065 30.8815 10.2291 31.0139 10.2822 30.9469C10.2183 31.0225 10.1425 31.0872 10.0577 31.1383C9.69863 31.3864 9.90705 32.0044 10.3672 31.8727C10.5202 31.8188 10.688 31.8252 10.8364 31.8907C10.9847 31.9562 11.1025 32.0759 11.1658 32.2252C11.1965 32.3462 11.1791 32.4744 11.1172 32.5828C11.0192 32.7683 10.8686 32.9206 10.6843 33.0207C10.2993 33.2497 10.5494 33.8882 10.9938 33.755C11.0888 33.7192 11.19 33.7028 11.2915 33.7068C11.2468 33.7022 11.3502 33.7208 11.3616 33.7252C11.3024 33.7032 11.3971 33.7453 11.4092 33.7551C11.3529 33.7091 11.4323 33.7799 11.4426 33.7913C11.5026 33.8599 11.4259 33.7578 11.4699 33.8278C11.4892 33.8589 11.5061 33.8911 11.524 33.9229C11.5349 33.9441 11.5451 33.9656 11.555 33.9873C11.5397 33.9498 11.5373 33.9442 11.5479 33.9706C11.6901 34.32 11.7083 34.6715 11.3271 34.8557C11.0322 34.9981 11.0844 35.5378 11.4232 35.5899C11.4816 35.5982 11.5393 35.6107 11.5958 35.6276C11.6194 35.6349 11.6502 35.6496 11.6104 35.6309C11.6381 35.6444 11.6648 35.6597 11.6904 35.6768C11.7428 35.7102 11.6402 35.6478 11.6917 35.6791C11.6981 35.683 11.7487 35.7374 11.7175 35.7009C11.6864 35.6644 11.7759 35.8013 11.7532 35.7546C11.7618 35.7933 11.7725 35.8315 11.7853 35.8689C11.7949 35.9083 11.7895 35.9056 11.7862 35.8674C11.7883 35.8915 11.7903 35.916 11.7902 35.9401C11.7902 35.9903 11.7888 36.0405 11.7841 36.0908C11.791 36.0189 11.7674 36.1733 11.762 36.1956C11.7493 36.2476 11.7343 36.2992 11.7172 36.3499C11.7085 36.3757 11.6992 36.4012 11.6894 36.4264C11.6648 36.4898 11.7103 36.3812 11.6822 36.4431C11.6344 36.5473 11.5778 36.6472 11.5131 36.7418C11.5006 36.7604 11.4796 36.789 11.5061 36.755C11.4907 36.7751 11.4741 36.7949 11.4572 36.8138C11.4237 36.8509 11.3902 36.8859 11.3544 36.9204C11.3472 36.9273 11.2732 36.9885 11.3142 36.9571C11.3497 36.9298 11.293 36.9713 11.286 36.9752C11.2436 36.9989 11.2034 37.0232 11.1587 37.0421C11.0673 37.0964 11.0009 37.1845 10.9739 37.2873C10.9469 37.3902 10.9615 37.4995 11.0146 37.5917C11.0702 37.6817 11.1583 37.7469 11.2606 37.7737C11.363 37.8006 11.4717 37.787 11.5643 37.7358C12.6454 37.2617 13.1448 35.047 11.6368 34.8151L11.7328 35.5494C12.4374 35.2092 12.5848 34.3993 12.31 33.7247C12.2191 33.4567 12.046 33.2242 11.8153 33.0602C11.6589 32.9728 11.4855 32.9203 11.3069 32.9064C11.1283 32.8924 10.9488 32.9172 10.7807 32.9792L11.0893 33.7151C11.6624 33.3743 12.174 32.664 11.9253 31.9686C11.7947 31.6263 11.5393 31.3461 11.2105 31.1846C10.8817 31.0231 10.5038 30.9922 10.1531 31.0981L10.4628 31.8325C10.6776 31.707 10.8584 31.5307 10.9891 31.3191C11.0999 31.0806 11.1209 30.8101 11.0484 30.5574C10.9944 30.2501 10.8639 29.9613 10.6689 29.7177C10.4676 29.5181 10.2072 29.389 9.92647 29.3494C9.3223 29.2439 8.68768 29.3569 8.09908 29.5032C7.49626 29.6551 6.91927 29.8954 6.38688 30.2164C5.8289 30.5235 5.3388 30.9402 4.94603 31.4416C4.55822 31.958 4.33256 32.5779 4.29768 33.2228C4.27909 33.7285 4.46508 34.2307 4.60855 34.7102C4.77608 35.2712 4.97163 35.8234 5.19446 36.3648C5.43935 37.0242 5.78879 37.6398 6.22935 38.1882C6.70344 38.7388 7.31061 39.1886 7.71104 39.7998C7.99329 40.2307 8.68935 39.8286 8.40476 39.3943L8.40543 39.3946Z" fill="#211715"/>
<path d="M8.68934 28.2481C8.69185 28.2259 8.69453 28.2034 8.69704 28.1812C8.69554 28.1952 8.68332 28.2649 8.69704 28.1909C8.70324 28.1549 8.70876 28.1187 8.71579 28.0829C8.73093 28.0075 8.75084 27.9331 8.77539 27.8602C8.80602 27.7682 8.74593 27.9021 8.78142 27.8469C8.79816 27.8199 8.81758 27.7884 8.83264 27.7601C8.80017 27.8212 8.80318 27.7936 8.83984 27.7566C8.85233 27.7461 8.86423 27.7349 8.8755 27.7231C8.89609 27.6975 8.8 27.762 8.86428 27.7345C8.88102 27.7273 8.96472 27.6856 8.90931 27.7076C8.85072 27.731 8.952 27.6964 8.96807 27.6923C8.98799 27.6875 9.00791 27.6843 9.02767 27.6796C9.0131 27.6831 8.93928 27.6863 9.01779 27.6813C9.066 27.6781 9.11388 27.6756 9.16226 27.6763C9.21064 27.6769 9.26153 27.681 9.31125 27.6843C9.23223 27.6791 9.28212 27.6803 9.32665 27.691C9.35645 27.698 9.38541 27.7104 9.41521 27.7169C9.47849 27.7312 9.40282 27.7121 9.39077 27.7056C9.40935 27.7156 9.42877 27.724 9.44718 27.7342C9.47296 27.7484 9.4964 27.7665 9.52201 27.7806C9.57843 27.8115 9.50946 27.7715 9.50075 27.7638C9.51297 27.7752 9.5267 27.7851 9.53875 27.7973C9.55984 27.8181 9.58144 27.8383 9.60153 27.8602C9.61291 27.8728 9.62279 27.8879 9.63501 27.8991C9.66849 27.9295 9.58998 27.8296 9.62798 27.89C9.66397 27.9473 9.7013 28.0024 9.73277 28.0626C9.74784 28.0914 9.76123 28.1211 9.77546 28.1504C9.78517 28.1703 9.7999 28.2197 9.7686 28.1336C9.7768 28.1562 9.78617 28.1783 9.79454 28.2006C9.84726 28.3471 9.88884 28.4973 9.91893 28.6501C9.93349 28.721 9.94604 28.7925 9.95709 28.8642C9.96044 28.8859 9.97584 29.02 9.96446 28.9117C9.96881 28.9529 9.97434 28.9939 9.97886 29.0351C10.0133 29.3587 10.0236 29.6839 10.0343 30.0089C10.0343 30.1154 10.0766 30.2176 10.1519 30.293C10.2273 30.3683 10.3295 30.4106 10.436 30.4106C10.5426 30.4106 10.6448 30.3683 10.7201 30.293C10.7955 30.2176 10.8378 30.1154 10.8378 30.0089C10.8145 29.3046 10.8043 28.5543 10.5325 27.8932C10.4064 27.5226 10.1484 27.2112 9.8076 27.0185C9.60055 26.9179 9.37302 26.8664 9.1428 26.8682C8.91257 26.87 8.68588 26.925 8.48042 27.0289C8.03965 27.28 7.9387 27.7871 7.88647 28.2493C7.88709 28.3557 7.92962 28.4575 8.00483 28.5327C8.08004 28.6079 8.18188 28.6504 8.28824 28.6511C8.39404 28.6486 8.49482 28.6055 8.56965 28.5307C8.64448 28.4559 8.68759 28.3551 8.69001 28.2493L8.68934 28.2481Z" fill="#211715"/>
<path d="M6.0935 30.8383C6.0858 30.8216 6.07861 30.8048 6.0709 30.7891C6.03608 30.7148 6.10891 30.8828 6.07342 30.7958C6.04931 30.7365 6.02548 30.6771 6.00193 30.6175C5.93414 30.4447 5.86801 30.2712 5.80356 30.0974C5.65859 29.7115 5.51596 29.3245 5.36932 28.9391C5.23958 28.5978 5.09728 28.2631 4.95482 27.927C4.77723 27.4582 4.54596 27.0114 4.26562 26.5958C3.63049 25.7285 2.56647 25.4178 1.78537 24.713C1.40117 24.3661 1.03088 23.9332 0.886072 23.4272C0.759842 22.8823 0.778775 22.3137 0.94098 21.7784C1.08429 21.219 1.34699 20.6973 1.71104 20.249C1.88052 20.0353 2.06962 19.8379 2.27586 19.6594C2.34764 19.5972 2.42421 19.5408 2.50487 19.4907C2.54036 19.4684 2.57685 19.4483 2.61351 19.4281C2.63628 19.4162 2.65921 19.405 2.68265 19.3946C2.64247 19.4118 2.64331 19.4127 2.68516 19.3973L2.19082 19.1167C2.3455 19.6911 2.41882 20.2957 2.52111 20.881C2.57986 21.2171 2.63829 21.5536 2.69788 21.8896C2.7112 21.9929 2.73004 22.0954 2.7543 22.1968C2.81373 22.3988 3.00373 22.4813 3.17934 22.5595C3.52241 22.7174 3.87932 22.8434 4.24553 22.9357C4.39673 22.9839 4.5584 22.9888 4.71225 22.9499C4.90031 22.8787 5.07964 22.7862 5.24678 22.6744C5.43092 22.5634 5.61054 22.4457 5.78682 22.3228C5.96912 22.1963 6.2584 22.0498 6.32034 21.8253C6.33992 21.6986 6.33992 21.5697 6.32034 21.4431C6.31063 21.2799 6.29958 21.117 6.28836 20.954C6.23563 20.1928 6.18407 19.4306 6.1079 18.6709L5.59933 19.0583C6.23663 19.2098 6.7966 19.6286 7.25211 20.1039C7.76381 20.614 8.13167 21.2502 8.31847 21.9482C8.50261 22.7258 8.20028 23.5191 7.90733 24.248C7.72753 24.6953 7.47978 25.1419 7.37532 25.6141C7.28166 26.0704 7.30114 26.5426 7.43207 26.9895C7.55879 27.4546 7.7575 27.8987 7.91118 28.3552C8.0702 28.8544 8.25857 29.3438 8.47533 29.8208C8.52978 29.9121 8.6179 29.9784 8.72072 30.0053C8.82355 30.0323 8.93284 30.0178 9.02508 29.965C9.11536 29.9096 9.18076 29.8215 9.20762 29.7191C9.23448 29.6166 9.22072 29.5078 9.16922 29.4152C8.98309 29.0006 8.82176 28.5753 8.68609 28.1416C8.54698 27.7286 8.37455 27.3264 8.24598 26.9099C8.09491 26.4912 8.08259 26.0351 8.21083 25.609C8.36668 25.1372 8.5987 24.6882 8.77515 24.2245C9.08652 23.4042 9.30264 22.5505 9.08016 21.6818C8.86102 20.9092 8.45638 20.2019 7.90147 19.6214C7.34619 19.0169 6.62451 18.4762 5.81377 18.2837C5.58276 18.2288 5.27808 18.3995 5.3052 18.6711C5.40648 19.6822 5.49303 20.7032 5.5317 21.7178L5.64888 21.4332C5.6154 21.46 5.60803 21.4654 5.55212 21.5064C5.48828 21.553 5.42383 21.5987 5.35877 21.6435C5.23478 21.7292 5.109 21.8122 4.98144 21.8924C4.85806 21.9701 4.73335 22.0461 4.60512 22.1154C4.55577 22.1363 4.50794 22.1606 4.46199 22.1882C4.48191 22.1733 4.53615 22.1783 4.53615 22.1777C4.53615 22.177 4.56963 22.1864 4.51254 22.1711C4.48877 22.165 4.46433 22.1604 4.44039 22.1544C4.38515 22.141 4.33041 22.1254 4.27583 22.1094C4.14191 22.07 4.01083 22.0257 3.88026 21.978C3.69129 21.9251 3.51089 21.8454 3.34456 21.7413L3.52871 21.9815C3.42609 21.4471 3.33871 20.9101 3.24412 20.3744C3.15808 19.8856 3.0943 19.3819 2.96506 18.9012C2.93586 18.7991 2.86773 18.7124 2.77532 18.66C2.6829 18.6075 2.57359 18.5934 2.47088 18.6207C2.0409 18.7932 1.66017 19.0692 1.3625 19.4242C0.974331 19.8366 0.656552 20.31 0.421861 20.8254C-0.0786769 21.9599 -0.228671 23.3895 0.503052 24.4562C0.830343 24.9253 1.23504 25.3353 1.69982 25.6687C2.15031 25.9995 2.65402 26.2424 3.11388 26.556C3.52653 26.8365 3.785 27.2884 3.9951 27.7288C4.11111 27.9719 4.21272 28.221 4.31902 28.4685C4.34196 28.5221 4.36472 28.5759 4.38833 28.6291C4.42733 28.7173 4.38732 28.6246 4.39469 28.6423C4.42449 28.7145 4.45362 28.7871 4.48207 28.8599C4.79144 29.6491 5.03451 30.4791 5.40028 31.2446C5.45473 31.3359 5.54283 31.4021 5.64561 31.429C5.74839 31.456 5.85765 31.4415 5.94987 31.3887C6.04018 31.3334 6.10561 31.2453 6.13247 31.1428C6.15933 31.0404 6.14555 30.9315 6.09401 30.839L6.0935 30.8383Z" fill="#211715"/>
<path d="M17.6735 45.2384C17.4247 44.8753 17.1946 44.4998 16.9841 44.1133C16.6284 43.4959 16.2825 42.8726 15.9382 42.2489C15.2082 40.9264 14.4915 39.597 13.7573 38.277C13.5547 37.8838 13.3323 37.5012 13.0908 37.1307C13.044 37.0564 12.975 36.9987 12.8936 36.9657C12.8122 36.9326 12.7225 36.9259 12.6372 36.9465C12.377 37.0223 12.1265 37.1279 11.8907 37.2614C11.4826 37.4578 11.0803 37.666 10.6792 37.8761C9.76853 38.3532 8.86455 38.8428 7.96726 39.3447C7.6492 39.5219 7.33113 39.698 7.01859 39.8855C6.94302 39.9311 6.88424 39.9999 6.85105 40.0817C6.81785 40.1634 6.81203 40.2538 6.83444 40.3391C7.25697 41.6921 7.80823 43.0112 8.35397 44.318C9.09239 46.0856 9.87081 47.8407 10.7505 49.543C11.1511 50.3181 11.5541 51.097 11.9835 51.8567C12.421 52.6319 12.9425 53.3787 13.6464 53.9355C14.4517 54.5862 15.4443 54.9617 16.4786 55.0069C17.4694 55.0168 18.4361 54.7019 19.231 54.1104C20.0649 53.489 20.7699 52.7114 21.3068 51.8209C21.8914 50.9224 22.3898 49.9708 22.7954 48.9787C22.8229 48.876 22.8088 48.7666 22.7564 48.6741C22.7039 48.5816 22.6171 48.5135 22.5148 48.4845C22.4122 48.4585 22.3034 48.4731 22.2113 48.5254C22.1191 48.5777 22.0508 48.6636 22.0205 48.7651C21.6704 49.6112 21.2446 50.424 20.7482 51.1934C20.3377 51.8912 19.8285 52.5261 19.2366 53.0784C18.6004 53.6578 17.7904 54.1118 16.9204 54.1896C15.9954 54.2557 15.0768 53.9928 14.3268 53.4475C13.6484 52.9723 13.1585 52.2846 12.7492 51.5763C12.3368 50.8628 11.9624 50.1236 11.5787 49.3943C10.7338 47.7891 9.98733 46.1313 9.27954 44.4618C8.67689 43.04 8.07022 41.6009 7.60935 40.126L7.42521 40.5797C8.09483 40.1779 8.78503 39.8085 9.47038 39.4351C10.3454 38.9585 11.2231 38.484 12.117 38.0435C12.2861 37.9598 12.4562 37.8786 12.6285 37.8018C12.6787 37.7794 12.7326 37.7606 12.6452 37.7939C12.674 37.783 12.7021 37.7705 12.7309 37.7604C12.7704 37.7448 12.8111 37.732 12.8524 37.7223L12.3988 37.5381C12.6094 37.8395 12.7793 38.1734 12.9584 38.4935C13.2885 39.0836 13.6128 39.6769 13.9374 40.2702C14.6768 41.6211 15.4095 42.9764 16.1732 44.3138C16.4189 44.7718 16.6886 45.2164 16.9813 45.6458C17.0371 45.7356 17.1252 45.8006 17.2275 45.8274C17.3297 45.8543 17.4384 45.8408 17.531 45.79C17.6224 45.7356 17.6888 45.6475 17.7157 45.5447C17.7427 45.4419 17.7281 45.3326 17.6752 45.2404L17.6735 45.2384Z" fill="#211715"/>
<path d="M46.0494 43.7664C47.2818 44.9717 48.5144 46.1834 49.6857 47.4493C49.8051 47.578 49.9234 47.7077 50.0388 47.8401C50.082 47.8904 50.1248 47.9406 50.1667 47.9908C50.1866 48.0151 50.2059 48.0397 50.2256 48.0638C50.1833 48.0119 50.1863 48.0117 50.2208 48.0596C50.2766 48.1494 50.3647 48.2143 50.4669 48.2411C50.5692 48.2679 50.6778 48.2545 50.7705 48.2037C50.8619 48.1494 50.9282 48.0613 50.9552 47.9584C50.9822 47.8555 50.9676 47.7462 50.9146 47.654C50.5053 47.1288 50.0594 46.6333 49.5803 46.171C48.9205 45.4873 48.2499 44.814 47.5759 44.1444C47.2578 43.8281 46.9383 43.513 46.6175 43.1992C46.2476 42.8375 45.6789 43.4051 46.0494 43.7674V43.7664Z" fill="#211715"/>
<path d="M52.3328 47.1742C52.557 47.1056 52.7875 47.057 53.0133 46.9956C53.3461 46.9069 53.6709 46.7905 53.9843 46.6477C54.0759 46.5936 54.1425 46.5054 54.1694 46.4025C54.1964 46.2995 54.1817 46.1901 54.1284 46.098C54.0726 46.0081 53.9845 45.9432 53.8823 45.9163C53.78 45.8895 53.6713 45.9029 53.5787 45.9538C53.544 45.9706 53.5092 45.9853 53.4742 46.0009C53.4282 46.0211 53.5556 45.9674 53.4871 45.995L53.439 46.0139C53.3667 46.0422 53.2936 46.0685 53.2201 46.0934C53.0739 46.1437 52.926 46.1865 52.7771 46.2274C52.5595 46.2868 52.3362 46.3333 52.1196 46.3996C52.0168 46.4279 51.9295 46.4959 51.8769 46.5886C51.8242 46.6813 51.8106 46.7911 51.8389 46.8939C51.8672 46.9966 51.9352 47.0839 52.0279 47.1366C52.1206 47.1892 52.2304 47.2029 52.3332 47.1745L52.3328 47.1742Z" fill="#211715"/>
<path d="M10.1978 42.1186C11.4801 41.4183 12.7383 40.671 14.0417 40.0093C14.0873 39.9827 14.1271 39.9473 14.1591 39.9053C14.191 39.8633 14.2143 39.8153 14.2277 39.7643C14.2411 39.7133 14.2443 39.6601 14.2371 39.6078C14.2299 39.5555 14.2126 39.5052 14.1859 39.4596C14.1593 39.414 14.124 39.3742 14.0819 39.3423C14.0399 39.3104 13.992 39.287 13.941 39.2737C13.8899 39.2603 13.8367 39.2571 13.7845 39.2642C13.7322 39.2714 13.6818 39.2888 13.6363 39.3154C12.3329 39.9765 11.075 40.7238 9.79217 41.4247C9.33817 41.6726 9.74328 42.3668 10.1978 42.1186Z" fill="#211715"/>
<path d="M47.7503 54.0784C47.9345 54.2101 48.1199 54.3415 48.3027 54.4748C48.4255 54.5641 48.5473 54.6537 48.6682 54.7438C48.734 54.7929 48.7996 54.8422 48.8649 54.8918C48.9303 54.942 48.9861 54.9842 49.0204 55.011C49.5725 55.4244 50.0899 55.8824 50.5672 56.3803C50.6044 56.4181 50.6487 56.4482 50.6976 56.4688C50.7465 56.4894 50.7989 56.5001 50.852 56.5003C50.905 56.5005 50.9576 56.4903 51.0066 56.4701C51.0556 56.4499 51.1002 56.4202 51.1377 56.3827C51.1752 56.3452 51.2049 56.3006 51.2251 56.2516C51.2453 56.2025 51.2556 56.15 51.2554 56.0969C51.2552 56.0439 51.2444 55.9914 51.2239 55.9425C51.2033 55.8937 51.1732 55.8494 51.1354 55.8122C50.2676 54.8717 49.1922 54.1249 48.1556 53.3848C48.0634 53.3319 47.9541 53.3173 47.8512 53.3443C47.7484 53.3713 47.6602 53.4376 47.6058 53.5289C47.5543 53.6215 47.5405 53.7303 47.5674 53.8328C47.5942 53.9353 47.6597 54.0234 47.75 54.0787L47.7503 54.0784Z" fill="#211715"/>
<path d="M39.4163 28.1369C39.1144 27.882 38.7945 27.6492 38.4591 27.4402C37.9402 28.3321 36.5398 30.7124 35.9631 31.5583C36.1295 31.6626 36.2283 31.7257 36.2283 31.7257C36.7056 32.0286 39.7873 32.9505 40.1544 32.8683C40.176 31.7915 40.176 29.5979 40.1377 28.8732C39.9272 28.6001 39.6851 28.3529 39.4163 28.1369Z" fill="#B3B3B3"/>
<path d="M28.5594 28.5059C28.947 28.1272 29.3724 27.7892 29.829 27.4973C30.132 28.2073 31.096 29.8744 31.3925 30.3979C31.5996 30.763 31.8703 31.2262 32.1664 31.7186L32.1507 31.7259C31.6734 32.0288 28.5917 32.9507 28.2246 32.8685C28.203 31.7917 28.2028 29.5981 28.2413 28.8734C28.3371 28.7424 28.4434 28.6195 28.5594 28.5059Z" fill="#B3B3B3"/>
<path d="M37.9681 58.6458C38.6968 57.9831 39.4759 57.378 40.2984 56.8359L40.7438 56.6131C39.9426 56.6167 38.8945 56.6141 38.3782 56.6005C37.8986 56.5879 37.1332 56.5891 37.1204 55.8683C37.1067 55.6264 37.1893 55.3889 37.3501 55.2076C37.5109 55.0264 37.7368 54.9161 37.9786 54.9008C38.4392 54.8859 39.5311 54.8695 40.0071 54.8695C40.5992 54.8695 41.6592 54.8695 42.2074 54.854C44.4737 54.7924 45.901 55.3783 47.6236 56.9286L50.172 59.222V59.773C50.172 60.381 49.1222 61.4355 48.0676 61.514C47.0251 61.5911 46.3395 61.1931 45.552 60.8415C45.1997 60.6897 44.805 60.668 44.4383 60.7804C44.0109 60.9051 43.5639 61.3677 43.2112 61.6007C42.6996 61.9385 41.8405 62.5564 41.1841 62.7879C40.9442 62.8726 40.4025 62.7658 40.1736 62.6409C40.0839 62.5836 40.0079 62.5073 39.9509 62.4174C39.8939 62.3275 39.8574 62.2261 39.8438 62.1205C39.8303 62.015 39.8401 61.9077 39.8725 61.8063C39.9049 61.7049 39.9592 61.6118 40.0315 61.5337C39.6535 61.8016 39.1074 61.8623 38.7592 61.3926C38.6819 61.2843 38.629 61.1604 38.6044 61.0295C38.5797 60.8987 38.5839 60.7641 38.6166 60.635C38.6493 60.506 38.7097 60.3856 38.7936 60.2822C38.8775 60.1789 38.983 60.0951 39.1026 60.0366C38.6809 60.3714 38.1994 60.169 37.9513 59.8441C37.7136 59.5329 37.717 58.8399 37.9681 58.6458Z" fill="white"/>
<path d="M46.3796 55.4714C45.348 54.8475 44.1736 54.4986 42.9687 54.4581C42.3873 54.4319 41.8029 54.4622 41.221 54.4655C40.7168 54.4685 40.2124 54.4655 39.7082 54.4697C39.1986 54.4737 38.689 54.4817 38.1793 54.4938C37.9152 54.4837 37.6526 54.5371 37.4134 54.6495C37.1616 54.7873 36.9623 55.0046 36.8466 55.2674C36.6147 55.7882 36.6951 56.4451 37.2045 56.766C37.5745 56.9992 38.0464 56.9955 38.4686 57.0049C39.5011 57.0275 40.5359 57.0244 41.5686 57.009C42.0852 57.0013 42.0867 56.1978 41.5686 56.2055C40.723 56.2182 39.8768 56.2167 39.0311 56.2092C38.676 56.206 38.3137 56.2155 37.9597 56.1785C37.8932 56.1708 37.8275 56.1575 37.7633 56.1389C37.7049 56.1268 37.6496 56.1026 37.6011 56.0679C37.5743 56.0478 37.5541 56.0202 37.5432 55.9885C37.5191 55.9078 37.5148 55.8225 37.5308 55.7398C37.5438 55.6553 37.5768 55.5752 37.627 55.506C37.6772 55.4369 37.7431 55.3806 37.8194 55.342C37.9822 55.294 38.1527 55.2777 38.3216 55.294C38.7919 55.2836 39.2622 55.2766 39.7325 55.2731C40.6924 55.2659 41.6548 55.2439 42.6145 55.2523C43.7973 55.2402 44.9602 55.5562 45.9741 56.1653C46.4162 56.4364 46.8204 55.7416 46.3796 55.4714Z" fill="#211715"/>
<path d="M40.0961 56.4885C39.8494 56.6309 39.6143 56.7925 39.393 56.9718C39.0274 57.2427 38.6681 57.5219 38.3151 57.8097C38.0484 58.0273 37.6851 58.2683 37.5179 58.5774C37.41 58.8031 37.3593 59.0518 37.3701 59.3017C37.3809 59.5517 37.4529 59.7951 37.5798 60.0107C37.6657 60.1518 37.7794 60.274 37.9141 60.3698C38.0487 60.4656 38.2014 60.533 38.363 60.5679C38.5245 60.6028 38.6914 60.6044 38.8536 60.5727C39.0158 60.541 39.1698 60.4766 39.3063 60.3835C39.7157 60.0838 39.3645 59.4361 38.9006 59.6896C38.744 59.7731 38.6055 59.8871 38.4934 60.0247C38.3813 60.1624 38.2978 60.3211 38.2477 60.4914C38.1977 60.6618 38.1821 60.8404 38.2019 61.0168C38.2217 61.1933 38.2765 61.364 38.3631 61.519C38.766 62.1908 39.6074 62.3044 40.2355 61.8799L39.7487 61.249C39.5796 61.4302 39.4738 61.6613 39.4471 61.9077C39.4204 62.1541 39.4742 62.4026 39.6006 62.6158C39.8478 63.0278 40.3135 63.1557 40.763 63.2064C41.2391 63.26 41.6482 63.0471 42.0534 62.8202C42.4797 62.5813 42.8825 62.3038 43.288 62.0319C43.6579 61.7838 43.9837 61.4601 44.3736 61.2436C44.8236 60.9937 45.2697 61.1495 45.6996 61.3476C46.6091 61.7661 47.6383 62.1329 48.6407 61.8064C49.1441 61.638 49.5992 61.3499 49.9667 60.9669C50.2769 60.6451 50.5605 60.2342 50.5751 59.7728C50.5918 59.2555 49.7883 59.256 49.7715 59.7728C49.768 59.8824 49.7958 59.6933 49.769 59.8078C49.763 59.8332 49.7559 59.858 49.7484 59.8831C49.7318 59.9332 49.7093 59.9811 49.6815 60.0259C49.6034 60.1619 49.508 60.2872 49.3977 60.3987C49.1498 60.6618 48.8474 60.8675 48.5116 61.0014C47.7248 61.2992 46.8858 61.0121 46.1618 60.6798C45.7314 60.4823 45.3212 60.2844 44.8338 60.3102C44.3796 60.3408 43.9464 60.5129 43.595 60.8022C42.9534 61.3109 42.2736 61.7694 41.5615 62.1735C41.4006 62.2722 41.2288 62.3518 41.0496 62.4109C40.8735 62.4251 40.6964 62.4037 40.5288 62.3478C40.3927 62.3083 40.3251 62.2912 40.2708 62.1694C40.243 62.1126 40.2324 62.0489 40.2406 61.9862C40.2488 61.9234 40.2752 61.8645 40.3167 61.8168C40.6055 61.4947 40.2275 60.9172 39.8297 61.1859C39.5654 61.3645 39.25 61.4222 39.0567 61.1132C39.0222 61.0495 39.0013 60.9793 38.9953 60.9071C38.9893 60.8349 38.9983 60.7622 39.0217 60.6936C39.0451 60.6251 39.0825 60.5621 39.1314 60.5087C39.1804 60.4552 39.2398 60.4125 39.3061 60.3832L38.9005 59.6893C38.5061 59.9777 38.1818 59.6141 38.1791 59.2264C38.1762 59.1381 38.1896 59.05 38.2185 58.9666C38.2211 58.958 38.2618 58.9244 38.2265 58.9529C38.2523 58.9319 38.2746 58.9077 38.2987 58.8849C38.4334 58.7583 38.572 58.6366 38.7135 58.5178C39.0473 58.2377 39.3908 57.969 39.7402 57.7085C39.9797 57.5129 40.2346 57.3369 40.5024 57.1821C40.9615 56.944 40.5558 56.2503 40.0967 56.4882L40.0961 56.4885Z" fill="#211715"/>
<path d="M42.1344 57.2796C41.0041 58.0695 39.9079 58.9087 38.8178 59.7528C38.7429 59.8284 38.7009 59.9305 38.7009 60.0369C38.7009 60.1433 38.7429 60.2454 38.8178 60.321C38.8944 60.3939 38.9961 60.4346 39.1019 60.4346C39.2076 60.4346 39.3093 60.3939 39.3859 60.321C39.5728 60.1763 39.8145 59.9903 40.0388 59.8187C40.3129 59.6094 40.5878 59.4011 40.8634 59.194C41.4167 58.7788 41.9738 58.3689 42.5408 57.9719C42.6308 57.9163 42.6959 57.8282 42.7227 57.7259C42.7495 57.6235 42.736 57.5148 42.685 57.4222C42.6305 57.3309 42.5424 57.2646 42.4396 57.2376C42.3368 57.2107 42.2274 57.2252 42.1352 57.2781L42.1344 57.2796Z" fill="#211715"/>
<path d="M43.1558 58.7537C42.0149 59.5169 40.9402 60.3797 39.8301 61.1866C39.7405 61.2425 39.6756 61.3305 39.6488 61.4327C39.622 61.5349 39.6353 61.6435 39.686 61.7362C39.7403 61.8276 39.8285 61.894 39.9313 61.921C40.0342 61.9479 40.1436 61.9333 40.2358 61.8803C41.3458 61.0736 42.4204 60.2108 43.5614 59.4476C43.6515 59.3921 43.7168 59.304 43.7436 59.2016C43.7705 59.0992 43.7568 58.9904 43.7055 58.8978C43.651 58.8066 43.5629 58.7404 43.4601 58.7135C43.3573 58.6865 43.248 58.701 43.1558 58.7537Z" fill="#211715"/>
<path d="M29.4163 27.5454C29.7913 28.4589 30.3146 29.3174 30.8021 30.1736C31.3347 31.1093 31.8786 32.0378 32.4508 32.95C32.8015 33.509 33.1588 34.0653 33.5471 34.5988C33.603 34.6885 33.6911 34.7535 33.7933 34.7803C33.8956 34.8071 34.0042 34.7937 34.0969 34.7429C34.1883 34.6886 34.2547 34.6005 34.2817 34.4977C34.3086 34.3948 34.294 34.2855 34.241 34.1933C32.9758 32.455 31.9141 30.5508 30.8791 28.669C30.7381 28.4125 30.5988 28.1551 30.4647 27.8951C30.4087 27.7863 30.3534 27.6775 30.3002 27.5667C30.2742 27.5131 30.2486 27.4593 30.224 27.4053C30.2165 27.3885 30.2091 27.3718 30.2016 27.3551C30.1542 27.2506 30.2305 27.4274 30.191 27.3313C30.1599 27.2304 30.0914 27.1451 29.9996 27.0929C29.9078 27.0408 29.7995 27.0256 29.6969 27.0505C29.5944 27.0794 29.5076 27.1475 29.455 27.2401C29.4025 27.3326 29.3886 27.4422 29.4163 27.5449V27.5454Z" fill="#211715"/>
<path d="M38.1144 27.2354C37.5531 28.1991 36.9857 29.1605 36.4045 30.1115C35.9182 30.9079 35.3964 31.6712 34.8609 32.4346C34.5132 32.9301 34.1666 33.4265 33.8149 33.9191C33.762 34.0114 33.7475 34.1207 33.7745 34.2235C33.8014 34.3263 33.8677 34.4145 33.9591 34.4689C34.0516 34.5204 34.1605 34.5342 34.2629 34.5074C34.3654 34.4805 34.4535 34.4151 34.5088 34.3248C35.0895 33.511 35.6604 32.6901 36.2346 31.8716C36.8518 30.9919 37.3863 30.0489 37.9346 29.1262C38.2279 28.6323 38.5191 28.1374 38.8082 27.6413C39.0691 27.1937 38.3748 26.7887 38.1144 27.2357V27.2354Z" fill="#211715"/>
<path d="M29.6056 27.1629C29.0376 27.5115 28.5228 27.94 28.0768 28.4352C27.9517 28.5515 27.8681 28.7055 27.8388 28.8738C27.8323 28.9485 27.8319 29.0245 27.8294 29.0993C27.8221 29.3127 27.8184 29.5263 27.8152 29.7398C27.8003 30.7825 27.8024 31.8255 27.8214 32.8689C27.8223 32.9566 27.8514 33.0417 27.9046 33.1115C27.9577 33.1813 28.032 33.2321 28.1164 33.2563C28.4126 33.2843 28.7115 33.2526 28.9954 33.1632C29.4104 33.0699 29.821 32.9559 30.229 32.8361C30.6534 32.7114 31.0759 32.5789 31.4929 32.4316C31.791 32.3424 32.079 32.2223 32.3522 32.0732C32.7914 31.8022 32.3883 31.1068 31.9466 31.3793C31.9097 31.4016 31.8718 31.4221 31.8329 31.4406C31.8039 31.4547 31.7743 31.4672 31.745 31.4808C31.6682 31.5166 31.8156 31.4527 31.7381 31.484C31.5866 31.5452 31.4335 31.6023 31.2793 31.6567C30.8775 31.7988 30.4699 31.9271 30.0607 32.0479C29.6673 32.1641 29.2718 32.2743 28.8722 32.3675C28.7229 32.4025 28.5732 32.4326 28.4224 32.4603C28.3916 32.4659 28.2894 32.4716 28.4182 32.4623C28.3939 32.4639 28.3698 32.4691 28.3454 32.4696C28.2899 32.471 28.1647 32.4504 28.3298 32.4815L28.6258 32.8686C28.5998 31.5404 28.5742 30.2006 28.6425 28.8735L28.5878 29.0762C28.935 28.5946 29.5065 28.1851 30.0107 27.8566C30.4426 27.5757 30.0403 26.8797 29.6052 27.1629H29.6056Z" fill="#211715"/>
<path d="M38.3661 27.8562C38.871 28.1848 39.4421 28.5939 39.789 29.0757L39.7343 28.873C39.8032 30.2002 39.7776 31.5399 39.751 32.8681L40.046 32.4807C40.209 32.4499 40.0937 32.4702 40.0398 32.4695C40.0123 32.4695 39.985 32.4635 39.9576 32.4615C40.0815 32.4709 39.9969 32.4672 39.9668 32.4615C39.8176 32.4347 39.6696 32.4051 39.522 32.3709C39.1164 32.2768 38.7146 32.165 38.3152 32.047C37.9124 31.928 37.5116 31.8017 37.1154 31.662C36.9595 31.6071 36.8055 31.5483 36.6517 31.4882C36.5528 31.4494 36.7001 31.511 36.6309 31.4793C36.605 31.4676 36.5789 31.4564 36.5533 31.444C36.5108 31.4238 36.4695 31.4015 36.4294 31.377C35.9881 31.1048 35.584 31.7996 36.0238 32.0709C36.2969 32.22 36.5849 32.3401 36.883 32.4293C37.3 32.5767 37.7226 32.7091 38.1469 32.8338C38.5549 32.9536 38.9654 33.0682 39.3804 33.1609C39.6643 33.2503 39.9632 33.282 40.2596 33.254C40.3441 33.2301 40.4185 33.1794 40.4717 33.1095C40.5249 33.0397 40.554 32.9544 40.5545 32.8666C40.575 31.824 40.577 30.781 40.5607 29.7375C40.5576 29.524 40.5537 29.3104 40.5465 29.097C40.544 29.022 40.5437 28.9463 40.5371 28.8715C40.5083 28.703 40.4246 28.5488 40.2991 28.4329C39.8531 27.9377 39.3383 27.5093 38.7704 27.1606C38.3351 26.8777 37.9333 27.5731 38.3649 27.8544L38.3661 27.8562Z" fill="#211715"/>
<path d="M47.1014 32.9053C47.8685 33.3149 48.5715 33.8344 49.1882 34.4475C50.0023 35.2317 50.7664 36.0661 51.4763 36.9458C53.0384 38.8422 54.4214 40.8693 55.8871 42.8384C56.4788 43.6018 57.0193 44.4036 57.505 45.2385C57.7347 45.636 57.9213 46.0569 58.0615 46.494C58.1753 46.835 58.2174 47.1957 58.1852 47.5537C58.0377 48.54 57.606 49.4922 57.1553 50.3726C56.6709 51.3174 56.1163 52.2245 55.4962 53.0862C54.7941 54.0627 54.0483 55.0114 53.3177 55.9674C52.5737 56.965 51.7765 57.9217 50.9296 58.8335C50.7314 59.0418 50.5281 59.245 50.3199 59.443L50.8069 59.3803C49.2945 58.2305 48.0211 56.7934 46.5608 55.581L46.6236 56.068C47.1426 54.9983 47.7358 53.9631 48.3104 52.923C48.9632 51.7408 49.6248 50.5626 50.2494 49.3648C50.4863 48.9355 50.6972 48.4924 50.881 48.0378C50.9088 47.935 50.895 47.8253 50.8425 47.7325C50.7899 47.6398 50.703 47.5715 50.6004 47.5425C50.4978 47.5165 50.3891 47.5312 50.297 47.5835C50.2049 47.6358 50.1366 47.7216 50.1063 47.823C50.0951 47.8525 50.0832 47.8815 50.0718 47.9108C50.0432 47.9848 50.1128 47.8179 50.0788 47.894C50.0725 47.9083 50.0666 47.9225 50.0601 47.9365C50.0196 48.0261 49.9787 48.1153 49.9362 48.2044C49.8373 48.411 49.7335 48.6152 49.6283 48.8186C49.3437 49.3682 49.0493 49.9119 48.7526 50.4546C48.0819 51.6824 47.3967 52.9024 46.7301 54.1322C46.4559 54.6377 46.181 55.1441 45.9299 55.6617C45.8866 55.7388 45.8693 55.8278 45.8806 55.9155C45.8919 56.0032 45.9312 56.085 45.9927 56.1485C47.5067 57.4056 48.8325 58.8807 50.4012 60.0733C50.478 60.1178 50.5673 60.1358 50.6554 60.1244C50.7434 60.1131 50.8252 60.0731 50.8882 60.0105C52.7586 58.2321 54.2231 56.0648 55.7891 54.0272C56.4306 53.1916 57.0098 52.31 57.5219 51.3894C58.0768 50.4402 58.5149 49.4275 58.8267 48.3731C58.9621 47.9435 59.017 47.4925 58.9884 47.0429C58.9306 46.5631 58.8008 46.0947 58.6034 45.6535C58.1797 44.7298 57.654 43.8564 57.0361 43.0495C55.6042 41.0723 54.1913 39.0754 52.6766 37.1603C51.9295 36.1991 51.132 35.2781 50.2876 34.4013C49.613 33.6852 48.8571 33.0504 48.0353 32.5096C47.8641 32.4019 47.688 32.3027 47.507 32.212C47.0458 31.9811 46.6383 32.6742 47.1014 32.9057V32.9053Z" fill="#211715"/>
<path d="M43.0299 37.389C41.7104 37.3955 40.3907 37.4091 39.0713 37.42C38.7679 37.4227 38.4645 37.4251 38.1609 37.4273C37.88 37.4293 37.5583 37.3924 37.2904 37.4839C37.1004 37.5477 36.9388 37.676 36.8336 37.8465C36.74 38.0361 36.7046 38.2491 36.7318 38.4587C36.7364 38.6643 36.741 38.8699 36.7458 39.0754C36.7235 39.3048 36.7602 39.536 36.8526 39.7471C37.1503 40.2637 37.7856 40.1749 38.2915 40.1729C38.8495 40.1708 39.4079 40.1681 39.9667 40.1649C40.5729 40.1617 41.179 40.1586 41.785 40.1557C42.2397 40.1769 42.6951 40.172 43.1492 40.1413C43.3501 40.1214 43.5369 40.0294 43.6751 39.8823C43.8133 39.7352 43.8935 39.543 43.9009 39.3413C43.9094 39.1449 43.9009 38.9464 43.9009 38.7498C43.9009 38.5657 43.9084 38.3785 43.9009 38.1939C43.8811 37.7118 43.49 37.4114 43.0304 37.389C42.5134 37.3639 42.5148 38.1676 43.0304 38.1925C43.1264 38.1972 43.0973 38.1996 43.0973 38.3019V38.8528C43.1177 39.0077 43.1177 39.1646 43.0973 39.3195C43.0846 39.3592 43.0963 39.3331 43.0992 39.3307C43.0583 39.3642 42.9652 39.3475 42.9138 39.3475C41.9931 39.3486 41.0724 39.3547 40.153 39.3595C39.652 39.3622 39.1509 39.3647 38.6497 39.367C38.3084 39.3686 37.9609 39.3523 37.6205 39.3729C37.5383 39.3779 37.5562 39.3572 37.5536 39.3033C37.5449 39.098 37.5449 38.892 37.5402 38.6866C37.5175 38.5408 37.5136 38.3927 37.5285 38.2459C37.5752 38.2364 37.6229 38.2321 37.6706 38.2334C38.1761 38.2347 38.6819 38.226 39.1873 38.2218C40.4681 38.211 41.7485 38.1981 43.0299 38.1917C43.5468 38.19 43.5478 37.3865 43.0299 37.389Z" fill="#211715"/>
<path d="M37.0049 41.0741C37.0061 41.8264 37.025 42.5787 37.0323 43.3309C37.0364 43.7521 37.0323 44.1734 37.037 44.5946C37.0329 44.7491 37.0688 44.9021 37.1412 45.0387C37.2137 45.1752 37.3202 45.2907 37.4505 45.3739C37.6779 45.4844 37.9316 45.529 38.1831 45.5028L41.2332 45.5063L42.6549 45.5078C42.9145 45.5337 43.1748 45.466 43.3888 45.317C43.5048 45.2193 43.5952 45.0949 43.6523 44.9544C43.7093 44.814 43.7312 44.6617 43.7161 44.5109C43.6895 43.4012 43.6255 42.291 43.6237 41.1809C43.6237 40.664 42.8202 40.663 42.8202 41.1809C42.8217 42.0748 42.8672 42.9691 42.8945 43.8624C42.9015 44.0944 42.9124 44.3271 42.9136 44.5593C42.9146 44.7123 42.8829 44.7044 42.7355 44.7044L41.4893 44.7031L38.5999 44.6997H38.0386C37.8961 44.6997 37.8468 44.7222 37.8407 44.5775C37.8252 44.1989 37.8407 43.8163 37.8369 43.4372C37.8297 42.6504 37.8096 41.8621 37.8084 41.0746C37.8084 40.5577 37.004 40.5567 37.0049 41.0746V41.0741Z" fill="#211715"/>
<path d="M30.7482 37.4535C29.4287 37.4734 28.1094 37.5016 26.7901 37.5267L25.8558 37.5434C25.5607 37.5486 25.2232 37.5099 24.9501 37.6377C24.5069 37.8442 24.4458 38.2689 24.4573 38.698C24.5052 40.4787 24.5533 42.2593 24.6018 44.0398C24.609 44.3109 24.6147 44.5817 24.6234 44.8526C24.6172 45.0919 24.6989 45.3252 24.853 45.5083C25.0938 45.7748 25.4128 45.7939 25.7461 45.7837C27.0241 45.7445 28.302 45.7076 29.5797 45.673C29.8915 45.665 30.2034 45.6575 30.5155 45.6504C30.849 45.6432 31.1836 45.6444 31.4339 45.3849C31.6617 45.1484 31.6838 44.8641 31.6811 44.5618L31.661 42.4107L31.6349 39.6217L31.6259 38.6525C31.6376 38.469 31.6273 38.2847 31.5951 38.1037C31.5434 37.9181 31.4328 37.7543 31.28 37.6369C31.1272 37.5195 30.9404 37.4549 30.7477 37.4528C30.2306 37.4307 30.2317 38.2343 30.7477 38.2564C30.8536 38.2611 30.8203 38.4347 30.8212 38.5267L30.8284 39.2951L30.8518 41.8151L30.8736 44.1493C30.8754 44.339 30.8858 44.5308 30.8789 44.7203C30.8776 44.7582 30.8843 44.7979 30.8672 44.8178C30.8245 44.868 30.6961 44.8432 30.6298 44.8446C30.4944 44.8473 30.359 44.8504 30.2235 44.8536C28.9832 44.8826 27.7431 44.9206 26.5028 44.9571L25.7654 44.9795C25.6482 44.983 25.4649 45.0369 25.4282 44.9229C25.4174 44.8501 25.4155 44.7763 25.4226 44.7031L25.4125 44.3266C25.3665 42.6054 25.32 40.8841 25.2729 39.1627C25.2669 38.937 25.251 38.709 25.2547 38.4832C25.2567 38.3618 25.2784 38.3568 25.4095 38.3546C25.6673 38.3505 25.9251 38.3459 26.1829 38.3409C27.4527 38.3175 28.7223 38.2907 29.992 38.2689C30.2439 38.2644 30.4958 38.2602 30.7477 38.2564C31.2648 38.2493 31.2663 37.4458 30.7482 37.4535Z" fill="#211715"/>
<path d="M25.0563 41.1537C25.9844 41.7574 26.9705 42.2665 28.0001 42.6736C28.9665 43.0864 29.9735 43.3965 31.0047 43.5988C31.1073 43.6242 31.2158 43.6092 31.3078 43.5569C31.3997 43.5047 31.4682 43.4192 31.499 43.3181C31.5264 43.2154 31.5123 43.106 31.4598 43.0135C31.4073 42.9211 31.3205 42.853 31.2183 42.8239C30.2095 42.6266 29.2238 42.3252 28.2772 41.9246C27.2916 41.533 26.3483 41.0422 25.4619 40.4598C25.031 40.1712 24.6284 40.867 25.0563 41.1537Z" fill="#211715"/>
<path d="M43.4182 15.3422C43.5147 15.2626 43.6264 15.2035 43.7465 15.1683C43.8666 15.1331 43.9925 15.1226 44.1168 15.1375C44.241 15.1523 44.3609 15.1922 44.4693 15.2548C44.5777 15.3173 44.6723 15.4011 44.7473 15.5012C44.8775 15.7462 44.9393 16.0217 44.9265 16.2988C44.9433 16.6388 44.924 16.9796 44.869 17.3156C44.666 18.5033 44.0401 19.9515 42.7169 20.1782C42.6146 20.2073 42.5279 20.2754 42.4754 20.3679C42.4229 20.4604 42.4089 20.5698 42.4363 20.6725C42.4667 20.7739 42.535 20.8597 42.6271 20.912C42.7192 20.9642 42.8279 20.979 42.9305 20.9531C44.3002 20.7177 45.1129 19.4242 45.4878 18.1892C45.6851 17.5407 45.765 16.8622 45.7236 16.1856C45.6806 15.522 45.4801 14.8979 44.8682 14.5526C44.5499 14.3773 44.1853 14.3044 43.8242 14.344C43.463 14.3835 43.1228 14.5335 42.85 14.7735C42.7755 14.8493 42.7338 14.9514 42.7338 15.0576C42.7338 15.1639 42.7755 15.2659 42.85 15.3417C42.9264 15.4151 43.0282 15.456 43.1341 15.456C43.24 15.456 43.3418 15.4151 43.4182 15.3417V15.3422Z" fill="#211715"/>
<path d="M42.4082 19.5642C42.3863 19.9519 42.3145 20.3352 42.1945 20.7045C42.1516 20.8483 42.1044 20.9906 42.0567 21.1327C42.0438 21.1712 42.0314 21.2101 42.0174 21.2481C42.0063 21.2779 41.9562 21.3897 42.008 21.2744C41.8334 21.6547 41.6327 22.0224 41.4072 22.3749C40.7731 23.4255 39.9634 24.3594 39.0133 25.136C38.4951 25.5624 37.8892 25.8691 37.2388 26.0345C36.7351 26.1502 36.9482 26.9251 37.4524 26.8092C38.8012 26.4992 39.93 25.5262 40.8189 24.5084C41.5655 23.6821 42.1894 22.7527 42.6714 21.7488C42.9905 21.0621 43.1741 20.3204 43.2121 19.5642C43.2289 19.047 42.4253 19.0475 42.4086 19.5642H42.4082Z" fill="#211715"/>
<path d="M25.3507 14.7745C25.1121 14.5633 24.8205 14.4208 24.5072 14.3623C24.1939 14.3039 23.8706 14.3317 23.5719 14.4427C22.9131 14.7025 22.5842 15.2568 22.5005 15.9388C22.3424 17.287 22.6864 18.6461 23.4669 19.7566C23.89 20.3747 24.5367 20.8041 25.2705 20.9541C25.3731 20.9793 25.4815 20.9643 25.5734 20.9121C25.6653 20.86 25.7338 20.7746 25.7647 20.6735C25.7921 20.5708 25.7781 20.4614 25.7256 20.3689C25.6731 20.2764 25.5864 20.2083 25.4841 20.1792C24.1616 19.952 23.535 18.5038 23.332 17.3166C23.279 16.993 23.2593 16.6648 23.2732 16.3372C23.2833 16.0602 23.2956 15.7415 23.4537 15.5022C23.5287 15.402 23.6232 15.3181 23.7316 15.2555C23.84 15.193 23.9599 15.153 24.0842 15.1382C24.2085 15.1233 24.3345 15.1338 24.4546 15.169C24.5747 15.2043 24.6863 15.2635 24.7829 15.3432C24.8595 15.4161 24.9612 15.4567 25.0669 15.4567C25.1727 15.4567 25.2744 15.4161 25.351 15.3432C25.4255 15.2674 25.4673 15.1654 25.4673 15.0591C25.4673 14.9528 25.4255 14.8508 25.351 14.775L25.3507 14.7745Z" fill="#211715"/>
<path d="M25.0436 19.4338C25.5336 22.2611 27.0658 25.0281 29.6855 26.3925C30.3931 26.7613 31.1644 26.9921 31.9583 27.0725C32.0647 27.0718 32.1665 27.0293 32.2417 26.9541C32.3169 26.8789 32.3595 26.7771 32.3601 26.6707C32.3578 26.5649 32.3147 26.464 32.2399 26.3892C32.165 26.3143 32.0642 26.2712 31.9583 26.2689C29.257 25.989 27.1522 23.5664 26.3036 21.1327C26.0899 20.5094 25.9275 19.8698 25.8181 19.2201C25.7891 19.1178 25.7209 19.0311 25.6285 18.9786C25.536 18.9261 25.4267 18.9121 25.324 18.9395C25.2225 18.9699 25.1367 19.0382 25.0844 19.1303C25.0321 19.2224 25.0173 19.3311 25.0432 19.4338H25.0436Z" fill="#211715"/>
<path d="M43.356 5.16699C41.267 2.07253 37.4575 0.402344 34.1021 0.402344C29.9426 0.402344 23.8436 3.66186 23.3086 9.50912C23.2116 10.5668 23.1296 12.9129 23.457 14.0781C23.6397 14.1557 23.788 14.2194 23.788 14.2194C24.5714 14.5558 27.3308 13.4609 28.7237 13.126C30.1838 12.7745 32.3524 12.3344 34.1039 12.3712C35.8543 12.3349 38.0212 12.7752 39.4809 13.126C40.8739 13.4609 43.6326 14.5558 44.4167 14.2194C44.4167 14.2194 44.565 14.1557 44.7476 14.0781C45.0751 12.9129 44.993 10.5668 44.8961 9.50912C44.7607 7.95426 44.2306 6.45971 43.356 5.16699Z" fill="#B3B3B3"/>
<path d="M23.9136 14.1826C23.6998 13.6085 23.6681 12.9963 23.6414 12.3895C23.6106 11.6919 23.6204 10.992 23.6556 10.2948C23.7204 9.0046 23.9608 7.75677 24.5448 6.59399C25.6859 4.32165 27.8022 2.61346 30.116 1.66177C30.6765 1.43068 31.2533 1.24133 31.8416 1.09527C32.3688 0.96074 32.9064 0.871468 33.4487 0.828429C34.6333 0.747859 35.8228 0.873952 36.9642 1.20107C39.4538 1.88575 41.7759 3.40762 43.1672 5.61266C43.9097 6.78863 44.3642 8.12325 44.4937 9.50799C44.6109 10.7811 44.6611 12.1481 44.477 13.3996C44.4422 13.6666 44.3795 13.9292 44.29 14.1831C44.2626 14.2858 44.2766 14.3951 44.3291 14.4876C44.3816 14.58 44.4683 14.6481 44.5705 14.6773C44.6733 14.7032 44.782 14.6885 44.8742 14.6361C44.9663 14.5837 45.0345 14.4978 45.0647 14.3962C45.2922 13.785 45.3326 13.0929 45.3629 12.4474C45.3978 11.714 45.3871 10.9778 45.3488 10.2447C45.302 8.80577 44.9629 7.39137 44.3522 6.08759C43.1143 3.5459 40.7621 1.69776 38.1405 0.734683C36.8932 0.273031 35.5769 0.0247587 34.2471 0.000282145C33.0433 -0.00291323 31.8476 0.195411 30.7093 0.587033C28.1551 1.43795 25.7893 3.07399 24.3237 5.35938C23.5467 6.57543 23.0651 7.95646 22.9175 9.39198C22.7552 10.7866 22.7654 12.196 22.9481 13.5881C22.9831 13.8634 23.047 14.1343 23.1388 14.3962C23.1696 14.4973 23.238 14.5828 23.3299 14.635C23.4219 14.6872 23.5304 14.7022 23.633 14.6767C23.7353 14.6477 23.8221 14.5796 23.8746 14.4872C23.9271 14.3947 23.9411 14.2853 23.9136 14.1826Z" fill="#211715"/>
<path d="M34.1005 8.05862C32.4109 7.98228 30.6749 8.53237 29.1269 9.15779C27.5588 9.79142 26.0509 10.578 24.8385 11.7785C24.1768 12.4336 23.4886 13.2587 23.3843 14.2186C23.3854 14.3063 23.4146 14.3913 23.4677 14.4611C23.5209 14.5309 23.595 14.5817 23.6792 14.6061C24.1327 14.7888 24.7228 14.6503 25.179 14.5534C25.8334 14.4144 26.4744 14.2146 27.113 14.0177C28.4733 13.5875 29.8616 13.2519 31.2682 13.0133C32.9298 12.7319 34.624 12.6995 36.2951 12.9172C37.7566 13.1144 39.1991 13.4327 40.6078 13.8687C41.3345 14.0935 42.0597 14.3296 42.8008 14.5048C43.3157 14.6262 44.0046 14.8157 44.5217 14.6073C44.6056 14.5824 44.6795 14.5314 44.7325 14.4617C44.7855 14.392 44.815 14.3073 44.8167 14.2198C44.7254 13.3806 44.183 12.6575 43.6281 12.054C43.0209 11.3985 42.3243 10.8319 41.5588 10.371C40.0877 9.49466 38.4977 8.83547 36.838 8.41385C35.948 8.16126 35.0255 8.04156 34.1005 8.05862C33.5854 8.08189 33.5825 8.8856 34.1005 8.86216C35.662 8.79168 37.2524 9.29975 38.6883 9.86407C40.1156 10.425 41.5175 11.1377 42.6401 12.1977C43.0031 12.5292 43.3269 12.9012 43.6053 13.3064C43.7171 13.4702 43.8143 13.6434 43.8959 13.8242C43.9246 13.8939 43.9496 13.9651 43.9708 14.0374C43.9788 14.0654 43.9863 14.0937 43.9932 14.1212C43.9967 14.1366 44.021 14.2919 44.013 14.2177L44.3079 13.8304C44.2723 13.8442 44.2358 13.8559 44.1988 13.8654C44.1762 13.8714 44.1527 13.8746 44.1296 13.8786C44.1434 13.8762 44.2215 13.8711 44.1464 13.8746C44.0408 13.8802 43.935 13.8793 43.8295 13.8721C43.5716 13.8462 43.316 13.802 43.0644 13.7396C42.4052 13.5875 41.7587 13.3832 41.1132 13.1827C39.7695 12.7615 38.3971 12.4379 37.0068 12.2144C35.3091 11.9327 33.5795 11.8997 31.8723 12.1165C30.4122 12.3038 28.9701 12.6118 27.5608 13.0372C26.8313 13.261 26.1044 13.4994 25.3645 13.6854C25.2006 13.7266 25.0359 13.7649 24.8703 13.7982C24.7416 13.824 24.5533 13.8553 24.4912 13.8617C24.3679 13.876 24.2439 13.8816 24.1198 13.8784C24.0931 13.8774 24.0663 13.8747 24.0395 13.8734C24.0028 13.8714 24.1178 13.8965 24.0293 13.8712C23.9832 13.8601 23.9378 13.8466 23.8932 13.8305L24.1882 14.2179C24.1816 14.2777 24.2104 14.1106 24.2186 14.0793C24.2378 14.0054 24.2614 13.9328 24.2893 13.8617C24.3578 13.7018 24.4395 13.5478 24.5335 13.4015C24.7568 13.0559 25.0164 12.7353 25.3079 12.4449C25.863 11.8778 26.4915 11.3875 27.1766 10.987C28.5706 10.1764 30.0717 9.56611 31.6358 9.17403C32.4378 8.95032 33.2682 8.84541 34.1006 8.86266C34.6176 8.8856 34.6164 8.08189 34.1005 8.05862Z" fill="#211715"/>
<path d="M32.5329 22.2842C33.0619 22.5574 33.6511 22.6934 34.2464 22.6799C34.8561 22.6759 35.4768 22.5579 35.9658 22.1777C36.0406 22.1021 36.0826 22 36.0826 21.8936C36.0826 21.7872 36.0406 21.6851 35.9658 21.6095C35.8892 21.5366 35.7875 21.4958 35.6817 21.4958C35.576 21.4958 35.4742 21.5366 35.3977 21.6095C35.5165 21.5168 35.4134 21.5953 35.3829 21.6147C35.3481 21.6371 35.3121 21.6577 35.2755 21.677C35.25 21.6904 35.124 21.7429 35.2241 21.7048C35.1748 21.7235 35.126 21.7426 35.0757 21.7587C34.7899 21.8498 34.4902 21.8899 34.1905 21.877C33.905 21.8845 33.6202 21.846 33.347 21.7629C33.2926 21.7461 33.2397 21.7272 33.1861 21.7088C33.1693 21.7029 33.1518 21.6939 33.1342 21.6887C33.233 21.7177 33.1625 21.7013 33.1362 21.6887C33.0692 21.6574 33.0043 21.6248 32.9392 21.5903C32.8467 21.5387 32.7378 21.525 32.6354 21.5518C32.533 21.5787 32.4449 21.6441 32.3896 21.7344C32.3369 21.8267 32.3225 21.9359 32.3495 22.0387C32.3764 22.1415 32.4426 22.2296 32.5337 22.2842H32.5329Z" fill="#211715"/>
<path d="M34.0662 18.2172C34.1463 18.5063 34.2104 18.7996 34.2582 19.0958L34.244 18.989C34.2496 19.0292 34.2507 19.0699 34.2472 19.1103L34.2616 19.0035C34.2589 19.0221 34.2544 19.0403 34.2482 19.0579L34.2887 18.962C34.2834 18.9743 34.277 18.9861 34.2694 18.9972L34.3324 18.9158C34.3238 18.9262 34.3141 18.9357 34.3036 18.9441L34.3849 18.8813C34.3626 18.8952 34.3393 18.9075 34.3153 18.9182L34.4114 18.8776C34.3738 18.8934 34.3344 18.9047 34.2942 18.9111L34.401 18.8967C34.3644 18.9012 34.3274 18.9012 34.2908 18.8967L34.3977 18.9111C34.3561 18.9053 34.3155 18.8952 34.2739 18.8897C34.1693 18.8652 34.0592 18.8796 33.9644 18.9302C33.8724 18.984 33.8056 19.0721 33.7785 19.1752C33.7515 19.2782 33.7665 19.3878 33.8203 19.4798C33.8458 19.5251 33.8802 19.5648 33.9215 19.5964C33.9627 19.6281 34.01 19.651 34.0603 19.6639C34.1504 19.6762 34.2379 19.6993 34.3297 19.7033C34.4657 19.7042 34.5999 19.6725 34.7211 19.6109C34.797 19.577 34.8644 19.5264 34.9181 19.463C34.9718 19.3995 35.0106 19.3247 35.0314 19.2443C35.0589 19.112 35.0574 18.9755 35.0273 18.8438C34.9794 18.5607 34.9141 18.2802 34.8413 18.0026C34.8129 17.8999 34.745 17.8126 34.6523 17.7599C34.5596 17.7073 34.4498 17.6936 34.347 17.722C34.2443 17.7503 34.157 17.8183 34.1043 17.911C34.0517 18.0037 34.038 18.1135 34.0664 18.2162L34.0662 18.2172Z" fill="#211715"/>
<path d="M29.3723 15.7417C29.2257 16.2185 29.3213 17.3153 30.2246 17.4087C31.4183 17.4015 31.482 16.0755 31.08 15.452C30.7511 14.9415 29.7835 14.7293 29.3723 15.7417Z" fill="#211715"/>
<path d="M38.9328 15.7417C39.0796 16.2187 38.984 17.3153 38.0807 17.4087C36.8868 17.4015 36.8233 16.0755 37.2251 15.452C37.5542 14.9415 38.5216 14.7293 38.9328 15.7417Z" fill="#211715"/>
</g>
<defs>
<clipPath id="clip0_189_101">
<rect width="59" height="63.2152" fill="white"/>
</clipPath>
</defs>
</svg>
