<svg width="30" height="30" viewBox="0 0 30 30" fill="none" xmlns="http://www.w3.org/2000/svg">
<g id="ant-design:insurance-outlined">
<path id="Vector" d="M12.9375 8.46484L11.8066 7.93164C11.7836 7.92087 11.7585 7.91515 11.733 7.91488C11.7075 7.9146 11.6823 7.91977 11.659 7.93003C11.6357 7.94029 11.6149 7.95542 11.5979 7.97439C11.5809 7.99336 11.5682 8.01575 11.5605 8.04004C11.0479 9.75391 10.2363 11.2656 9.15234 12.54C9.13339 12.5624 9.12026 12.589 9.11412 12.6176C9.10799 12.6463 9.10904 12.676 9.11719 12.7041L9.50391 13.9785C9.54199 14.1074 9.70898 14.1455 9.80273 14.0488C10.0283 13.8115 10.2539 13.5537 10.4795 13.2871V18.6953C10.4795 18.8242 10.585 18.9297 10.7139 18.9297H11.8066C11.9355 18.9297 12.041 18.8242 12.041 18.6953V10.9932C12.4457 10.2565 12.7754 9.48115 13.0254 8.67871C13.0547 8.59375 13.0166 8.50293 12.9375 8.46484ZM13.7227 8.73438V12.4609C13.7227 12.5898 13.8281 12.6953 13.957 12.6953H15.8877V13.2402H13.1074C12.9785 13.2402 12.873 13.3457 12.873 13.4746V14.5176C12.873 14.6465 12.9785 14.752 13.1074 14.752H14.7217C14.1621 15.6543 13.4795 16.3838 12.6416 16.9785C12.6049 17.0046 12.5796 17.0437 12.5709 17.0878C12.5621 17.132 12.5707 17.1778 12.5947 17.2158L13.2627 18.2852C13.3184 18.376 13.4443 18.3965 13.5234 18.3262C14.4492 17.541 15.2432 16.4834 15.8848 15.1738V18.6895C15.8848 18.8184 15.9902 18.9238 16.1191 18.9238H17.1797C17.3086 18.9238 17.4141 18.8184 17.4141 18.6895V15.1797C18.0381 16.4014 18.8057 17.4502 19.7021 18.3115C19.7783 18.3848 19.9014 18.373 19.9629 18.291L20.7334 17.2568C20.792 17.1777 20.7744 17.0664 20.6982 17.0107C19.8047 16.3486 19.1104 15.6104 18.5801 14.7578H20.3086C20.4375 14.7578 20.543 14.6523 20.543 14.5234V13.4805C20.543 13.3516 20.4375 13.2461 20.3086 13.2461H17.4141V12.7012H19.3682C19.4971 12.7012 19.6025 12.5957 19.6025 12.4668V8.73438C19.6025 8.60547 19.4971 8.5 19.3682 8.5H13.957C13.8281 8.5 13.7227 8.60547 13.7227 8.73438ZM15.2314 9.98828H18.0996V11.207H15.2314V9.98828ZM25.3975 4.4541L15.4424 1.06152C15.3223 1.02051 15.1611 1 15 1C14.8389 1 14.6777 1.02051 14.5576 1.06152L4.60254 4.4541C4.35938 4.53613 4.16016 4.81738 4.16016 5.0752V19.208C4.16016 19.4658 4.32715 19.8057 4.5293 19.9668L14.6279 27.8359C14.7305 27.915 14.8623 27.9561 14.9971 27.9561C15.1318 27.9561 15.2666 27.915 15.3662 27.8359L25.4648 19.9668C25.667 19.8086 25.834 19.4688 25.834 19.208V5.0752C25.8398 4.81738 25.6406 4.53906 25.3975 4.4541ZM23.7305 18.6455L15 25.4482L6.26953 18.6455V6.11816L15 3.1416L23.7305 6.11816V18.6455Z" fill="white"/>
</g>
</svg>
