<svg width="26" height="26" viewBox="0 0 26 26" fill="none" xmlns="http://www.w3.org/2000/svg">
<g id="grommet-icons:money" clip-path="url(#clip0_141_2728)">
<path id="Vector" d="M17.333 16.1667C17.333 14.9696 13.9378 14 9.74967 14M17.333 16.1667C17.333 17.3638 13.9378 18.3333 9.74967 18.3333C5.56151 18.3333 2.16634 17.3638 2.16634 16.1667M17.333 16.1667V21.5151C17.333 22.749 13.9378 23.75 9.74967 23.75C5.56151 23.75 2.16634 22.7501 2.16634 21.5151V16.1667M17.333 16.1667C21.4757 16.1667 24.9163 15.0974 24.9163 14V3.16667M9.74967 14C5.56151 14 2.16634 14.9696 2.16634 16.1667M9.74967 14C4.96351 14 1.08301 12.9308 1.08301 11.8333V6.41667M9.74967 4.25C4.96351 4.25 1.08301 5.21958 1.08301 6.41667M1.08301 6.41667C1.08301 7.61375 4.96351 8.58333 9.74967 8.58333C9.74967 9.68075 13.2738 10.75 17.4164 10.75C21.558 10.75 24.9163 9.68075 24.9163 8.58333M24.9163 3.16667C24.9163 1.96958 21.558 1 17.4164 1C13.2738 1 9.91651 1.96958 9.91651 3.16667M24.9163 3.16667C24.9163 4.36375 21.558 5.33333 17.4164 5.33333C13.2748 5.33333 9.91651 4.36375 9.91651 3.16667M9.91651 3.16667V14.1798" stroke="white" stroke-width="2.16667"/>
</g>
<defs>
<clipPath id="clip0_141_2728">
<rect width="26" height="26" fill="white"/>
</clipPath>
</defs>
</svg>
