<svg width="36" height="36" viewBox="0 0 36 36" fill="none" xmlns="http://www.w3.org/2000/svg">
<g id="healthicons:construction-worker">
<g id="Group">
<path id="Vector" fill-rule="evenodd" clip-rule="evenodd" d="M22.869 12.8569C23.059 12.8078 23.2606 12.8351 23.4307 12.933C23.6008 13.0308 23.7257 13.1914 23.7788 13.3804C24.0278 14.2719 24.0672 15.209 23.8938 16.1184C23.7205 17.0277 23.3391 17.8846 22.7794 18.622C22.2198 19.3593 21.4971 19.9572 20.668 20.3689C19.8389 20.7805 18.9257 20.9947 18 20.9947C17.0743 20.9947 16.1611 20.7805 15.332 20.3689C14.5029 19.9572 13.7802 19.3593 13.2206 18.622C12.6609 17.8846 12.2795 17.0277 12.1062 16.1184C11.9328 15.209 11.9722 14.2719 12.2213 13.3804C12.2743 13.1914 12.3992 13.0308 12.5693 12.933C12.7394 12.8351 12.941 12.8078 13.131 12.8569C15.9225 13.5769 20.0775 13.5769 22.869 12.8569ZM13.53 14.4859C13.4583 15.1157 13.5205 15.7536 13.7125 16.3577C13.9044 16.9618 14.2219 17.5186 14.644 17.9915C15.0661 18.4644 15.5834 18.8427 16.162 19.1018C16.7405 19.3609 17.3672 19.4948 18.0011 19.4948C18.635 19.4948 19.2618 19.3609 19.8403 19.1018C20.4188 18.8427 20.9361 18.4644 21.3582 17.9915C21.7804 17.5186 22.0978 16.9618 22.2898 16.3577C22.4818 15.7536 22.5439 15.1157 22.4722 14.4859C19.7595 15.0334 16.242 15.0334 13.53 14.4859Z" fill="white"/>
<path id="Vector_2" fill-rule="evenodd" clip-rule="evenodd" d="M14.25 19.8675C9.75975 20.6512 4.5 22.6523 4.5 25.5V30H31.5V25.5C31.5 22.6523 26.2402 20.6512 21.75 19.8675V23.25H14.25V19.8675ZM9.75 30V23.25H11.25V30H9.75ZM25.5 23.25V30H27V23.25H25.5ZM18.75 3.0435V6.36C18.75 6.55891 18.671 6.74968 18.5303 6.89033C18.3897 7.03098 18.1989 7.11 18 7.11C17.8011 7.11 17.6103 7.03098 17.4697 6.89033C17.329 6.74968 17.25 6.55891 17.25 6.36V3C16.4757 3.04093 15.7144 3.21603 15 3.5175V7.86C15 8.05891 14.921 8.24968 14.7803 8.39033C14.6397 8.53098 14.4489 8.61 14.25 8.61C14.0511 8.61 13.8603 8.53098 13.7197 8.39033C13.579 8.24968 13.5 8.05891 13.5 7.86V4.45125C12.4725 5.33475 11.88 6.48075 11.6917 7.485C11.6853 7.51992 11.6793 7.55492 11.6737 7.59L11.6588 7.605C11.592 8.07675 11.6288 8.46525 11.7248 8.73225C11.7862 8.91804 11.7727 9.1205 11.687 9.29642C11.6012 9.47235 11.4501 9.6078 11.2659 9.67387C11.0817 9.73993 10.879 9.73139 10.701 9.65005C10.523 9.5687 10.3839 9.42102 10.3133 9.2385C10.3005 9.20375 10.2885 9.16874 10.2773 9.1335C5.922 14.82 30.102 14.817 25.7152 9.12375C25.7039 9.16046 25.6919 9.19697 25.6792 9.23325C25.6101 9.41642 25.4721 9.56529 25.2946 9.64806C25.1172 9.73082 24.9144 9.74092 24.7296 9.67619C24.5449 9.61147 24.3927 9.47705 24.3057 9.30165C24.2187 9.12625 24.2037 8.92378 24.264 8.7375C24.372 8.427 24.4035 8.04 24.345 7.6125C24.3405 7.6092 24.336 7.60595 24.3315 7.60275C24.1695 6.58875 23.553 5.4675 22.5 4.584V7.86C22.5 8.05891 22.421 8.24968 22.2803 8.39033C22.1397 8.53098 21.9489 8.61 21.75 8.61C21.5511 8.61 21.3603 8.53098 21.2197 8.39033C21.079 8.24968 21 8.05891 21 7.86V3.6465C20.7072 3.51495 20.4057 3.40345 20.0978 3.31275C19.6571 3.18432 19.2062 3.09474 18.75 3.0435Z" fill="white"/>
</g>
</g>
</svg>
