<svg width="29" height="29" viewBox="0 0 29 29" fill="none" xmlns="http://www.w3.org/2000/svg">
<g id="ic:round-construction">
<path id="Vector" d="M25.2939 19.581L19.3247 13.6118L16.763 16.1735L22.7322 22.1426C23.4451 22.8556 24.593 22.8556 25.2939 22.1426C25.9947 21.4297 25.9947 20.2818 25.2939 19.581ZM21.258 9.92639C23.5901 9.92639 25.4872 8.02931 25.4872 5.69723C25.4872 4.99639 25.2939 4.34389 24.9918 3.76389L21.7293 7.02639L19.9289 5.22598L23.1914 1.96348C22.6114 1.66139 21.9589 1.46806 21.258 1.46806C18.926 1.46806 17.0289 3.36514 17.0289 5.69723C17.0289 6.19264 17.1255 6.66389 17.2826 7.09889L15.0472 9.33431L12.8964 7.18348C13.0084 7.07169 13.0973 6.93891 13.1579 6.79273C13.2185 6.64656 13.2497 6.48986 13.2497 6.3316C13.2497 6.17335 13.2185 6.01665 13.1579 5.87047C13.0973 5.7243 13.0084 5.59151 12.8964 5.47973L12.0385 4.62181L14.6001 2.06014C13.9204 1.3813 12.9991 1 12.0385 1C11.0778 1 10.1565 1.3813 9.47679 2.06014L6.06929 5.47973C5.95727 5.59151 5.8684 5.7243 5.80777 5.87047C5.74713 6.01665 5.71592 6.17335 5.71592 6.3316C5.71592 6.48986 5.74713 6.64656 5.80777 6.79273C5.8684 6.93891 5.95727 7.07169 6.06929 7.18348L6.92721 8.04139H3.85804C3.62846 8.04139 3.41096 8.12598 3.25387 8.29514C3.1735 8.3739 3.10964 8.4679 3.06605 8.57164C3.02245 8.67538 3 8.78678 3 8.89931C3 9.01184 3.02245 9.12324 3.06605 9.22698C3.10964 9.33072 3.1735 9.42472 3.25387 9.50348L6.32304 12.5726C6.40179 12.653 6.4958 12.7169 6.59954 12.7605C6.70328 12.8041 6.81468 12.8265 6.92721 12.8265C7.03974 12.8265 7.15113 12.8041 7.25488 12.7605C7.35862 12.7169 7.45262 12.653 7.53137 12.5726C7.68846 12.4156 7.78512 12.1981 7.78512 11.9685V8.89931L8.63096 9.74514C9.10221 10.2164 9.86346 10.2164 10.3347 9.74514L12.4855 11.896L4.81262 19.5689C4.64311 19.7364 4.50852 19.9358 4.41666 20.1557C4.3248 20.3755 4.2775 20.6114 4.2775 20.8497C4.2775 21.088 4.3248 21.3239 4.41666 21.5438C4.50852 21.7637 4.64311 21.9631 4.81262 22.1306C5.52554 22.8435 6.67346 22.8435 7.37429 22.1306L19.8443 9.67264C20.2914 9.82973 20.7626 9.92639 21.258 9.92639Z" fill="white"/>
</g>
</svg>
