<svg width="17" height="17" viewBox="0 0 17 17" fill="none" xmlns="http://www.w3.org/2000/svg">
<g id="mingcute:announcement-fill" clip-path="url(#clip0_141_2733)">
<g id="Group">
<path id="Vector" fill-rule="evenodd" clip-rule="evenodd" d="M11.3277 2.13409C12.2726 1.58371 13.4583 2.26442 13.4583 3.35809V5.66655C13.7374 5.66655 14.0137 5.72151 14.2715 5.8283C14.5294 5.93509 14.7636 6.09162 14.9609 6.28894C15.1583 6.48627 15.3148 6.72053 15.4216 6.97834C15.5284 7.23616 15.5833 7.51249 15.5833 7.79155C15.5833 8.07061 15.5284 8.34693 15.4216 8.60475C15.3148 8.86257 15.1583 9.09683 14.9609 9.29415C14.7636 9.49147 14.5294 9.648 14.2715 9.75479C14.0137 9.86158 13.7374 9.91655 13.4583 9.91655V12.0415C13.4583 13.2089 12.126 13.8754 11.1917 13.1749L9.7325 12.0798C8.95253 11.495 8.04437 11.1045 7.08334 10.9408V12.9553C7.08341 13.4184 6.91609 13.8659 6.61222 14.2153C6.30835 14.5647 5.88841 14.7925 5.42981 14.8567C4.97122 14.9209 4.50487 14.8171 4.11675 14.5645C3.72863 14.312 3.44489 13.9276 3.31784 13.4823L2.20575 9.5893C1.80556 9.11669 1.54512 8.54183 1.45371 7.92932C1.36229 7.31682 1.44354 6.69097 1.6883 6.1221C1.93307 5.55324 2.33165 5.06393 2.83925 4.70916C3.34685 4.3544 3.94334 4.14824 4.56167 4.11388L6.69942 3.99488C7.74536 3.93668 8.76254 3.63103 9.66734 3.10309L11.3277 2.13409ZM3.99075 10.6801L4.67996 13.0934C4.71313 13.2102 4.78744 13.3111 4.88918 13.3774C4.99092 13.4437 5.11321 13.4709 5.23347 13.4541C5.35373 13.4373 5.46384 13.3775 5.54347 13.2858C5.62309 13.1941 5.66685 13.0767 5.66667 12.9553V10.8232L4.56167 10.7616C4.36937 10.7509 4.17836 10.7237 3.99075 10.6801ZM14.1667 7.79155C14.1667 7.60369 14.092 7.42352 13.9592 7.29068C13.8264 7.15784 13.6462 7.08321 13.4583 7.08321V8.49988C13.6462 8.49988 13.8264 8.42525 13.9592 8.29241C14.092 8.15958 14.1667 7.97941 14.1667 7.79155Z" fill="white"/>
</g>
</g>
<defs>
<clipPath id="clip0_141_2733">
<rect width="17" height="17" fill="white"/>
</clipPath>
</defs>
</svg>
