<svg width="29" height="28" viewBox="0 0 29 28" fill="none" xmlns="http://www.w3.org/2000/svg">
<g id="ph:toilet">
<path id="Vector" d="M14.625 5.375C14.625 5.60706 14.5328 5.82962 14.3687 5.99372C14.2046 6.15781 13.9821 6.25 13.75 6.25H12C11.7679 6.25 11.5454 6.15781 11.3813 5.99372C11.2172 5.82962 11.125 5.60706 11.125 5.375C11.125 5.14294 11.2172 4.92038 11.3813 4.75628C11.5454 4.59219 11.7679 4.5 12 4.5H13.75C13.9821 4.5 14.2046 4.59219 14.3687 4.75628C14.5328 4.92038 14.625 5.14294 14.625 5.375ZM20.3475 19.9372L20.7325 22.6278C20.7679 22.876 20.7496 23.1289 20.6788 23.3694C20.6079 23.6099 20.4863 23.8324 20.322 24.0217C20.1577 24.2111 19.9546 24.363 19.7266 24.4671C19.4985 24.5711 19.2507 24.625 19 24.625H12C11.7493 24.625 11.5015 24.5711 11.2734 24.4671C11.0454 24.363 10.8423 24.2111 10.678 24.0217C10.5137 23.8324 10.3921 23.6099 10.3212 23.3694C10.2504 23.1289 10.2321 22.876 10.2675 22.6278L10.6525 19.9372C8.94942 19.0496 7.52211 17.7123 6.52559 16.0706C5.52907 14.4289 5.00143 12.5455 5 10.625C5 10.3929 5.09219 10.1704 5.25628 10.0063C5.42038 9.84219 5.64294 9.75 5.875 9.75H7.625V2.75C7.625 2.28587 7.80937 1.84075 8.13756 1.51256C8.46575 1.18437 8.91087 1 9.375 1H21.625C22.0891 1 22.5342 1.18437 22.8624 1.51256C23.1906 1.84075 23.375 2.28587 23.375 2.75V9.75H25.125C25.3571 9.75 25.5796 9.84219 25.7437 10.0063C25.9078 10.1704 26 10.3929 26 10.625C25.9986 12.5455 25.4709 14.4289 24.4744 16.0706C23.4779 17.7123 22.0506 19.0496 20.3475 19.9372ZM9.375 9.75H21.625V2.75H9.375V9.75ZM18.6795 20.6328C16.6106 21.289 14.3894 21.289 12.3205 20.6328L12 22.875H19L18.6795 20.6328ZM24.2063 11.5H6.79375C7.01041 13.6585 8.02118 15.6596 9.62991 17.1149C11.2387 18.5702 13.3307 19.3761 15.5 19.3761C17.6693 19.3761 19.7613 18.5702 21.3701 17.1149C22.9788 15.6596 23.9896 13.6585 24.2063 11.5Z" fill="white"/>
</g>
</svg>
