<svg width="60" height="58" viewBox="0 0 60 58" fill="none" xmlns="http://www.w3.org/2000/svg">
<g id="Group 659">
<path id="Vector" d="M5.70004 26.8096C5.69961 26.7303 5.6835 26.6518 5.65262 26.5787C5.62175 26.5056 5.57673 26.4393 5.52014 26.3837C5.46355 26.328 5.39651 26.284 5.32287 26.2543C5.24922 26.2245 5.17042 26.2096 5.09097 26.2103H2.39223C2.29326 26.211 2.19516 26.1919 2.10367 26.1543C2.01218 26.1166 1.92914 26.0611 1.85942 25.9909C1.7897 25.9208 1.7347 25.8375 1.69764 25.7459C1.66059 25.6543 1.64223 25.5562 1.64363 25.4574C1.64917 22.9769 1.67851 15.0092 1.68626 11.5778C1.68626 11.401 1.7212 11.2259 1.78908 11.0626C1.85696 10.8993 1.95645 10.7509 2.08184 10.626C2.20724 10.5011 2.35608 10.4022 2.51984 10.3348C2.6836 10.2674 2.85907 10.233 3.03619 10.2334C10.6474 10.2334 48.1285 10.2434 56.7225 10.2439C56.9006 10.2439 57.0769 10.2789 57.2414 10.347C57.4058 10.415 57.5553 10.5147 57.6812 10.6405C57.807 10.7662 57.9069 10.9154 57.975 11.0797C58.043 11.244 58.078 11.42 58.078 11.5978C58.0852 15.8738 58.1106 23.0963 58.1212 25.4358C58.1226 25.5349 58.1044 25.6332 58.0674 25.7252C58.0304 25.8171 57.9755 25.9008 57.9058 25.9713C57.8362 26.0418 57.7531 26.0978 57.6616 26.136C57.57 26.1742 57.4718 26.1938 57.3726 26.1937H55.0038C54.8432 26.1937 54.689 26.2571 54.5749 26.3701C54.4608 26.483 54.3961 26.6364 54.3948 26.7969C54.3881 30.5256 54.3482 49.8763 54.3455 55.8368C54.3454 55.916 54.3297 55.9945 54.2992 56.0676C54.2687 56.1408 54.2241 56.2072 54.1679 56.2631C54.1117 56.319 54.045 56.3633 53.9716 56.3935C53.8982 56.4236 53.8196 56.439 53.7403 56.4388H6.32406C6.24486 56.4393 6.16634 56.4242 6.09301 56.3943C6.01968 56.3645 5.95299 56.3204 5.89675 56.2647C5.84052 56.2091 5.79585 56.1428 5.76532 56.0699C5.7348 55.9969 5.71901 55.9186 5.71886 55.8396C5.71776 49.3114 5.70225 30.4747 5.70004 26.8096Z" fill="white"/>
<path id="Vector_2" d="M10.7098 6.93579C10.1857 7.96056 9.88079 9.08295 9.81445 10.2317C20.4754 10.2361 39.0975 10.2411 49.9539 10.2433C49.7114 6.44157 47.2142 3.84168 43.8466 2.57297C42.2829 1.98422 39.1955 1.89246 37.3018 2.34632C34.7335 2.87544 32.3704 4.12705 30.4913 5.95344C30.3298 6.11258 30.112 6.20181 29.885 6.20181C29.6581 6.20181 29.4403 6.11258 29.2787 5.95344C27.3997 4.12695 25.0366 2.87533 22.4682 2.34632C20.5723 1.89246 17.4849 1.98422 15.9234 2.57297C13.7025 3.32905 11.8435 4.8846 10.7098 6.93579Z" fill="#F2635F"/>
<path id="Vector_3" d="M50.6877 8.04138C50.1742 6.49473 49.3008 5.09166 48.139 3.94726C46.9773 2.80286 45.5604 1.94975 44.0045 1.4579C40.9459 0.421375 37.2781 0.928307 34.3585 2.13455C32.739 2.7693 31.2547 3.70477 29.9842 4.89144L29.8436 5.0302C29.6472 5.19604 29.6603 5.21797 29.8829 5.09598L30.0596 5.17116C29.9687 5.07608 29.8763 4.98321 29.7827 4.89144C29.4919 4.61334 29.1865 4.35075 28.868 4.10478C28.1853 3.569 27.4521 3.10077 26.6786 2.70671C23.6184 1.12117 20.1171 0.595933 16.7253 1.21356C14.9611 1.57768 13.3247 2.401 11.9819 3.60008C10.6391 4.79916 9.63773 6.33136 9.07924 8.04138C8.65732 9.40407 10.7957 9.98674 11.2149 8.62903C11.6512 7.34339 12.4088 6.19011 13.4159 5.27821C14.4231 4.36632 15.6465 3.72594 16.9706 3.41763C19.8868 2.81637 22.9215 3.23997 25.5607 4.61669C26.2306 4.94814 26.8673 5.34261 27.4621 5.79474C28.054 6.25358 28.5319 6.9645 29.2611 7.20553C29.6404 7.31969 30.0446 7.32277 30.4256 7.21439C30.8066 7.10601 31.1485 6.89073 31.4106 6.59411C31.9255 6.09274 32.4882 5.64265 33.0905 5.25022C35.6834 3.6094 38.7606 2.90363 41.8108 3.25013C43.3297 3.4159 44.7702 4.00966 45.9638 4.96209C47.1575 5.91453 48.0552 7.18634 48.5521 8.62903C48.9718 9.98453 51.1107 9.40628 50.6877 8.04138Z" fill="#211715"/>
<path id="Vector_4" d="M5.0537 27.3148C10.5305 27.3148 16.0076 27.3148 21.4848 27.3148H45.6555H54.3985C55.8237 27.3148 55.8259 25.1035 54.3985 25.1035H35.489H12.0121H5.05315C3.62792 25.1035 3.62626 27.3148 5.0537 27.3148Z" fill="#211715"/>
<path id="Vector_5" d="M34.6989 12.2767V10.2412H25.0684V56.4428H34.6989C34.6989 56.2537 34.6989 56.1514 34.6989 56.1514C34.6983 46.5695 34.6983 23.3507 34.6989 12.2767Z" fill="#F2635F"/>
<path id="Vector_6" d="M23.9609 10.9089V56.148C23.9609 57.5709 26.1757 57.5731 26.1757 56.148V10.9089C26.1757 9.48591 23.9609 9.4837 23.9609 10.9089Z" fill="#211715"/>
<path id="Vector_7" d="M33.5908 10.9089V56.148C33.5908 57.5709 35.8056 57.5731 35.8056 56.148V10.9089C35.8056 9.48591 33.5908 9.4837 33.5908 10.9089Z" fill="#211715"/>
<path id="Vector_8" d="M6.76759 26.5147C6.53448 24.8043 4.45644 25.1034 3.21726 25.1039C3.09212 25.1039 2.50298 25.0144 2.39334 25.1039L2.75215 25.4566V25.3693C2.76268 25.2902 2.76268 25.2101 2.75215 25.131C2.75215 24.7348 2.75215 24.3387 2.75215 23.9425C2.75879 21.7172 2.76598 19.4923 2.77374 17.2678C2.7778 16.1345 2.78149 15.001 2.78481 13.8674C2.78481 13.4082 2.78611 12.9484 2.78869 12.4881C2.78869 12.2344 2.66743 11.5992 2.86233 11.4074C3.05723 11.2156 3.80363 11.3383 4.06608 11.3383H5.62198L26.9096 11.3427L50.4496 11.3482H56.1079C56.3111 11.3231 56.5166 11.3231 56.7198 11.3482C57.1073 11.4638 56.9684 11.9342 56.9689 12.2676C56.9741 14.7574 56.9811 17.2473 56.99 19.7372C56.9937 20.8797 56.9977 22.0222 57.0021 23.1647C57.0021 23.5944 57.0038 24.0241 57.0071 24.4538C57.0071 24.6495 57.0071 24.8447 57.0071 25.0404C57.0002 25.1086 57.0002 25.1773 57.0071 25.2455V25.4329L57.3659 25.0851C57.0983 25.053 56.8279 25.053 56.5603 25.0851H55.6096C54.8405 25.0851 54.0786 25.1155 53.6035 25.8193C53.2082 26.4053 53.2813 27.1007 53.2802 27.7746L53.2719 32.1009C53.2634 36.2404 53.2556 40.3803 53.2486 44.5205C53.242 48.127 53.2368 51.7338 53.2331 55.3407C53.2331 55.4021 53.1899 55.6962 53.2331 55.7487L53.7353 55.3302H53.7281C53.7048 55.3197 53.6639 55.3363 53.6384 55.3302C53.4839 55.3147 53.3283 55.3147 53.1739 55.3302H8.16956C7.6513 55.3302 7.11753 55.2932 6.60037 55.3302C6.57324 55.3302 6.34678 55.3076 6.33293 55.3302C6.29473 55.3927 3.01682 52.6314 6.57546 55.5353C6.95917 55.8488 6.82628 55.6459 6.82628 55.3374C6.82628 54.9637 6.82628 54.59 6.82628 54.2163C6.82369 46.182 6.81834 38.1478 6.81022 30.1135C6.81022 29.012 6.81022 27.91 6.81022 26.8077C6.81022 25.3853 4.59542 25.3826 4.59542 26.8077C4.60059 34.4517 4.60593 42.0953 4.61147 49.7385C4.61147 51.4987 4.61147 53.259 4.61147 55.0195C4.57403 55.4442 4.59452 55.8719 4.67238 56.291C4.7819 56.6459 5.00021 56.9575 5.29653 57.182C5.59286 57.4064 5.95225 57.5323 6.32407 57.542C6.39384 57.547 6.46471 57.542 6.53392 57.542C7.9813 57.5735 9.43311 57.542 10.881 57.542H49.056C50.5404 57.542 52.0271 57.5697 53.511 57.542C53.5869 57.542 53.6644 57.547 53.7403 57.542C54.0378 57.534 54.3286 57.4526 54.587 57.3052C54.8454 57.1579 55.0634 56.9491 55.2214 56.6973C55.4247 56.2593 55.5056 55.7745 55.4557 55.2943C55.4557 53.6635 55.4575 52.0325 55.4612 50.4013C55.4726 42.6954 55.4867 34.9897 55.5033 27.2842C55.5157 27.1775 55.5157 27.0698 55.5033 26.9631C55.4972 26.942 55.516 26.8707 55.5033 26.8486L55.0049 27.297H55.3792C56.0398 27.297 56.7142 27.3357 57.3726 27.297C57.7058 27.2915 58.0318 27.1991 58.3182 27.029C58.6046 26.8589 58.8415 26.617 59.0054 26.3273C59.2101 25.833 59.2863 25.295 59.2269 24.7634C59.2177 22.4847 59.2096 20.2064 59.2026 17.9284C59.1989 16.5902 59.1952 15.252 59.1915 13.9138C59.1915 12.8082 59.4318 11.3499 58.8498 10.357C57.9606 8.8379 56.0575 9.14084 54.5587 9.14084L32.6177 9.13476L8.61529 9.12923H4.72387C3.15247 9.12923 1.18019 8.99268 0.66857 10.927C0.42162 11.8607 0.576649 12.994 0.573327 13.9525C0.570005 15.1212 0.566319 16.2897 0.562259 17.4579C0.555245 19.7308 0.548046 22.0032 0.540664 24.2753C0.540664 25.2228 0.414976 26.2577 1.25217 26.9172C1.77785 27.256 2.40682 27.3978 3.02733 27.3174H4.82853C5.25303 27.3543 5.18751 27.2835 4.63196 27.1051C4.71114 27.3872 4.89862 27.6268 5.15366 27.7717C5.40869 27.9166 5.7107 27.9552 5.99407 27.8791C6.27403 27.7947 6.51064 27.6058 6.6547 27.3517C6.79876 27.0976 6.83919 26.7978 6.76759 26.5147Z" fill="#211715"/>
</g>
</svg>
