<svg width="81" height="65" viewBox="0 0 81 65" fill="none" xmlns="http://www.w3.org/2000/svg">
<g id="18642_color 1" clip-path="url(#clip0_141_2623)">
<g id="c">
<g id="d">
<path id="Vector" d="M55.8893 34.7195C54.7647 31.1349 54.3113 27.4924 54.2601 23.7606C54.3343 21.605 54.1755 19.0511 54.0935 17.9818C53.8117 14.2741 52.039 10.1319 49.4901 7.83145C48.4756 6.91418 48.1221 6.44831 47.1359 5.90519C47.1359 5.90519 46.5646 5.58897 45.9959 5.27517C45.4272 5.05792 44.861 4.84067 44.861 4.84067C42.7527 4.03686 40.5547 3.50098 37.4345 3.50098C32.3213 3.50098 27.7691 5.98485 25.7479 7.80731C22.3971 10.8295 20.2709 16.3524 20.5399 23.9657C20.5399 29.129 20.0916 32.8488 19.4614 34.9657C19.0336 36.4141 18.6698 38.8255 18.6544 40.2955C18.6339 42.3522 20.9728 45.1716 24.6771 44.836L24.6855 44.8351C25.4379 44.5271 26.2167 44.2376 27.0047 43.9685C27.0021 43.9668 27.0003 43.9656 26.998 43.9639C27.3976 43.8157 28.0578 43.5806 28.0578 43.5806C29.0776 43.2192 29.9056 42.9269 30.711 42.3155C31.0914 42.0263 31.3279 41.6558 31.5039 41.228C31.635 40.9026 31.6624 40.5425 31.6883 40.2089C31.7416 39.5207 31.729 39.2873 31.7349 38.7876C30.3339 38.1523 29.0779 37.1401 27.8834 35.7823C26.3404 34.0284 25.4656 32.142 24.9845 30.5797C24.3189 30.7388 23.6006 30.5035 23.1252 30.1339C22.0526 29.3004 21.6109 28.1417 21.3414 27.3843C20.961 26.3149 20.9439 24.5888 21.521 23.6541C21.7144 23.341 22.1627 22.808 23.2118 22.7772C23.6936 22.7629 24.2562 22.9073 24.6727 23.2872L26.1368 21.9386C28.573 20.0603 31.1985 17.7141 33.6001 15.4911C33.4984 16.3005 33.1429 17.6839 33.085 18.5213C33.0617 18.8578 33.1377 18.9743 33.409 19.0953C33.6183 19.167 33.9247 19.1274 34.1319 19.0639C37.6549 17.9844 40.5822 15.9227 42.765 13.1405C43.2377 14.8522 43.9083 16.9822 44.4919 18.0204C45.937 20.5912 48.3906 22.7561 50.5704 23.3792C50.9882 23.0043 51.5492 22.8655 52.029 22.8831C53.0776 22.9217 53.5215 23.4579 53.7124 23.7724C54.2818 24.7111 54.2503 26.4373 53.8612 27.5037C53.5855 28.259 53.1344 29.4146 52.0549 30.2401C51.6102 30.5805 50.9564 30.8033 50.3329 30.7016C50.3329 30.7016 50.273 30.6917 50.1679 30.6748C49.9676 31.2906 49.7206 31.8936 49.57 32.1864C49.1348 33.2864 46.7682 37.0991 43.7697 38.6645C43.7802 39.2537 43.7613 39.4674 43.8187 40.2089C43.8445 40.5422 43.8719 40.9026 44.0031 41.228C44.1788 41.6558 44.4155 42.0263 44.796 42.3155C45.6016 42.9269 46.4296 43.2192 47.4492 43.5806C47.4492 43.5806 48.3663 43.9072 48.6929 44.0329C48.6939 44.0322 48.6947 44.032 48.696 44.0312C49.4924 44.3103 50.2789 44.6096 51.0356 44.9285C51.0387 44.929 51.042 44.9297 51.0451 44.9302C53.4633 45.2319 55.9559 43.7643 56.7142 41.5411C57.4212 39.4772 56.5451 36.8003 55.8893 34.7195Z" fill="#FEBE69"/>
<path id="Vector_2" d="M19.9248 23.9652C19.9235 26.0517 19.8579 28.1409 19.6604 30.2198C19.5274 31.6191 19.3461 33.0059 18.9895 34.3752C18.5488 36.0681 18.1966 37.7602 18.0736 39.5045C18.0247 40.197 18.0219 40.8743 18.2496 41.5423C18.4845 42.2314 18.8747 42.8539 19.3666 43.4072C20.6623 44.8642 22.6835 45.5807 24.6768 45.4148C25.0075 45.3873 25.2916 45.1684 25.2916 44.8355C25.2916 44.5434 25.0095 44.2284 24.6768 44.2562C23.079 44.3892 21.5386 43.9132 20.4348 42.7994C20.0093 42.3702 19.6417 41.8109 19.4562 41.2934C19.4078 41.1584 19.3665 41.0209 19.3338 40.8818C19.2884 40.6892 19.2902 40.6991 19.2782 40.5463C19.251 40.2011 19.2792 39.8492 19.3035 39.5045C19.4188 37.8725 19.7529 36.2935 20.1684 34.71C20.5173 33.3805 20.7048 32.0109 20.8472 30.6497C21.0798 28.4294 21.1531 26.1954 21.1546 23.965C21.1552 23.2193 19.9255 23.2181 19.925 23.965L19.9248 23.9652Z" fill="#211715"/>
<path id="Vector_3" d="M53.6447 23.7597C53.6987 27.3933 54.1355 31.038 55.1935 34.5398C55.9817 37.1487 57.4317 40.6408 55.1343 42.9432C54.0809 43.9988 52.5713 44.5264 51.0445 44.3497C50.7143 44.3116 50.4297 44.6433 50.4297 44.9291C50.4297 45.274 50.7135 45.47 51.0445 45.5084C52.6108 45.6897 54.188 45.1939 55.4105 44.2749C56.6775 43.3224 57.4143 41.9414 57.5616 40.4306C57.7268 38.7344 57.2393 37.0085 56.7416 35.3941C56.2026 33.645 55.7192 31.8993 55.4138 30.0983C55.0585 28.0028 54.9058 25.8803 54.8743 23.7597C54.8633 23.0148 53.6337 23.0126 53.6447 23.7597Z" fill="#211715"/>
<path id="Vector_4" d="M46.8263 6.4045C47.3481 6.69658 47.7844 7.0519 48.2129 7.45478C48.6951 7.90786 49.1992 8.34501 49.6503 8.82609C50.5349 9.76895 51.2294 10.8685 51.7958 12.0047C52.3924 13.2015 52.8325 14.4707 53.1312 15.7621C53.3874 16.8693 53.4873 17.9838 53.5531 19.1128C53.6436 20.6598 53.6945 22.2117 53.6436 23.7607C53.619 24.5066 54.8486 24.5058 54.8732 23.7607C54.9206 22.3232 54.8786 20.8834 54.8015 19.4476C54.7364 18.2361 54.6478 17.0294 54.4006 15.8367C53.8426 13.1452 52.667 10.4765 50.82 8.34115C50.3195 7.76254 49.7397 7.2578 49.1815 6.73013C48.65 6.22757 48.0961 5.76869 47.4462 5.40468C46.7643 5.0228 46.1451 6.02408 46.8255 6.40523L46.8263 6.4045Z" fill="#211715"/>
<path id="Vector_5" d="M45.0236 4.28199C42.4026 3.28579 39.5852 2.81509 36.7571 2.93578C33.8802 3.05865 31.0536 3.89433 28.5441 5.21061C26.6597 6.19909 25.0169 7.46564 23.7419 9.11045C22.4144 10.8231 21.5193 12.8242 20.9263 14.8612C20.0666 17.8144 19.8217 20.9147 19.9247 23.9664C19.9498 24.7101 21.1794 24.7134 21.1543 23.9664C20.9978 19.3276 21.6064 14.3085 24.3429 10.3268C25.3742 8.8261 26.7368 7.61289 28.3592 6.65869C30.5835 5.35037 33.1399 4.43745 35.7542 4.16758C38.799 3.85305 41.8672 4.32375 44.6967 5.39937C45.0049 5.51645 45.3722 5.27192 45.4529 4.99481C45.5495 4.66387 45.3328 4.39979 45.0236 4.28224V4.28199Z" fill="#211715"/>
<path id="Vector_6" d="M24.6725 23.2873C24.256 22.9074 23.6934 22.763 23.2116 22.7773C22.1628 22.8082 21.7142 23.3411 21.5208 23.6542C20.9437 24.5889 20.9608 26.315 21.3412 27.3844C21.6105 28.1416 22.0521 29.3003 23.125 30.134C23.6004 30.5036 24.3185 30.7389 24.9843 30.5798C25.4654 32.1421 26.3402 34.0283 27.8832 35.7825C29.0777 37.1403 30.3337 38.1524 31.7347 38.7877C31.7288 39.2874 31.7414 39.5208 31.6881 40.209C31.6622 40.5424 31.6348 40.9028 31.5037 41.2281C31.3279 41.6559 31.0912 42.0264 30.7108 42.3156C29.9051 42.927 29.0772 43.2193 28.0576 43.5807C28.0576 43.5807 27.3972 43.8158 26.9978 43.964C27.204 44.1084 27.3103 44.1653 27.4999 44.2706C30.2323 45.7891 34.3546 46.6386 37.8755 46.7141C41.3922 46.6395 45.4926 45.7925 48.2277 44.281C48.3866 44.1933 48.5085 44.14 48.6934 44.0333C48.3673 43.9075 47.4492 43.5807 47.4492 43.5807C46.4294 43.2193 45.6014 42.927 44.796 42.3156C44.4156 42.0264 44.1791 41.6559 44.0032 41.2281C43.872 40.9028 43.8446 40.5426 43.8187 40.209C43.7613 39.4675 43.7803 39.2538 43.7698 38.6646C46.7683 37.099 49.1348 33.2863 49.5701 32.1865C49.7207 31.8937 49.9677 31.2907 50.168 30.675L50.333 30.7017C50.9565 30.8034 51.61 30.5806 52.055 30.2402C53.1345 29.4144 53.5856 28.2592 53.8612 27.5039C54.2504 26.4372 54.2819 24.7113 53.7124 23.7725C53.5216 23.458 53.0776 22.9219 52.0291 22.8832C51.5493 22.8656 50.9883 23.0044 50.5704 23.3793C48.3906 22.7563 45.937 20.5913 44.4919 18.0205C43.9084 16.9823 43.2377 14.8525 42.7651 13.1406C40.5822 15.9231 37.6552 17.9848 34.132 19.064C33.9245 19.1275 33.6184 19.1671 33.4091 19.0954C33.138 18.9745 33.062 18.8579 33.085 18.5214C33.1427 17.6842 33.4985 16.3006 33.6002 15.4912C31.1983 17.7142 28.5728 20.0607 26.1368 21.9387L24.6725 23.2873Z" fill="white"/>
<path id="Vector_7" d="M42.2126 13.4428C42.684 15.1238 43.1484 16.9101 44.0379 18.4467C44.9878 20.0874 46.3071 21.5543 47.89 22.6816C48.6488 23.2218 49.4893 23.667 50.3995 23.9356C51.1564 24.1591 51.4802 23.0408 50.7263 22.8182C49.2 22.3676 47.9035 21.3192 46.8553 20.2134C45.703 18.9978 44.8745 17.6234 44.3222 16.0848C43.9736 15.1134 43.6764 14.1257 43.3985 13.1345C43.1966 12.4142 42.01 12.7201 42.2126 13.4428Z" fill="#211715"/>
<path id="Vector_8" d="M42.2222 12.8629C41.0614 14.3312 39.6394 15.6313 38.0219 16.648C37.1896 17.1714 36.3084 17.6247 35.3913 18.0017C34.9589 18.1796 34.5147 18.3365 34.0661 18.4746C33.9726 18.5033 33.8704 18.5415 33.7712 18.5504C33.7628 18.5511 33.6227 18.5432 33.6201 18.5444C33.552 18.5806 33.6155 18.4898 33.6206 18.5439C33.5976 18.3032 33.7131 18.6798 33.6975 18.6837C33.7011 18.6827 33.708 18.4169 33.7121 18.3761C33.8074 17.406 34.0876 16.4576 34.2149 15.4906C34.2839 14.9675 33.512 14.7602 33.1654 15.081C30.7576 17.3085 28.3127 19.5116 25.702 21.5284C25.4451 21.7268 25.4835 22.1418 25.702 22.3477C25.9561 22.5871 26.314 22.5466 26.5715 22.3477C29.1824 20.3306 31.6273 18.1275 34.0349 15.9002L32.9853 15.4906C32.8629 16.4211 32.5775 17.4101 32.4824 18.3761C32.433 18.8782 32.5647 19.3274 33.0642 19.5782C33.6286 19.8619 34.2749 19.6379 34.8282 19.4496C36.9901 18.7136 38.977 17.5962 40.6908 16.1527C41.6563 15.3395 42.5114 14.4249 43.2843 13.447C43.4828 13.196 43.3278 12.7999 43.0637 12.6543C42.7501 12.4815 42.4215 12.6104 42.2224 12.8621L42.2222 12.8629Z" fill="#211715"/>
<path id="Vector_9" d="M49.8225 29.6267C49.6265 30.5104 49.2781 31.3526 48.9307 32.142C49.0053 31.9728 48.9407 32.1198 48.9205 32.1606C48.8941 32.2137 48.8685 32.267 48.8413 32.3201C48.7786 32.443 48.7127 32.5647 48.6448 32.6851C48.4814 32.975 48.3067 33.2591 48.124 33.5386C47.1793 34.986 46.0293 36.3465 44.6268 37.4233C43.8585 38.0132 42.9829 38.482 42.0197 38.6872C41.2481 38.8518 41.5747 39.9689 42.3465 39.8046C44.3186 39.3841 45.9614 38.0248 47.2495 36.6187C48.3126 35.4582 49.3106 34.1494 49.9823 32.7454C50.0243 32.6576 50.0646 32.5688 50.1035 32.4797C50.1204 32.4411 50.1934 32.2849 50.1227 32.4345C50.2318 32.2028 50.3369 31.9691 50.4322 31.7319C50.6673 31.1472 50.8725 30.5471 51.0083 29.9347C51.1697 29.2072 49.9846 28.8961 49.8225 29.6267Z" fill="#211715"/>
<path id="Vector_10" d="M24.1383 29.7965C24.563 31.5975 25.3331 33.3432 26.4141 34.8825C27.5779 36.5391 29.1101 38.0915 30.9679 39.0648C31.907 39.5567 32.932 39.8915 33.9943 40.0431C34.3222 40.0899 34.6552 39.9654 34.7505 39.6386C34.8305 39.3648 34.6514 38.9731 34.3212 38.926C30.4909 38.3797 27.6251 35.2419 26.1777 32.0291C25.809 31.2108 25.5285 30.356 25.3239 29.4887C25.1522 28.7612 23.9664 29.069 24.138 29.7967L24.1383 29.7965Z" fill="#211715"/>
<path id="Vector_11" d="M25.1069 22.8773C24.2733 22.1587 23.0493 22.003 22.0277 22.4537C21.2692 22.7882 20.8268 23.481 20.6285 24.2245C20.1643 25.9644 20.6216 27.9484 21.6614 29.4365C22.3617 30.4388 23.4789 31.3601 24.8428 31.1873C25.1717 31.1455 25.4576 30.9507 25.4576 30.608C25.4576 30.3272 25.1743 29.9866 24.8428 30.0286C23.2348 30.2321 22.361 28.4471 21.9444 27.2597C21.7065 26.5816 21.6432 25.8623 21.7049 25.1521C21.7344 24.814 21.8023 24.4608 21.9429 24.1468C21.9854 24.0519 22.0428 23.9652 22.0971 23.8762C22.1179 23.8421 22.1809 23.7647 22.1184 23.8392C22.1601 23.7893 22.2062 23.742 22.2542 23.6973C22.7255 23.2577 23.6933 23.2276 24.2375 23.6968C24.8202 24.1994 25.6923 23.3821 25.1069 22.8773Z" fill="#211715"/>
<path id="Vector_12" d="M50.998 23.7916C51.4909 23.3733 52.3129 23.3475 52.8522 23.7054C53.0082 23.809 53.0743 23.8891 53.1808 24.0646C53.3504 24.3434 53.4324 24.6717 53.4831 24.9874C53.6945 26.3049 53.3048 27.6924 52.566 28.8154C52.142 29.4596 51.3981 30.2639 50.4956 30.143C50.1672 30.0991 49.8352 30.2188 49.7394 30.5475C49.6602 30.8191 49.838 31.2159 50.1687 31.2601C52.4927 31.5718 53.8436 29.4128 54.4661 27.6215C54.7819 26.7129 54.8291 25.707 54.6825 24.7656C54.5588 23.9693 54.2227 23.1954 53.5018 22.7237C52.483 22.0568 51.0292 22.2076 50.1283 22.9724C49.5391 23.4725 50.4108 24.2898 50.9977 23.7916H50.998Z" fill="#211715"/>
<path id="Vector_13" d="M35.2275 33.5805C36.0125 33.971 36.8578 34.1342 37.7452 34.1289C38.6444 34.1234 39.5564 33.958 40.277 33.4289C40.539 33.2365 40.4914 32.8117 40.277 32.6096C40.0182 32.3658 39.6704 32.4167 39.4075 32.6096C39.5915 32.4747 39.4388 32.5843 39.3916 32.6128C39.3407 32.6437 39.2881 32.6719 39.2346 32.6984C39.1944 32.7182 39.0061 32.7907 39.1662 32.7342C39.0942 32.7598 39.0228 32.7861 38.9495 32.8083C38.4807 32.9502 38.1646 32.9729 37.6638 32.9702C37.5349 32.9695 37.4063 32.9654 37.278 32.9572C37.219 32.9534 37.1601 32.949 37.1012 32.9435C37.1022 32.9435 36.897 32.9176 37.0038 32.9333C36.8125 32.9056 36.6229 32.8672 36.4374 32.8148C36.358 32.7923 36.2807 32.7656 36.2025 32.7404C36.1772 32.7322 36.1526 32.7197 36.1267 32.7127C36.2802 32.7542 36.179 32.7347 36.1364 32.7158C36.0394 32.6726 35.9435 32.6277 35.8485 32.5804C35.5549 32.4344 35.1799 32.5102 35.0072 32.7882C34.8448 33.0499 34.9332 33.4342 35.2278 33.581L35.2275 33.5805Z" fill="#211715"/>
<path id="Vector_14" d="M37.4535 27.9659C37.5642 28.3639 37.6705 28.768 37.734 29.1755L37.712 29.0215C37.7194 29.0772 37.7227 29.1323 37.7168 29.1885L37.7389 29.0345C37.7348 29.0606 37.7286 29.0847 37.7194 29.1096L37.7814 28.9713C37.7732 28.9889 37.7645 29.0036 37.7532 29.0195L37.8493 28.9022C37.836 28.9174 37.8237 28.929 37.8073 28.9411L37.9318 28.8506C37.8992 28.8701 37.8652 28.886 37.8301 28.9013L37.9769 28.8428C37.921 28.8648 37.8654 28.881 37.8055 28.8899L37.9689 28.8692C37.9149 28.8752 37.8621 28.8747 37.808 28.8689L37.9715 28.8897C37.9108 28.8817 37.8513 28.8677 37.7906 28.8602C37.619 28.8385 37.4732 28.8325 37.317 28.9186C37.1894 28.9889 37.0677 29.1267 37.0344 29.2648C36.9985 29.413 37.0062 29.5796 37.0964 29.7111C37.1763 29.8279 37.3103 29.9578 37.4637 29.9774C37.598 29.9945 37.7281 30.0266 37.8647 30.0324C38.0719 30.0408 38.2653 29.9815 38.4505 29.9018C38.6785 29.8036 38.8563 29.6129 38.9168 29.3814C38.968 29.1856 38.9457 29.0121 38.9106 28.816C38.8407 28.4265 38.7451 28.0402 38.6388 27.6579C38.5573 27.3648 38.1959 27.1577 37.8826 27.2533C37.5624 27.3508 37.3656 27.6518 37.4532 27.9659H37.4535Z" fill="#211715"/>
<path id="Vector_15" d="M30.6238 24.5516C30.4093 25.2079 30.5492 26.718 31.8688 26.8467C33.613 26.8368 33.706 25.0112 33.1186 24.1528C32.6378 23.4499 31.2242 23.1578 30.6235 24.5518L30.6238 24.5516Z" fill="#211715"/>
<path id="Vector_16" d="M44.5926 24.5507C44.807 25.2071 44.6674 26.7172 43.3476 26.8456C41.6033 26.8357 41.5103 25.0101 42.0974 24.1517C42.5783 23.449 43.9918 23.1567 44.5926 24.5507Z" fill="#211715"/>
<path id="Vector_17" d="M27.1577 44.5239C28.3935 44.0669 29.732 43.7128 30.8138 42.9662C31.4993 42.4931 32.0232 41.8469 32.1972 41.0474C32.3427 40.3793 32.3447 39.6754 32.3486 38.9951C32.3527 38.2495 31.123 38.2485 31.1189 38.9951C31.1159 39.5568 31.1266 40.1427 31.02 40.6964C30.9014 41.311 30.5254 41.7641 29.9838 42.1035C29.0257 42.7038 27.894 43.0135 26.8308 43.4065C26.5219 43.5207 26.3067 43.7946 26.4015 44.1191C26.4824 44.3964 26.847 44.6385 27.1577 44.5236V44.5239Z" fill="#211715"/>
<path id="Vector_18" d="M48.6759 43.4062C47.6131 43.0133 46.4798 42.7045 45.523 42.1032C44.9919 41.7694 44.6297 41.3371 44.4952 40.7392C44.3691 40.1779 44.3909 39.5672 44.3878 38.9951C44.3838 38.2497 43.1541 38.2483 43.1582 38.9951C43.1621 39.6756 43.1654 40.3783 43.3096 41.0474C43.4818 41.8464 44.0087 42.4938 44.693 42.9662C45.7748 43.713 47.1133 44.0669 48.3491 44.5239C48.6583 44.6383 49.0241 44.3983 49.1053 44.1193C49.2011 43.7908 48.9862 43.5214 48.6759 43.4067V43.4062Z" fill="#211715"/>
<path id="Vector_19" d="M12.3221 56.8378C13.5566 54.7105 14.9789 52.6736 16.7173 50.8796C18.3863 49.1571 20.3191 47.6789 22.4658 46.5156C23.9555 45.7084 25.5466 45.0815 27.1569 44.5235C27.4684 44.4156 27.6795 44.1305 27.5862 43.8109C27.5037 43.5282 27.1431 43.2977 26.83 43.4063C24.0518 44.3692 21.4183 45.565 19.0667 47.2736C17.0098 48.768 15.241 50.5562 13.7221 52.5382C12.8142 53.7229 12.0042 54.9712 11.2605 56.2529C10.8806 56.9076 11.9419 57.4929 12.3221 56.8378Z" fill="#211715"/>
<path id="Vector_20" d="M64.1578 56.253C62.8667 54.0148 61.3593 51.8769 59.5318 49.9933C57.7993 48.2083 55.7678 46.6636 53.5376 45.4634C51.9941 44.6328 50.3405 43.9864 48.6762 43.4061C48.3647 43.2975 48.0024 43.5275 47.9199 43.8107C47.8254 44.1344 48.0368 44.4144 48.3493 44.5232C50.9569 45.4323 53.4454 46.5721 55.6505 48.1832C57.5913 49.6013 59.2828 51.3166 60.7066 53.1989C61.5861 54.3614 62.3728 55.5836 63.0962 56.8373C63.4743 57.4927 64.5364 56.9086 64.158 56.2525L64.1578 56.253Z" fill="#211715"/>
<path id="Vector_21" d="M48.3259 43.5649C45.859 44.9119 43.0984 45.6573 40.2736 45.9728C38.8431 46.1326 37.4378 46.1589 36.0039 46.0261C34.5248 45.8893 33.0546 45.6273 31.6249 45.2445C30.1673 44.8542 28.6594 44.347 27.4039 43.5285C27.1308 43.3503 26.7212 43.4809 26.5627 43.7363C26.3841 44.0241 26.5094 44.3504 26.7832 44.529C27.9632 45.2983 29.3801 45.805 30.7411 46.2055C32.2479 46.6487 33.8009 46.9376 35.3666 47.1184C36.8683 47.292 38.3441 47.3207 39.8496 47.1756C41.3982 47.0264 42.9381 46.7662 44.4362 46.3658C46.0206 45.9424 47.522 45.343 48.9464 44.5655C49.6309 44.1918 49.0127 43.1901 48.3259 43.5649Z" fill="#211715"/>
<path id="Vector_22" d="M6.16105 32.7434C6.10623 32.9655 5.77295 32.9694 5.71223 32.7487C5.45837 31.8266 5.06437 30.7252 4.46595 30.0686C3.73585 29.2677 2.68093 28.9276 1.70311 28.7296C1.46026 28.6804 1.46128 28.3526 1.70414 28.3041C2.67247 28.1107 3.73995 27.7701 4.44981 27.0481C5.1256 26.3609 5.50704 24.978 5.72069 24.0397C5.77244 23.8123 6.11468 23.8087 6.17181 24.0347C6.40954 24.9729 6.833 26.3597 7.51006 27.0479C8.213 27.7624 9.22873 28.1035 10.1674 28.2978C10.411 28.3482 10.4087 28.6775 10.164 28.7236C9.16162 28.9128 8.06263 29.237 7.33305 30.0377C6.73488 30.694 6.3911 31.8126 6.16105 32.7427V32.7434Z" fill="#FEBE69"/>
<path id="Vector_23" d="M5.56759 32.5892V32.5579C5.64112 32.4886 5.71464 32.4193 5.78816 32.35C5.9206 32.3155 6.04869 32.3317 6.17216 32.3983L6.33022 32.6539C6.1135 32.1552 6.01077 31.6116 5.79046 31.1093C5.55504 30.5722 5.27684 30.06 4.86542 29.6221C4.47706 29.2086 3.97393 28.8815 3.44212 28.6537C3.17057 28.5373 2.89237 28.4345 2.6075 28.3512C2.40999 28.2935 1.97757 28.2284 1.89636 28.1711L2.11693 28.379C2.14178 28.471 2.14203 28.5629 2.1177 28.6549L1.89713 28.8627C1.99397 28.7949 2.46353 28.7285 2.67641 28.6657C2.98331 28.575 3.28406 28.4637 3.57533 28.3353C4.15761 28.0782 4.69532 27.7082 5.08675 27.2244C5.4518 26.773 5.68902 26.2398 5.88294 25.7056C5.9767 25.4471 6.05817 25.1847 6.13118 24.9206C6.1696 24.7823 6.20547 24.6433 6.23979 24.504C6.2526 24.4514 6.26541 24.3988 6.27771 24.3459C6.28719 24.3053 6.34226 24.1849 6.31229 24.223L6.09172 24.4309C5.96082 24.4632 5.83401 24.4475 5.71156 24.3838L5.5535 24.1282C5.75614 24.6189 5.84144 25.1598 6.03204 25.6588C6.23262 26.1836 6.46753 26.7153 6.8231 27.1653C7.19814 27.6401 7.69896 28.0167 8.25768 28.2856C8.55842 28.4304 8.87531 28.5513 9.19604 28.651C9.40687 28.7167 9.87618 28.7884 9.97327 28.8577L9.75271 28.6498C9.72786 28.5583 9.72709 28.4664 9.7504 28.3744L9.97097 28.1666C10.0155 28.1359 9.94612 28.1774 9.90872 28.183C9.83187 28.1943 9.75424 28.2141 9.67842 28.2308C9.55392 28.2578 9.43018 28.2873 9.30722 28.3196C9.01544 28.3964 8.73237 28.4924 8.45365 28.6042C7.89955 28.8263 7.37464 29.1365 6.96502 29.5572C6.1655 30.3791 5.83196 31.5298 5.56759 32.5892C5.38648 33.3144 6.57179 33.6241 6.75342 32.8973C6.9722 32.0205 7.21095 30.9734 7.9039 30.3074C8.24282 29.9818 8.67319 29.7467 9.12585 29.59C9.36793 29.5063 9.61591 29.4377 9.86619 29.379C10.1124 29.3214 10.3752 29.2991 10.5914 29.1671C11.1678 28.8154 11.0246 27.972 10.396 27.7625C9.90462 27.5988 9.39663 27.5281 8.92347 27.3063C8.50104 27.1081 8.08911 26.8498 7.81065 26.4836C7.53219 26.1174 7.34211 25.6878 7.18456 25.2629C7.02061 24.8205 6.91712 24.3657 6.77366 23.9184C6.59921 23.3741 5.90779 23.0711 5.40877 23.4755C5.03091 23.7815 5.01144 24.3971 4.88361 24.8284C4.75168 25.2733 4.60054 25.7177 4.37177 26.1278C3.89939 26.9753 3.01021 27.3847 2.06211 27.6273C1.82515 27.6879 1.54233 27.7079 1.3274 27.8264C1.05868 27.9747 0.900104 28.2547 0.909582 28.5448C0.931101 29.2137 1.60791 29.2849 2.14101 29.4295C2.66975 29.5729 3.19619 29.7752 3.62708 30.1049C4.08127 30.4525 4.37562 30.9196 4.60489 31.4205C4.72248 31.6775 4.81931 31.9438 4.90871 32.2108C4.99812 32.4777 5.04474 32.7795 5.17539 33.0312C5.32679 33.3228 5.62139 33.4942 5.96697 33.4874C6.3602 33.48 6.62175 33.2229 6.75342 32.8973C6.87152 32.6047 6.62226 32.2619 6.32382 32.1847C5.97773 32.0951 5.6862 32.2957 5.56759 32.5892Z" fill="#211715"/>
<path id="Vector_24" d="M67.9706 39.8176C67.9158 40.0397 67.5825 40.0436 67.5218 39.8229C67.2679 38.9008 66.8739 37.7994 66.2755 37.1428C65.5454 36.3419 64.4905 36.0018 63.5127 35.8039C63.2698 35.7546 63.2709 35.4268 63.5137 35.3783C64.482 35.1849 65.5495 34.8443 66.2594 34.1224C66.9352 33.4351 67.3166 32.0522 67.5303 31.114C67.582 30.8866 67.9243 30.8829 67.9814 31.1089C68.2191 32.0472 68.6426 33.4339 69.3196 34.1221C70.0226 34.8366 71.0383 35.1777 71.9769 35.372C72.2205 35.4225 72.2182 35.7517 71.9736 35.7978C70.9712 35.9871 69.8722 36.3113 69.1426 37.1119C68.5444 37.7683 68.2007 38.8868 67.9706 39.8169V39.8176Z" fill="#FEBE69"/>
<path id="Vector_25" d="M67.3781 39.6642V39.6328C67.4517 39.5635 67.5252 39.4943 67.5987 39.425C67.7311 39.3905 67.8592 39.4066 67.9827 39.4733L68.1408 39.7289C67.924 39.2302 67.8213 38.6866 67.601 38.1843C67.3656 37.6472 67.0874 37.1349 66.676 36.6971C66.2876 36.2836 65.7845 35.9565 65.2527 35.7286C64.9811 35.6123 64.7029 35.5095 64.418 35.4262C64.2205 35.3685 63.7881 35.3033 63.7069 35.2461L63.9275 35.4539C63.9523 35.5459 63.9526 35.6379 63.9282 35.7298L63.7077 35.9377C63.8045 35.8698 64.2741 35.8035 64.487 35.7407C64.7939 35.6499 65.0946 35.5387 65.3859 35.4102C65.9682 35.1532 66.5059 34.7831 66.8973 34.2994C67.2623 33.848 67.4996 33.3148 67.6935 32.7806C67.7873 32.522 67.8687 32.2597 67.9417 31.9956C67.9801 31.8573 68.016 31.7182 68.0503 31.579C68.0632 31.5263 68.076 31.4737 68.0883 31.4208C68.0977 31.3803 68.1528 31.2598 68.1228 31.298L67.9023 31.5058C67.7714 31.5382 67.6446 31.5225 67.5221 31.4587L67.364 31.2031C67.5667 31.6939 67.652 32.2348 67.8426 32.7337C68.0432 33.2585 68.2781 33.7903 68.6336 34.2402C69.0087 34.715 69.5095 35.0916 70.0682 35.3605C70.369 35.5053 70.6859 35.6263 71.0066 35.726C71.2174 35.7916 71.6867 35.8633 71.7838 35.9326L71.5633 35.7248C71.5384 35.6333 71.5376 35.5413 71.5609 35.4493L71.7815 35.2415C71.8261 35.2109 71.7567 35.2524 71.7193 35.2579C71.6424 35.2693 71.5648 35.2891 71.489 35.3057C71.3645 35.3328 71.2407 35.3622 71.1178 35.3946C70.826 35.4713 70.5429 35.5674 70.2642 35.6791C69.7101 35.9012 69.1852 36.2114 68.7756 36.6321C67.976 37.4541 67.6425 38.6048 67.3781 39.6642C67.197 40.3893 68.3823 40.699 68.564 39.9722C68.7827 39.0955 69.0215 38.0484 69.7144 37.3824C70.0534 37.0567 70.4837 36.8216 70.9364 36.665C71.1785 36.5812 71.4265 36.5127 71.6767 36.454C71.9229 36.3963 72.1858 36.3741 72.402 36.2421C72.9784 35.8904 72.8352 35.047 72.2065 34.8374C71.7152 34.6738 71.2072 34.603 70.734 34.3812C70.3116 34.183 69.8997 33.9247 69.6212 33.5586C69.3427 33.1924 69.1527 32.7627 68.9951 32.3379C68.8312 31.8954 68.7277 31.4406 68.5842 30.9933C68.4098 30.449 67.7183 30.1461 67.2193 30.5504C66.8415 30.8565 66.822 31.472 66.6942 31.9034C66.5622 32.3483 66.4111 32.7926 66.1823 33.2028C65.7099 34.0503 64.8208 34.4597 63.8727 34.7023C63.6357 34.7628 63.3529 34.7829 63.1379 34.9014C62.8692 35.0496 62.7107 35.3296 62.7201 35.6198C62.7416 36.2886 63.4185 36.3599 63.9516 36.5044C64.4803 36.6478 65.0067 36.8501 65.4376 37.1798C65.8918 37.5274 66.1862 37.9945 66.4154 38.4954C66.533 38.7525 66.6299 39.0187 66.7193 39.2857C66.8087 39.5527 66.8553 39.8544 66.9859 40.1062C67.1373 40.3978 67.4319 40.5692 67.7775 40.5624C68.1707 40.5549 68.4323 40.2978 68.564 39.9722C68.6821 39.6796 68.4328 39.3369 68.1344 39.2596C67.7883 39.1701 67.4967 39.3707 67.3781 39.6642Z" fill="#211715"/>
<path id="Vector_26" d="M76.8747 29.4503C76.835 29.6113 76.5932 29.6142 76.5491 29.4541C76.3649 28.7853 76.079 27.986 75.6451 27.5098C75.1153 26.9288 74.3501 26.6821 73.6405 26.5384C73.4645 26.5027 73.465 26.2649 73.6413 26.2297C74.3437 26.0895 75.1184 25.8423 75.6333 25.3185C76.1236 24.82 76.4003 23.8166 76.5552 23.1359C76.5929 22.971 76.8411 22.9683 76.8826 23.1322C77.0553 23.8129 77.3624 24.819 77.8535 25.3185C78.3633 25.837 79.1003 26.0844 79.7815 26.2254C79.9583 26.262 79.9565 26.5008 79.7789 26.5343C79.0517 26.6717 78.2544 26.9068 77.7249 27.4878C77.291 27.9638 77.0415 28.7754 76.8747 29.4503Z" fill="#FEBE69"/>
<path id="Vector_27" d="M76.3439 29.158L76.3657 29.1399L76.637 28.991L76.7894 28.9932L77.0607 29.1421C77.1265 29.2418 77.1368 29.2355 77.0917 29.1233C77.0784 29.0779 77.0648 29.0327 77.0507 28.9876C77.0174 28.8799 76.9823 28.7728 76.9444 28.6663C76.8729 28.4652 76.7912 28.268 76.7023 28.073C76.5291 27.6933 76.3142 27.3331 76.0124 27.0295C75.7125 26.7275 75.3336 26.49 74.9337 26.3232C74.5479 26.1622 74.1311 26.105 73.7463 25.958L74.0176 26.1069L74.1016 26.23V26.538L74.0181 26.6614L73.7468 26.8103C73.9415 26.7367 74.1618 26.7123 74.3632 26.6539C74.6019 26.5846 74.8364 26.4984 75.0628 26.3992C75.5073 26.2042 75.9179 25.923 76.2179 25.5556C76.4976 25.2133 76.679 24.8133 76.8286 24.4071C76.968 24.0283 77.0141 23.6044 77.1714 23.2361L77.0133 23.4917L76.8811 23.5697H76.5543C76.3437 23.3119 76.2686 23.2677 76.3291 23.4372C76.3432 23.49 76.3575 23.5431 76.3724 23.5958C76.3957 23.679 76.42 23.7623 76.4454 23.8451C76.5076 24.0481 76.5765 24.2499 76.656 24.4476C76.8135 24.8401 76.9951 25.2217 77.2685 25.5553C77.5536 25.9029 77.9358 26.1788 78.3528 26.3734C78.578 26.4784 78.8152 26.5687 79.0543 26.6418C79.2577 26.7038 79.4798 26.7306 79.676 26.8067L79.4047 26.6577L79.3202 26.5354V26.2273L79.4024 26.1035L79.6737 25.9546C79.2792 26.0994 78.8524 26.1482 78.4569 26.3087C78.0498 26.4738 77.6625 26.7002 77.3576 27.0075C76.7431 27.6269 76.4836 28.4908 76.2817 29.2966C76.1001 30.0217 77.2854 30.3312 77.4675 29.6046C77.6379 28.9248 77.8221 28.0853 78.4451 27.6349C78.6972 27.4526 78.9953 27.3324 79.2963 27.2446C79.7039 27.1253 80.2096 27.1234 80.435 26.7241C80.6769 26.2957 80.4135 25.8081 79.9447 25.6669C79.5843 25.5582 79.2231 25.4998 78.8842 25.3299C78.2214 24.9975 77.9355 24.4435 77.714 23.7944C77.6066 23.4799 77.571 23.0693 77.3889 22.7864C77.1224 22.3726 76.4889 22.3195 76.1433 22.6722C75.9059 22.9148 75.8864 23.3198 75.7973 23.6252C75.6953 23.9755 75.5787 24.3267 75.3887 24.6443C75.0339 25.2372 74.3309 25.4812 73.662 25.6318C73.1984 25.7364 72.7969 26.0335 72.9156 26.5378C73.0219 26.9896 73.421 27.0722 73.8347 27.1784C74.6716 27.3935 75.257 27.8096 75.5997 28.5693C75.6861 28.7607 75.7558 28.9596 75.8208 29.158C75.8897 29.3678 75.9238 29.6167 76.0475 29.8052C76.3552 30.2742 77.1588 30.2597 77.405 29.7427C77.541 29.4573 77.4924 29.1196 77.1844 28.95C76.9216 28.8051 76.48 28.871 76.3432 29.1578L76.3439 29.158Z" fill="#211715"/>
<path id="Vector_28" d="M29.6966 56.1046C29.5941 54.9313 29.5152 53.7354 29.9771 52.5073C30.7853 50.5173 32.0065 49.697 34.8767 49.319C34.7499 48.816 35.2335 48.339 35.8091 48.1331C36.3625 47.9351 36.9829 47.8915 37.5878 47.8603C38.4667 47.8149 39.3482 47.7505 40.2284 47.7749C41.1086 47.7993 42.0109 47.9576 42.72 48.3757C43.8179 49.0231 44.2608 50.1631 44.463 51.2426C44.5823 51.8797 44.6415 52.5239 44.6397 53.1682C44.6372 54.0893 44.5104 55.0112 44.588 55.9304C44.7176 57.4668 45.4285 58.9701 46.6148 60.1841C46.3838 61.4031 45.949 62.5193 45.2901 63.9502C43.9573 63.821 42.0931 63.6403 42.0931 63.6403C40.9183 63.4213 39.8452 63.0378 38.9875 62.463L38.5761 62.6663L32.2383 65.7968C31.8694 66.0322 31.3725 65.9564 31.094 65.6288C30.2535 64.6401 29.5106 63.5982 28.8745 62.5159C28.7088 62.2342 28.5471 61.9358 28.5671 61.6249C28.5909 61.2558 28.8643 60.9326 29.0725 60.6026C30.0045 59.127 29.8303 57.635 29.6966 56.1049V56.1046Z" fill="white"/>
<path id="Vector_29" d="M34.5247 48.7862C33.4157 48.9474 32.2525 49.204 31.3205 49.8237C30.4687 50.39 29.9033 51.1757 29.5047 52.0729C28.9348 53.3561 28.9637 54.7414 29.082 56.1021C29.1902 57.346 29.3487 58.6587 28.8036 59.8381C28.5118 60.4691 27.9341 60.9975 27.9526 61.7277C27.9713 62.4624 28.5648 63.1977 28.9637 63.7985C29.3966 64.4505 29.8675 65.0786 30.367 65.6866C30.5796 65.9454 30.7707 66.1967 31.0846 66.3529C31.4153 66.5172 31.8083 66.552 32.1679 66.4593C32.5553 66.3596 32.9633 66.0917 33.3163 65.9174L35.3224 64.9265C36.5106 64.3397 37.6985 63.7529 38.8866 63.1661C39.5877 62.8197 38.9668 61.8194 38.2659 62.1655C36.207 63.1825 34.1484 64.1995 32.0895 65.2164C32.0019 65.2596 31.8539 65.3608 31.7591 65.3608C31.5969 65.3608 31.4724 65.1529 31.3815 65.0436C31.1471 64.7616 30.9224 64.4725 30.7041 64.1792C30.2797 63.6088 29.8836 63.0196 29.5188 62.4137C29.3861 62.193 29.1463 61.8952 29.182 61.6246C29.216 61.3658 29.4668 61.1116 29.6034 60.8949C30.3173 59.7608 30.4736 58.4656 30.3972 57.1715C30.326 55.9653 30.0932 54.7277 30.3268 53.5253C30.522 52.5197 30.9995 51.565 31.8008 50.9256C32.0711 50.71 32.5622 50.4617 32.9423 50.3313C33.5584 50.1201 34.2045 49.9975 34.8511 49.9036C35.1795 49.8558 35.3611 49.4676 35.2804 49.191C35.1841 48.8605 34.8536 48.7384 34.5242 48.7864L34.5247 48.7862Z" fill="#211715"/>
<path id="Vector_30" d="M46.6409 59.3221C45.7484 58.1946 45.2092 56.8834 45.1794 55.4701C45.1633 54.7018 45.2527 53.9358 45.2545 53.1678C45.2563 52.4163 45.1779 51.6588 45.0227 50.9216C44.7624 49.686 44.1332 48.4779 42.9405 47.8242C41.5628 47.0691 39.873 47.1577 38.3416 47.2395C37.4517 47.2871 36.49 47.2714 35.6457 47.5741C34.9087 47.8384 34.1698 48.4457 34.249 49.2602C34.2792 49.5718 34.5098 49.8395 34.8638 49.8395C35.173 49.8395 35.5091 49.5735 35.4786 49.2602C35.4315 48.775 36.1706 48.6092 36.5638 48.5365C37.2647 48.4069 38.0073 48.4127 38.719 48.3789C39.9806 48.3193 41.5205 48.2181 42.588 48.9889C43.4779 49.6314 43.7815 50.737 43.9275 51.7339C44.1301 53.1163 43.8642 54.4898 43.9688 55.8722C44.0792 57.3348 44.6502 58.7329 45.5791 59.9068C45.7773 60.1571 46.1109 60.285 46.4203 60.1146C46.6824 59.9703 46.8405 59.5744 46.6409 59.3221Z" fill="#211715"/>
<path id="Vector_31" d="M40.6742 49.3628C39.731 49.3259 38.787 49.3261 37.844 49.3689C36.9743 49.408 36.0326 49.4181 35.1883 49.6342C34.5473 49.7981 33.964 50.165 33.7821 50.7955C33.5826 51.487 33.9983 52.1002 34.6229 52.4376C35.3105 52.8094 35.9306 51.8086 35.2436 51.4371C35.1757 51.4004 35.0502 51.327 35.0266 51.3007C34.9979 51.2686 34.9828 51.2278 34.9582 51.1935C35.0077 51.2623 34.9544 51.1257 34.96 51.1906C34.958 51.1658 34.9623 51.1349 34.9682 51.1032C34.9872 51.0026 34.9477 51.1242 34.9749 51.0731C34.991 51.0429 35.0094 51.0146 35.0276 50.9854C35.0615 50.9306 34.9603 51.0371 35.041 50.969C35.0507 50.9608 35.1263 50.8973 35.1042 50.913C35.1544 50.8773 35.2879 50.8189 35.376 50.7902C35.6596 50.6972 35.9606 50.6656 36.2575 50.6376C37.7249 50.5 39.201 50.4638 40.6745 50.5215C41.4658 50.5524 41.4643 49.3937 40.6745 49.3628H40.6742Z" fill="#211715"/>
<path id="Vector_32" d="M41.0002 51.7023C40.0382 51.6518 39.0763 51.6014 38.1144 51.5509C37.2244 51.5043 36.3347 51.4556 35.446 51.5504C34.6396 51.6364 33.838 51.863 33.4937 52.6275C33.1699 53.3466 33.5273 54.0596 34.0981 54.561C34.6765 55.0689 35.548 54.2513 34.9675 53.7417C34.8033 53.5976 34.6224 53.3908 34.5948 53.2411C34.5745 53.1315 34.6035 53.0514 34.7083 52.9478C34.8702 52.7875 35.1561 52.7443 35.3864 52.7156C35.7435 52.6712 36.1065 52.6552 36.4664 52.6523C37.975 52.64 39.4944 52.7822 40.9999 52.8611C41.7905 52.9027 41.7881 51.7438 40.9999 51.7025L41.0002 51.7023Z" fill="#211715"/>
<path id="Vector_33" d="M40.3289 54.2328C39.2919 54.1158 38.2544 54.0037 37.2144 53.9113C36.0741 53.8099 34.7141 53.5446 33.7606 54.3159C32.8289 55.0697 33.2893 56.323 34.2563 56.8089C34.7136 57.0387 35.2539 57.0935 35.7575 57.1773C36.3303 57.2726 36.9044 57.361 37.4762 57.4611C37.8023 57.5183 38.1391 57.3762 38.2324 57.0566C38.3146 56.7746 38.1312 56.4014 37.803 56.344C36.9236 56.1897 36.0308 56.0816 35.1586 55.8924C34.8991 55.8361 34.5066 55.6891 34.4743 55.3985C34.4479 55.1602 34.7984 55.0345 35.0289 54.9831C35.476 54.8834 35.9722 54.9649 36.4233 55.0021C36.8911 55.0407 37.3588 55.0818 37.8261 55.126C38.6615 55.2051 39.4953 55.2973 40.3289 55.3912C40.6591 55.4284 40.9437 55.0982 40.9437 54.8119C40.9437 54.4679 40.6602 54.27 40.3289 54.2326V54.2328Z" fill="#211715"/>
<path id="Vector_34" d="M36.8177 57.2861C36.2288 57.9813 36.2933 59.0427 36.4621 59.8718C36.6256 60.6754 37.0303 61.4164 37.5847 62.0409C38.6609 63.2532 40.3234 63.8931 41.9296 64.1992C42.2547 64.2612 42.5936 64.1108 42.6859 63.7946C42.7691 63.5088 42.5834 63.1443 42.2565 63.082C40.9472 62.8324 39.6205 62.3786 38.6747 61.4531C38.2556 61.0428 37.9395 60.546 37.763 60.001C37.6349 59.6056 37.5893 59.215 37.5934 58.803C37.5952 58.6178 37.5708 58.2434 37.6874 58.1058C37.8944 57.8615 37.9408 57.5251 37.6874 57.2866C37.4727 57.0843 37.0262 57.0408 36.8179 57.2866L36.8177 57.2861Z" fill="#211715"/>
<path id="Vector_35" d="M46.1392 59.2453C46.0232 60.3214 45.7173 61.3635 45.3144 62.3742C44.9168 63.3714 44.4872 64.327 43.8214 65.1921C43.6264 65.4456 43.7753 65.8379 44.0419 65.9849C44.3524 66.156 44.6878 66.0312 44.8832 65.777C45.6084 64.8342 46.067 63.7682 46.5002 62.6822C46.9444 61.5682 47.2413 60.4301 47.3689 59.2453C47.4024 58.9337 47.0622 58.666 46.7541 58.666C46.3936 58.666 46.1731 58.9328 46.1392 59.2453Z" fill="#211715"/>
</g>
</g>
</g>
<defs>
<clipPath id="clip0_141_2623">
<rect width="79.6178" height="63.5924" fill="white" transform="translate(0.90918 0.929688)"/>
</clipPath>
</defs>
</svg>
