<svg width="19" height="19" viewBox="0 0 19 19" fill="none" xmlns="http://www.w3.org/2000/svg">
<g id="solar:phone-outline">
<path id="Vector" fill-rule="evenodd" clip-rule="evenodd" d="M4.53897 1.61728C5.50243 0.659368 7.08893 0.829576 7.89564 1.90783L8.89472 3.24099C9.55181 4.11816 9.49322 5.34366 8.71343 6.1187L8.52501 6.30712C8.50374 6.38622 8.50157 6.46926 8.51868 6.54937C8.56856 6.87237 8.83851 7.55637 9.96901 8.68053C11.0995 9.8047 11.7883 10.0739 12.116 10.1245C12.1985 10.1421 12.284 10.1396 12.3654 10.1174L12.6884 9.79599C13.3819 9.10724 14.4459 8.9782 15.3041 9.44449L16.8161 10.2678C18.1121 10.9708 18.4391 12.7315 17.3782 13.7868L16.2533 14.9046C15.8986 15.2569 15.422 15.5506 14.8409 15.6052C13.408 15.739 10.0696 15.568 6.5601 12.0792C3.28497 8.82224 2.65639 5.98174 2.57643 4.58208C2.53685 3.87433 2.87093 3.27583 3.29685 2.85308L4.53897 1.61728ZM6.94564 2.61953C6.54426 2.08358 5.79693 2.04083 5.37576 2.45962L4.13285 3.69462C3.8716 3.95428 3.74651 4.24087 3.76235 4.51478C3.82568 5.62708 4.33235 8.1897 7.39768 11.2376C10.6134 14.4344 13.583 14.5302 14.7309 14.4225C14.9652 14.4011 15.198 14.2792 15.4157 14.0631L16.5398 12.9445C16.9974 12.49 16.8969 11.6619 16.2493 11.3104L14.7372 10.4879C14.3192 10.2615 13.83 10.3359 13.526 10.6383L13.1658 10.9969L12.7462 10.5758C13.1658 10.997 13.1642 10.9977 13.1642 10.9977L13.1634 10.9993L13.161 11.0017L13.1555 11.0064L13.1436 11.0175C13.1099 11.0483 13.0739 11.0763 13.0359 11.1014C12.9726 11.1434 12.8887 11.1901 12.7834 11.2289C12.5696 11.3089 12.2862 11.3516 11.9363 11.2978C11.2499 11.1925 10.3403 10.7246 9.13143 9.52287C7.92335 8.32112 7.45151 7.41703 7.34543 6.73145C7.29081 6.38153 7.33435 6.09812 7.4151 5.88437C7.45988 5.76424 7.52348 5.65201 7.60351 5.55187L7.62885 5.52416L7.63993 5.51228L7.64468 5.50753L7.64706 5.50516L7.64864 5.50358L7.87664 5.27716C8.21547 4.93912 8.26297 4.37941 7.94393 3.9527L6.94564 2.61953Z" fill="white"/>
</g>
</svg>
