<svg width="54" height="47" viewBox="0 0 54 47" fill="none" xmlns="http://www.w3.org/2000/svg">
<g id="12646_color 1" clip-path="url(#clip0_141_2460)">
<path id="Vector" d="M15.5096 32.6727C15.3962 32.7384 15.2675 32.7731 15.1365 32.7731C15.0056 32.7731 14.8769 32.7384 14.7635 32.6727L3.52538 26.1647L3.47364 26.1798V37.5382C3.47337 37.6038 3.49039 37.6682 3.52296 37.7251C3.55554 37.7819 3.60252 37.8291 3.65914 37.8619L17.0352 45.6068C17.0914 45.6397 17.1554 45.6571 17.2206 45.6571C17.2857 45.6571 17.3497 45.6397 17.406 45.6068L51.4679 25.8853C51.5245 25.8525 51.5715 25.8053 51.6041 25.7485C51.6366 25.6916 51.6537 25.6271 51.6534 25.5616V11.9412L50.9575 12.1472L15.5096 32.6727Z" fill="white"/>
<path id="Vector_2" d="M38.4564 0.62858L52.7048 8.78247C52.7621 8.81526 52.8097 8.86267 52.8428 8.91989C52.8759 8.97712 52.8934 9.04212 52.8933 9.10828C52.8933 9.80354 52.8933 10.4801 52.8933 10.8132C52.8933 10.8783 52.8762 10.9423 52.8436 10.9987C52.8111 11.0551 52.7643 11.1019 52.708 11.1343L15.5098 32.6733C15.3964 32.7391 15.2677 32.7737 15.1367 32.7737C15.0057 32.7737 14.877 32.7391 14.7636 32.6733L0.563769 24.4501C0.507026 24.4172 0.459896 24.37 0.427106 24.3131C0.394316 24.2562 0.37702 24.1917 0.376953 24.126C0.376953 23.7887 0.376953 23.1143 0.376953 22.4657C0.376955 22.3999 0.39422 22.3353 0.427013 22.2783C0.459806 22.2214 0.506971 22.1741 0.563769 22.1412L37.7123 0.630453C37.8253 0.564984 37.9535 0.53036 38.0841 0.530032C38.2146 0.529703 38.343 0.56368 38.4564 0.62858Z" fill="white"/>
<path id="Vector_3" d="M28.4119 20.5314L16.4557 27.4542C16.4273 27.4706 16.3951 27.4793 16.3623 27.4793C16.3295 27.4793 16.2973 27.4706 16.2689 27.4542L8.11684 22.7341C8.08844 22.7176 8.06486 22.694 8.04846 22.6655C8.03207 22.637 8.02344 22.6047 8.02344 22.5718C8.02344 22.5389 8.03207 22.5066 8.04846 22.4782C8.06486 22.4497 8.08844 22.426 8.11684 22.4096L20.073 15.4868C20.1014 15.4703 20.1337 15.4617 20.1665 15.4617C20.1992 15.4617 20.2315 15.4703 20.2599 15.4868L28.4118 20.2069C28.4402 20.2233 28.4638 20.247 28.4802 20.2754C28.4966 20.3039 28.5052 20.3362 28.5052 20.3691C28.5053 20.402 28.4967 20.4343 28.4803 20.4628C28.4639 20.4913 28.4403 20.5149 28.4119 20.5314Z" fill="#D9D9D9"/>
<path id="Vector_4" d="M46.1895 10.2391L35.4476 16.4592C35.3056 16.5414 35.1445 16.5847 34.9805 16.5847C34.8166 16.5847 34.6555 16.5414 34.5135 16.4592L27.574 12.4433C27.4605 12.3776 27.3661 12.283 27.3005 12.169C27.235 12.0551 27.2004 11.9259 27.2004 11.7943C27.2004 11.6628 27.235 11.5336 27.3005 11.4197C27.3661 11.3057 27.4605 11.2111 27.574 11.1454L38.3159 4.92531C38.4579 4.84309 38.619 4.7998 38.783 4.7998C38.947 4.7998 39.108 4.84309 39.25 4.92531L46.1884 8.94267C46.3017 9.00845 46.3957 9.10293 46.4612 9.21664C46.5266 9.33034 46.5611 9.4593 46.5612 9.59059C46.5613 9.72187 46.5271 9.85089 46.4618 9.96471C46.3966 10.0785 46.3027 10.1732 46.1895 10.2391Z" fill="#7ABEE6"/>
<path id="Vector_5" d="M3.10021 26.1804V37.3278C3.10021 37.3973 3.09666 37.4679 3.10021 37.5374C3.12095 37.9446 3.38921 38.1381 3.70512 38.3209L5.14696 39.1558L9.77663 41.8364L14.5983 44.6279L16.2713 45.5965C16.4413 45.6949 16.6098 45.7963 16.7815 45.8918C16.9229 45.9759 17.0852 46.0179 17.2495 46.013C17.4138 46.008 17.5733 45.9563 17.7094 45.8639L19.4983 44.8282L22.5929 43.0364L26.659 40.6827L31.3045 37.9931L36.1911 35.1641L40.9857 32.3879L45.2884 29.8961L48.7677 27.8816L51.0764 26.5448C51.3277 26.4266 51.5657 26.2818 51.7863 26.1128C52.0738 25.8445 52.0273 25.4664 52.0273 25.1138V11.9417C52.0273 11.4597 51.28 11.4587 51.28 11.9417V25.066C51.28 25.1901 51.3289 25.4889 51.2565 25.5756C51.1756 25.6392 51.0861 25.691 50.9908 25.7295L50.6325 25.937L49.6355 26.5143L46.6955 28.2165L42.7812 30.4827L38.2375 33.1137L33.4085 35.9095L28.6392 38.6711L24.2741 41.1985L20.6579 43.2923L18.1359 44.7536L17.3922 45.1846C17.2758 45.2518 17.2491 45.2986 17.1377 45.2342L16.6257 44.9376L12.7025 42.6667L7.69588 39.7684C6.50648 39.0796 5.31709 38.3908 4.1277 37.7021C4.05577 37.6605 3.87643 37.5897 3.84747 37.5266C3.83319 37.4357 3.83319 37.3432 3.84747 37.2523V26.1804C3.84747 25.6984 3.10021 25.6974 3.10021 26.1804Z" fill="#453C3A"/>
<path id="Vector_6" d="M16.8477 32.0033V45.6569C16.8477 46.1391 17.5949 46.1399 17.5949 45.6569V32.0033C17.5949 31.5211 16.8477 31.5203 16.8477 32.0033Z" fill="#453C3A"/>
<path id="Vector_7" d="M37.081 9.64595L32.5554 12.2664L31.9202 12.6348C31.5038 12.8759 31.8797 13.5237 32.2974 13.2819L36.8099 10.6689L37.4591 10.2929C37.8755 10.0519 37.4997 9.40408 37.0819 9.64595H37.081Z" fill="#453C3A"/>
<path id="Vector_8" d="M38.4736 6.58637V8.61595C38.4736 8.71532 38.513 8.81063 38.5831 8.8809C38.6531 8.95117 38.7482 8.99065 38.8473 8.99065C38.9464 8.99065 39.0414 8.95117 39.1115 8.8809C39.1815 8.81063 39.2209 8.71532 39.2209 8.61595V6.58637C39.2209 6.48699 39.1815 6.39169 39.1115 6.32142C39.0414 6.25115 38.9464 6.21167 38.8473 6.21167C38.7482 6.21167 38.6531 6.25115 38.5831 6.32142C38.513 6.39169 38.4736 6.48699 38.4736 6.58637Z" fill="#453C3A"/>
<path id="Vector_9" d="M38.2676 0.952204L42.0293 3.10487L48.9763 7.08046L51.5758 8.56821L52.3021 8.98376C52.5671 9.13551 52.5194 9.08699 52.5194 9.46975V10.3512C52.5194 10.4636 52.5648 10.7394 52.511 10.8151C52.4787 10.8606 52.366 10.899 52.3177 10.9275L51.7542 11.2537L49.9714 12.286L44.3047 15.5669L36.9203 19.8436L29.0483 24.4018L21.9332 28.5217L16.8197 31.482C16.3474 31.7554 15.8792 32.0379 15.4021 32.3028C15.3117 32.3577 15.2067 32.3838 15.1012 32.3775C14.9956 32.3712 14.8945 32.3329 14.8112 32.2676L14.1654 31.8929L8.28312 28.4868L2.00928 24.8546L1.13498 24.3488C1.04158 24.2952 0.825991 24.2216 0.761352 24.1324C0.734264 24.0949 0.790682 24.2221 0.75033 24.0734C0.740055 23.9879 0.740055 23.9015 0.75033 23.816C0.75033 23.6521 0.75033 23.4882 0.75033 23.3242V22.8558C0.75033 22.77 0.702319 22.5307 0.75033 22.4667C0.747902 22.4699 0.757243 22.4635 0.758177 22.4622C0.782836 22.4247 0.880915 22.3912 0.918464 22.3694L3.54622 20.848L8.63097 17.9022L15.2207 14.0868L22.3819 9.94019L29.1133 6.04328L34.4827 2.93325L37.5413 1.16222C37.757 1.03726 38.0113 0.824993 38.2676 0.952204C38.6973 1.1656 39.0761 0.519423 38.6446 0.305093C38.0871 0.0281883 37.6621 0.227905 37.1981 0.495442L36.0301 1.17178L31.6678 3.69765L25.3953 7.32982L18.2215 11.4834L11.169 15.5677L5.17488 19.038L1.30966 21.2764L0.468986 21.7635C0.330172 21.8326 0.210981 21.9357 0.122442 22.0633C-0.0294388 22.3024 0.00288035 22.5845 0.00288035 22.8554V23.7779C0.00288035 24.1776 0.00605622 24.536 0.378754 24.7756C0.774803 25.03 1.19794 25.2498 1.60501 25.4856L4.4108 27.1102L11.4001 31.157L13.8749 32.5909L14.4757 32.9388C14.6639 33.0599 14.8817 33.1268 15.1052 33.1324C15.3288 33.138 15.5496 33.082 15.7436 32.9705C16.9708 32.2865 18.1771 31.5614 19.3931 30.8574L25.7864 27.1553L33.5453 22.6626L41.4334 18.095L48.1238 14.2212L52.3042 11.8006C52.4723 11.703 52.642 11.6074 52.8086 11.5079C52.9429 11.4406 53.0564 11.338 53.1369 11.211C53.2175 11.0839 53.2621 10.9373 53.2659 10.7868C53.2973 10.2167 53.2964 9.64522 53.2631 9.07519C53.2202 8.48222 52.4583 8.21056 52.0115 7.95501L45.9284 4.47328L39.6833 0.899558L38.6446 0.305093C38.2263 0.0656586 37.849 0.712957 38.2676 0.952204Z" fill="#453C3A"/>
<path id="Vector_10" d="M46.0005 9.91517L43.1553 11.5624L37.9026 14.6046L35.9124 15.757L35.3484 16.0835C35.2491 16.1575 35.1357 16.2101 35.0152 16.2383C34.8432 16.2214 34.68 16.1544 34.5457 16.0455L33.7637 15.5927L31.2588 14.1424L28.7944 12.7155L28.0043 12.258C27.8657 12.1997 27.7408 12.1129 27.6378 12.0032C27.3576 11.5862 27.9685 11.3486 28.242 11.1901L30.0326 10.1533L35.2552 7.12907C36.3541 6.49208 37.4382 5.81049 38.56 5.21528C38.6299 5.17428 38.7096 5.15324 38.7905 5.15447C38.8715 5.15569 38.9506 5.17912 39.0192 5.22221C39.2039 5.32713 39.3868 5.43504 39.5707 5.54071L41.8212 6.84392C43.1997 7.64204 44.5861 8.42741 45.9571 9.23846C46.2187 9.39321 46.2848 9.73531 46.0005 9.91442C45.5942 10.1703 45.9689 10.8191 46.3777 10.5615C46.5364 10.4656 46.6692 10.3321 46.7644 10.1727C46.8597 10.0133 46.9144 9.83291 46.9239 9.64733C46.9333 9.46175 46.8972 9.27668 46.8187 9.10837C46.7402 8.94006 46.6216 8.79366 46.4735 8.68202C46.3431 8.59362 46.208 8.51232 46.0689 8.43847L43.9573 7.21581L39.4475 4.6047C39.2669 4.48638 39.0581 4.41859 38.8426 4.40834C38.6271 4.3981 38.4128 4.44577 38.2218 4.54644C38.1387 4.59046 38.0584 4.64011 37.9769 4.68826L36.3593 5.62502L31.035 8.70825C29.8379 9.40145 28.6365 10.0877 27.4435 10.7879C27.2568 10.8831 27.1002 11.0287 26.9915 11.2084C26.8828 11.388 26.8262 11.5945 26.8282 11.8046C26.8301 12.0147 26.8905 12.2201 27.0025 12.3977C27.1145 12.5753 27.2737 12.718 27.4622 12.8097C28.031 13.1425 28.6031 13.4702 29.1734 13.8005L34.0536 16.6261C34.1747 16.6962 34.294 16.7711 34.4177 16.8369C34.6029 16.9363 34.811 16.9849 35.021 16.9778C35.2309 16.9707 35.4353 16.9081 35.6133 16.7964C36.0441 16.5506 36.4727 16.2992 36.9011 16.0505L42.0648 13.0599L46.1582 10.6893L46.3777 10.5623C46.7939 10.3212 46.418 9.6733 46.0005 9.91517Z" fill="#453C3A"/>
<path id="Vector_11" d="M28.2233 20.2084L25.1952 21.9616L19.5114 25.2526L17.2797 26.5453L16.5817 26.9495C16.4712 26.9933 16.3677 27.0532 16.2746 27.1272C16.3176 27.0727 16.5212 27.1919 16.4168 27.1085C16.3536 27.0656 16.2874 27.0274 16.2187 26.994L15.4378 26.5418L12.8446 25.0403L10.0359 23.4139C9.48757 23.0966 8.94655 22.738 8.37956 22.4551C8.362 22.4426 8.34322 22.4318 8.32352 22.423C8.31866 22.4219 8.31362 22.4148 8.30876 22.4146C8.47391 22.4244 8.36649 22.7356 8.30465 22.7346C8.3224 22.7346 8.35248 22.7048 8.36836 22.6971C8.52586 22.6168 8.67902 22.5281 8.82717 22.4315L10.7293 21.3302L16.3467 18.0784L20.1618 15.8693C20.1718 15.8637 20.2553 15.826 20.2564 15.8146C20.2493 15.8959 20.0042 15.7359 20.1196 15.8382C20.2914 15.9602 20.474 16.0659 20.6651 16.1541L23.0119 17.5128L27.9313 20.3605C28.0038 20.4025 28.0754 20.4499 28.1503 20.4872C28.168 20.5005 28.1873 20.5117 28.2076 20.5205C28.3136 20.5422 28.0365 20.3532 28.1488 20.2661C28.0791 20.3366 28.0401 20.4318 28.0401 20.5311C28.0401 20.6303 28.0791 20.7256 28.1488 20.7961C28.22 20.864 28.3146 20.9019 28.4129 20.9019C28.5113 20.9019 28.6058 20.864 28.6771 20.7961C28.7449 20.7375 28.7978 20.6636 28.8314 20.5804C28.8651 20.4973 28.8786 20.4073 28.8708 20.3179C28.863 20.2285 28.8342 20.1423 28.7866 20.0662C28.7391 19.9902 28.6742 19.9266 28.5973 19.8807C28.556 19.8532 28.5106 19.8305 28.4677 19.8058L27.7692 19.4013L25.1689 17.8957C23.6211 16.9996 22.0844 16.0799 20.5237 15.2061C20.4248 15.1423 20.3106 15.1062 20.193 15.1018C20.0755 15.0973 19.9589 15.1246 19.8555 15.1808C19.7172 15.2537 19.5838 15.338 19.4486 15.4163L17.5423 16.52L11.7682 19.8633C10.5089 20.5926 9.22621 21.2922 7.98557 22.054C7.60166 22.2897 7.52712 22.7904 7.93251 23.0612C8.06328 23.149 8.20863 23.2212 8.34519 23.3002L10.6169 24.6156L15.7623 27.5945C15.891 27.6808 16.0272 27.755 16.1694 27.8163C16.4255 27.9066 16.615 27.7955 16.8216 27.6758L18.3927 26.7662L24.0245 23.5063L28.3715 20.9894L28.6005 20.8566C29.0169 20.6144 28.641 19.9665 28.2233 20.2084Z" fill="#453C3A"/>
<path id="Vector_12" d="M11.4399 22.8197L14.4533 21.0749L19.2309 18.3086L20.3297 17.6717C20.746 17.4307 20.3703 16.7829 19.9526 17.0245L16.9392 18.7693L12.1618 21.5363L11.0629 22.1733C10.6467 22.4144 11.0226 23.0623 11.4401 22.8204L11.4399 22.8197Z" fill="#453C3A"/>
<path id="Vector_13" d="M23.7554 20.5012C23.7393 21.0775 22.8933 21.3679 22.4047 21.4672C21.6429 21.6219 20.7327 21.544 20.0695 21.1091C19.9621 21.0503 19.8685 20.969 19.7951 20.8708C19.7216 20.7725 19.6701 20.6597 19.6438 20.5398C19.6484 20.4362 19.6754 20.3348 19.7231 20.2428C19.7708 20.1508 19.838 20.0704 19.9199 20.0071C20.4817 19.5065 21.3808 19.4196 22.0944 19.4882C22.6444 19.5412 23.7365 19.8278 23.7554 20.5012C23.7689 20.9825 24.5163 20.9845 24.5027 20.5012C24.4756 19.532 23.4733 18.9983 22.6394 18.8201C21.6375 18.6061 20.4209 18.7007 19.5745 19.33C19.2352 19.5568 18.9988 19.9086 18.9167 20.3091C18.8894 20.5174 18.9112 20.7291 18.9802 20.9274C19.0493 21.1257 19.1638 21.305 19.3144 21.4509C20.0335 22.1984 21.2676 22.3704 22.2474 22.2464C23.1884 22.1274 24.4719 21.6281 24.5034 20.5012C24.5161 20.0189 23.7689 20.0193 23.7554 20.5012Z" fill="#453C3A"/>
<path id="Vector_14" d="M50.9405 9.64571L49.9754 10.2044L47.3622 11.7174L43.4837 13.9632L38.7698 16.6925L33.6079 19.6815L28.3771 22.7104L23.5178 25.5239L19.3959 27.9104L16.4442 29.62C15.9772 29.8901 15.5041 30.1513 15.0431 30.4312C15.0229 30.4434 15.0024 30.4546 14.982 30.4664C14.5656 30.7075 14.9415 31.3554 15.3592 31.1135L16.3241 30.5548L18.9373 29.0418L22.8159 26.796L27.5299 24.0667L32.6921 21.0777L37.923 18.0488L42.7806 15.2353L46.9025 12.8488L49.8542 11.1393C50.3212 10.8691 50.7942 10.6079 51.2553 10.328C51.2754 10.3159 51.296 10.3044 51.3164 10.2926C51.7328 10.0517 51.3569 9.40384 50.9392 9.64571H50.9405Z" fill="#453C3A"/>
<path id="Vector_15" d="M15.2225 30.4676L10.885 27.9557L3.967 23.9507L2.3729 23.0284C1.95574 22.7869 1.57894 23.4342 1.99572 23.6755L6.3334 26.1864L13.2514 30.192L14.8451 31.1147C15.2624 31.3564 15.6393 30.7089 15.2225 30.4676Z" fill="#453C3A"/>
<path id="Vector_16" d="M18.6443 23.461C18.628 24.0372 17.782 24.3277 17.2934 24.4268C16.5318 24.5816 15.6216 24.5038 14.9582 24.0688C14.8508 24.0099 14.7572 23.9287 14.6837 23.8304C14.6102 23.7322 14.5586 23.6194 14.5323 23.4995C14.537 23.3959 14.5641 23.2945 14.6118 23.2025C14.6595 23.1106 14.7267 23.0301 14.8086 22.9668C15.3702 22.4662 16.2693 22.3793 16.9829 22.4479C17.5331 22.5009 18.6254 22.7875 18.6443 23.461C18.6577 23.9422 19.4048 23.9442 19.3914 23.461C19.3643 22.4919 18.3618 21.9579 17.5279 21.7798C16.526 21.5658 15.3096 21.6606 14.463 22.2897C14.1237 22.5165 13.8874 22.8685 13.8054 23.269C13.7781 23.4772 13.7998 23.6889 13.8689 23.8872C13.9379 24.0854 14.0523 24.2647 14.2029 24.4105C14.922 25.1581 16.1563 25.3301 17.1359 25.2062C18.0769 25.0871 19.3605 24.588 19.3921 23.461C19.4058 22.9786 18.6585 22.979 18.6443 23.461Z" fill="#453C3A"/>
<path id="Vector_17" d="M33.8213 5.95843V1.33854C33.8213 0.946597 33.2724 0.628662 32.5952 0.628662C31.918 0.628662 31.3691 0.947159 31.3691 1.33854V5.95843C31.3691 6.35055 31.918 6.66849 32.5952 6.66849C33.2724 6.66849 33.8213 6.35055 33.8213 5.95843Z" fill="white"/>
<path id="Vector_18" d="M33.448 1.33919V5.79027C33.4525 5.84639 33.4525 5.90277 33.448 5.95889C33.4237 6.01751 33.3829 6.06777 33.3306 6.10353C33.1914 6.19392 33.034 6.25222 32.8696 6.2742C32.5265 6.34571 32.1691 6.28611 31.8675 6.10708C31.7659 6.03421 31.7472 6.00329 31.7431 5.91505C31.7078 5.1634 31.7431 4.40163 31.7431 3.64923V1.33919C31.7431 0.857133 30.9958 0.856196 30.9958 1.33919C30.9958 2.86591 30.9525 4.39882 30.9958 5.9246C31.0145 6.59232 31.6521 6.93143 32.2439 7.01536C32.9486 7.11541 34.1231 6.89789 34.1928 6.00367C34.2098 5.78428 34.1952 5.55908 34.1952 5.33932V1.33919C34.1952 0.857133 33.448 0.856196 33.448 1.33919Z" fill="#453C3A"/>
<path id="Vector_19" d="M31.7431 1.33876C31.7452 1.26851 31.7353 1.36349 31.736 1.36593C31.7368 1.36836 31.7437 1.31872 31.747 1.31853L31.7547 1.29586L31.736 1.3397C31.7444 1.32527 31.7513 1.30972 31.7599 1.2953C31.7685 1.28087 31.7786 1.26645 31.7887 1.25221C31.7792 1.26588 31.7353 1.30654 31.7818 1.26588C31.7958 1.25349 31.8091 1.24035 31.8218 1.22654C31.867 1.17708 31.7896 1.24284 31.8259 1.22017C31.8621 1.1975 31.8948 1.17371 31.9314 1.1531C31.9501 1.14242 31.9699 1.13212 31.9895 1.12256C31.9983 1.11806 32.0622 1.08996 32.0222 1.10645C31.9849 1.12181 32.0394 1.10064 32.0426 1.09952C32.0652 1.09183 32.0878 1.08359 32.1106 1.07647C32.1703 1.05782 32.231 1.04232 32.2923 1.03001C32.3178 1.02476 32.3435 1.02027 32.3691 1.01614C32.3518 1.01896 32.3095 1.02158 32.3887 1.01427C32.4437 1.00921 32.4984 1.00565 32.5535 1.00453C32.6025 1.00453 32.6514 1.00453 32.7004 1.00678C32.7278 1.00809 32.7551 1.00996 32.7824 1.0124C32.7999 1.01408 32.8732 1.0242 32.8223 1.01614C32.9218 1.03164 33.0198 1.05558 33.1153 1.08771C33.1377 1.09539 33.1599 1.10345 33.182 1.11207C33.1668 1.10626 33.1242 1.08247 33.187 1.11507C33.2304 1.13755 33.2733 1.15928 33.3146 1.1857C33.3318 1.19675 33.3482 1.20949 33.3654 1.22017C33.4089 1.24734 33.3297 1.17745 33.3589 1.21699C33.3662 1.22654 33.4502 1.31066 33.4149 1.26926C33.3796 1.22785 33.4351 1.30467 33.4437 1.31741C33.4777 1.36836 33.4394 1.30972 33.4362 1.29586C33.4392 1.30935 33.4598 1.35207 33.4549 1.36649C33.4564 1.36274 33.4435 1.27019 33.448 1.33933C33.4517 1.39778 33.4557 1.31366 33.4549 1.31235C33.4713 1.33914 33.3938 1.43525 33.4549 1.33895C33.4394 1.36312 33.423 1.39085 33.4097 1.41595C33.388 1.45698 33.4571 1.3753 33.4183 1.40265C33.4003 1.41753 33.3839 1.43416 33.3692 1.4523C33.3271 1.49839 33.3639 1.45979 33.3772 1.44968C33.3611 1.46185 33.3441 1.47347 33.3273 1.48471C33.2915 1.50812 33.2545 1.52957 33.2163 1.54897C33.1965 1.55909 33.1762 1.56883 33.1558 1.57782C33.1711 1.57108 33.2176 1.55572 33.1483 1.57913C33.0964 1.59693 33.0445 1.61379 32.9912 1.62747C32.9099 1.65191 32.8259 1.66601 32.7411 1.66944C32.6235 1.6769 32.5055 1.67528 32.3882 1.66457C32.3809 1.66457 32.3148 1.65426 32.3686 1.66269C32.3364 1.65763 32.3047 1.65145 32.2729 1.6449C32.218 1.63309 32.1636 1.61923 32.11 1.60237C32.0872 1.59506 32.0648 1.58644 32.042 1.57913C31.9772 1.55853 32.0543 1.58738 32.0192 1.5707C31.9747 1.55024 31.9313 1.52729 31.8894 1.50195C31.8718 1.49089 31.855 1.47909 31.8376 1.46785C31.7629 1.41951 31.8786 1.51562 31.8212 1.45267C31.8092 1.43975 31.7941 1.42438 31.7812 1.41314C31.7323 1.37024 31.7956 1.44949 31.7812 1.41633C31.7747 1.40508 31.7676 1.3942 31.7599 1.38373C31.7343 1.34101 31.7476 1.31815 31.7549 1.38373C31.7532 1.36893 31.744 1.3515 31.7411 1.33708C31.7261 1.26364 31.7455 1.42139 31.7433 1.34026C31.7433 1.24089 31.7039 1.14558 31.6339 1.07531C31.5638 1.00504 31.4688 0.96556 31.3697 0.96556C31.2706 0.96556 31.1755 1.00504 31.1055 1.07531C31.0354 1.14558 30.996 1.24089 30.996 1.34026C31.0127 1.91037 31.5526 2.2521 32.056 2.36432C32.6083 2.4876 33.2836 2.44039 33.7549 2.09772C33.9702 1.95794 34.1225 1.73929 34.1792 1.48846C34.2013 1.35299 34.191 1.21419 34.1491 1.08352C34.1071 0.952845 34.0348 0.834062 33.938 0.736992C33.5479 0.318824 32.8694 0.205664 32.3286 0.271237C31.744 0.342056 31.0158 0.65081 30.9958 1.33914C30.9966 1.43827 31.0362 1.53313 31.1061 1.60323C31.176 1.67333 31.2706 1.71306 31.3695 1.71384C31.4681 1.71197 31.5621 1.67183 31.6317 1.60189C31.7014 1.53194 31.7413 1.43762 31.7431 1.33876Z" fill="#453C3A"/>
<path id="Vector_20" d="M35.4287 3.57875V3.48507C35.4287 3.41566 35.4105 3.34746 35.3759 3.28731C35.3414 3.22717 35.2917 3.1772 35.2318 3.14241L34.1109 2.49323C34.051 2.45848 33.983 2.44019 33.9138 2.44019C33.8446 2.44019 33.7766 2.45848 33.7167 2.49323L33.259 2.75834C33.199 2.79304 33.1491 2.84298 33.1145 2.90313C33.0798 2.96328 33.0615 3.03153 33.0615 3.101V3.19468C33.0615 3.26415 33.0798 3.33241 33.1144 3.39256C33.1491 3.45272 33.199 3.50265 33.259 3.53734L34.3788 4.18614C34.4388 4.22085 34.5068 4.23912 34.5761 4.23912C34.6454 4.23912 34.7135 4.22085 34.7735 4.18614L35.2305 3.92179C35.2906 3.88712 35.3406 3.83715 35.3754 3.77693C35.4102 3.71671 35.4286 3.64835 35.4287 3.57875Z" fill="white"/>
<path id="Vector_21" d="M35.8017 3.57798C35.8126 3.40573 35.7737 3.23399 35.6897 3.08337C35.5788 2.93021 35.4315 2.80737 35.2611 2.7261L34.4204 2.23898C34.2563 2.12439 34.0599 2.06532 33.86 2.07037C33.7171 2.0869 33.5798 2.13543 33.4581 2.21238C33.2756 2.30331 33.102 2.4112 32.9395 2.53462C32.8557 2.61751 32.7899 2.71684 32.746 2.82642C32.7022 2.93599 32.6814 3.05345 32.685 3.17145C32.6885 3.28945 32.7162 3.40545 32.7664 3.51221C32.8167 3.61898 32.8883 3.7142 32.9769 3.79194C33.0923 3.87442 33.213 3.94915 33.3382 4.01563C33.6309 4.18519 33.92 4.38228 34.2256 4.52748C34.3414 4.58463 34.4692 4.61278 34.5982 4.60952C34.7273 4.60626 34.8535 4.57168 34.9663 4.50874C35.0461 4.46565 35.1236 4.41788 35.2021 4.37235C35.2746 4.33038 35.3491 4.29085 35.4201 4.24626C35.5346 4.17623 35.6296 4.07847 35.6966 3.96195C35.7635 3.84544 35.8002 3.71392 35.8032 3.57948C35.8025 3.48034 35.7628 3.38549 35.6929 3.31539C35.623 3.24529 35.5285 3.20556 35.4296 3.20478C35.3311 3.20679 35.2373 3.24691 35.1676 3.31675C35.098 3.38659 35.058 3.48073 35.056 3.57948L35.0543 3.6147C35.0588 3.57236 35.0557 3.5728 35.0451 3.61601L35.0539 3.58847C35.0308 3.62594 35.0296 3.62594 35.0502 3.59391C35.0945 3.54969 35.0435 3.59859 35.0259 3.60908C34.9629 3.64655 34.8987 3.68271 34.835 3.71943C34.7649 3.76009 34.693 3.79868 34.6241 3.84158C34.6123 3.84889 34.5998 3.85638 34.5867 3.86275C34.6102 3.85076 34.6241 3.86463 34.5697 3.86763C34.6071 3.86425 34.6039 3.86332 34.5583 3.86482C34.5957 3.87044 34.5922 3.86788 34.5478 3.85713C34.5833 3.88561 34.5361 3.84477 34.5221 3.83671L34.3539 3.73873L33.9071 3.47981L33.5147 3.25218C33.4931 3.23981 33.4714 3.22745 33.4499 3.21471C33.3769 3.17124 33.4376 3.20422 33.443 3.20965L33.4576 3.23288C33.4369 3.19466 33.4337 3.19429 33.4481 3.23176L33.4378 3.19897C33.4395 3.24206 33.4395 3.24094 33.4378 3.19541V3.10173C33.4398 3.05621 33.4398 3.05508 33.4378 3.09817C33.4565 3.02099 33.4055 3.12365 33.4576 3.06426C33.4419 3.083 33.3857 3.12047 33.4497 3.083L33.4766 3.06745C33.5502 3.0238 33.6248 2.98164 33.6989 2.93874C33.7587 2.90408 33.8245 2.87354 33.8807 2.83345C33.8925 2.8252 33.9196 2.79729 33.8874 2.82408L33.9233 2.81359C33.886 2.81677 33.8889 2.81752 33.9345 2.81621C33.8736 2.78698 33.9825 2.8475 33.9244 2.81752C34.1886 2.9541 34.4423 3.11728 34.6997 3.26717C34.8146 3.33386 34.9306 3.39831 35.0448 3.46726C35.109 3.50473 35.0522 3.46726 35.0367 3.44852C35.0574 3.48674 35.0605 3.48712 35.0461 3.44965C35.0565 3.49299 35.0595 3.49336 35.055 3.45077C35.0588 3.49351 35.0593 3.53647 35.0567 3.57929C35.0567 3.67867 35.0961 3.77398 35.1662 3.84425C35.2362 3.91452 35.3313 3.95399 35.4304 3.95399C35.5295 3.95399 35.6245 3.91452 35.6946 3.84425C35.7646 3.77398 35.804 3.67867 35.804 3.57929L35.8017 3.57798Z" fill="#453C3A"/>
</g>
<defs>
<clipPath id="clip0_141_2460">
<rect width="53.2894" height="45.848" fill="white" transform="translate(0 0.171631)"/>
</clipPath>
</defs>
</svg>
