<svg width="54" height="40" viewBox="0 0 54 40" fill="none" xmlns="http://www.w3.org/2000/svg">
<g id="12664_color 1" clip-path="url(#clip0_141_2431)">
<path id="Vector" d="M36.6438 24.9275V7.93672C36.6432 7.78851 36.6818 7.64277 36.7558 7.51446C36.8298 7.38615 36.9364 7.27987 37.0649 7.20653L39.9559 5.53242C40.1351 5.4285 40.3384 5.37378 40.5453 5.37378C40.7523 5.37378 40.9556 5.4285 41.1347 5.53242L53.1969 12.5165C53.3256 12.5902 53.4325 12.697 53.5065 12.8258C53.5805 12.9546 53.6191 13.1009 53.6181 13.2496V30.24C53.6189 30.3882 53.5802 30.534 53.5062 30.6623C53.4322 30.7906 53.3254 30.8969 53.1969 30.9701L50.3034 32.6444C50.1242 32.7482 49.9209 32.8028 49.714 32.8028C49.5071 32.8028 49.3038 32.7482 49.1246 32.6444L37.0649 25.6619C36.9359 25.5881 36.829 25.4811 36.755 25.352C36.6809 25.2229 36.6426 25.0764 36.6438 24.9275Z" fill="white"/>
<path id="Vector_2" d="M12.5852 0.977795V6.51219C11.0236 7.41474 7.28604 9.57851 5.72461 10.4828C5.72461 8.83587 5.72461 5.29481 5.72461 4.5336L12.5852 0.561279V0.977795Z" fill="#D9D9D9"/>
<path id="Vector_3" d="M6.00686 10.3197L5.72559 10.4826C5.72559 9.49525 5.72559 7.82842 5.72559 6.4881L5.77084 6.46186L12.5854 2.51636V6.51165C11.1111 7.36422 7.69719 9.3407 6.00686 10.3197Z" fill="white"/>
<path id="Vector_4" d="M36.6438 7.93672C36.6431 7.78851 36.6818 7.64277 36.7558 7.51446C36.8298 7.38615 36.9364 7.27987 37.0649 7.20653L39.9559 5.53242C40.1351 5.4285 40.3384 5.37378 40.5453 5.37378C40.7523 5.37378 40.9555 5.4285 41.1347 5.53242L53.1969 12.5165C53.325 12.5906 53.4313 12.6973 53.5053 12.8257C53.5793 12.9541 53.6182 13.0998 53.6182 13.2481C53.6182 13.3964 53.5793 13.5421 53.5053 13.6705C53.4313 13.799 53.325 13.9056 53.1969 13.9797L50.3034 15.6542C50.1242 15.7581 49.9209 15.8127 49.714 15.8127C49.507 15.8127 49.3038 15.7581 49.1246 15.6542L37.0649 8.67037C36.9361 8.59657 36.8292 8.48971 36.7552 8.36078C36.6812 8.23185 36.6428 8.08548 36.6438 7.93672Z" fill="white"/>
<path id="Vector_5" d="M53.236 13.2486V30.0624C53.2585 30.22 53.2267 30.3805 53.1459 30.5174C53.0204 30.6838 52.7579 30.7807 52.5812 30.8828L51.8543 31.3041L50.5703 32.047C50.2029 32.2595 49.8256 32.5483 49.3864 32.3495C49.3423 32.3304 49.2999 32.302 49.2577 32.2779C47.8935 31.4991 46.5383 30.7036 45.1789 29.9163L39.2041 26.457L37.4702 25.453C37.3253 25.3912 37.1969 25.2963 37.0952 25.1757C37.0301 25.0387 37.0059 24.8857 37.0255 24.7352V7.93614C37.0255 7.44322 36.2617 7.44245 36.2617 7.93614V24.2521C36.2617 24.8398 36.1939 25.4585 36.7135 25.8785C37.07 26.13 37.4449 26.354 37.8352 26.5487L43.4379 29.7928L48.5042 32.7262C48.6397 32.8047 48.7745 32.885 48.9111 32.9618C49.133 33.0898 49.3812 33.1652 49.6367 33.1822C50.1607 33.2145 50.5842 32.9227 51.0173 32.6722L52.3093 31.9253L52.966 31.5454C53.2074 31.4297 53.4331 31.2836 53.6378 31.1107C53.7617 30.9792 53.8576 30.8237 53.9197 30.6539C53.9818 30.484 54.0088 30.3032 53.9991 30.1225V13.2486C53.9991 12.7557 53.2352 12.7549 53.2352 13.2486H53.236Z" fill="#453C3A"/>
<path id="Vector_6" d="M37.0259 7.93616C37.0417 7.51869 37.664 7.30133 37.9709 7.12362L39.6091 6.17511C40.0428 5.92386 40.4623 5.59161 40.9746 5.88039C41.5633 6.21265 42.145 6.55812 42.7301 6.89688L52.6498 12.6404C52.954 12.8166 53.4394 13.0636 53.1653 13.4945C53.0508 13.6762 52.7955 13.7678 52.6142 13.8725L51.855 14.3132L50.4494 15.1265C50.0768 15.3421 49.7396 15.5478 49.3161 15.3205C48.888 15.0918 48.4732 14.8325 48.0531 14.5891L41.7344 10.9314C40.2517 10.0731 38.7555 9.23493 37.2852 8.35517C37.2086 8.31533 37.1442 8.2555 37.0986 8.18199C37.0531 8.10848 37.0283 8.02401 37.0266 7.9375C37.0075 7.44611 36.2437 7.44362 36.2628 7.9375C36.2743 8.17851 36.3501 8.412 36.4824 8.61356C36.6146 8.81511 36.7984 8.97734 37.0146 9.08326L37.7664 9.51835L40.6019 11.1603L47.4058 15.0983C47.9103 15.3906 48.4098 15.6947 48.9206 15.9754C49.2608 16.1701 49.6597 16.2348 50.0438 16.1577C50.55 16.0514 51.0343 15.6721 51.476 15.4162C52.0066 15.1098 52.5371 14.8029 53.0676 14.4955C53.2948 14.3863 53.5036 14.2421 53.6865 14.0682C53.8879 13.8427 53.9997 13.5508 54.0004 13.248C54.0004 12.653 53.611 12.3122 53.1382 12.0385L51.8955 11.3188L49.2533 9.7899L43.8817 6.67972L41.8221 5.48705C41.4516 5.27257 41.0989 5.03357 40.6597 4.99642C40.3128 4.97732 39.9686 5.06694 39.6748 5.25284C38.7473 5.79 37.8099 6.31261 36.8913 6.86471C36.7031 6.97386 36.5462 7.12997 36.436 7.31789C36.3257 7.5058 36.2658 7.71912 36.2621 7.93712C36.2432 8.42966 37.007 8.4289 37.0259 7.93616Z" fill="#453C3A"/>
<path id="Vector_7" d="M23.3477 23.7954C23.825 27.476 24.3112 31.3997 24.9112 36.0553C25.0719 36.6362 25.3623 37.1728 25.7603 37.6245C26.1583 38.0763 26.6536 38.4313 27.2086 38.6628C32.1764 40.7601 37.7191 38.8066 39.6916 37.928C42.1452 36.8351 45.9928 34.9572 48.3761 33.4865C48.6722 33.3102 48.9182 33.0605 49.0904 32.7614C49.2626 32.4622 49.3552 32.1237 49.3593 31.7783V19.5222L23.3477 23.7954Z" fill="white"/>
<path id="Vector_8" d="M22.9656 23.795C23.2838 26.2435 23.596 28.6928 23.9022 31.1427C24.0742 32.4997 24.2471 33.8567 24.4208 35.2137C24.4463 35.5492 24.4923 35.8828 24.5585 36.2127C24.6278 36.4587 24.7211 36.6973 24.8371 36.9249C25.0759 37.4136 25.4054 37.8522 25.8079 38.2172C26.7299 39.0491 28.0106 39.433 29.2014 39.6854C30.4135 39.9366 31.6528 40.0299 32.8887 39.9631C34.9354 39.8481 36.9519 39.4144 38.8656 38.6775C40.6987 37.9822 42.4685 37.0779 44.2175 36.1968C45.2767 35.6633 46.3283 35.1129 47.3604 34.5283C48.2798 34.0076 49.3249 33.5219 49.6484 32.4243C49.726 32.1083 49.7572 31.7826 49.7408 31.4576V19.5218C49.7408 19.0289 48.977 19.0281 48.977 19.5218V31.6512C48.9874 31.9135 48.9371 32.1747 48.8301 32.4144C48.723 32.654 48.5621 32.8656 48.36 33.0325C47.9603 33.3213 47.5381 33.5774 47.0974 33.7985C46.6088 34.0772 46.1161 34.3482 45.6191 34.6116C43.6695 35.65 41.6846 36.6205 39.6643 37.523C38.1301 38.2033 36.5183 38.6921 34.8653 38.9784C32.5416 39.3759 30.1042 39.3156 27.87 38.5117C27.313 38.3355 26.7959 38.0513 26.3481 37.6752C25.9861 37.3478 25.6921 36.9518 25.4833 36.5099C25.2337 35.9866 25.2102 35.4122 25.1375 34.8439C25.0493 34.156 24.9614 33.4679 24.874 32.7797C24.5634 30.3377 24.2532 27.8955 23.9435 25.4532C23.8727 24.9002 23.8013 24.3472 23.7294 23.7942C23.7263 23.6936 23.685 23.598 23.6141 23.5269C23.5431 23.4557 23.4478 23.4144 23.3475 23.4112C23.2464 23.4118 23.1496 23.4524 23.0781 23.5241C23.0066 23.5958 22.9662 23.6928 22.9656 23.7942V23.795Z" fill="#453C3A"/>
<path id="Vector_9" d="M49.3588 19.2841C49.3588 19.6049 49.3588 19.7801 48.9145 20.2098C46.6209 22.3474 41.953 25.4604 39.234 26.781C36.7812 27.9677 34.058 28.4791 31.3432 28.2629L30.7274 28.2054C28.827 28.03 27.0712 27.5114 25.7104 26.7236C24.3497 25.9357 23.3745 24.784 23.2605 23.203C23.1711 21.9609 23.9875 20.4262 25.8512 19.0139C28.7218 16.8386 33.0183 14.2819 35.2927 12.3223C35.653 12.012 36.1005 11.8215 36.5734 11.7773C37.0463 11.733 37.5212 11.8371 37.9325 12.0752L48.9145 18.4331C49.0425 18.537 49.148 18.6661 49.2245 18.8125C49.3009 18.9588 49.3466 19.1194 49.3588 19.2841Z" fill="white"/>
<path id="Vector_10" d="M48.9768 19.2847C48.9902 19.3655 48.9847 19.4482 48.9607 19.5265C48.9367 19.6048 48.8949 19.6764 48.8385 19.7357C48.666 19.9297 48.478 20.1093 48.2765 20.2728C47.858 20.6426 47.4256 20.9967 46.9864 21.3416C45.9857 22.1279 44.9455 22.8654 43.8888 23.5739C42.8422 24.2758 41.7751 24.9493 40.6807 25.5751C39.6563 26.1848 38.5768 26.696 37.4565 27.1021C34.8677 27.9779 32.0961 28.1627 29.4144 27.6384C27.1266 27.2025 23.9199 26.0426 23.6524 23.3104C23.5458 22.2235 24.1357 21.2254 24.8398 20.4465C25.7777 19.4086 26.9945 18.6322 28.1389 17.844C30.3841 16.2978 32.7124 14.8566 34.8591 13.1714C35.2874 12.8351 35.6877 12.4 36.2201 12.2374C36.4723 12.1606 36.7375 12.1361 36.9995 12.1656C37.2615 12.195 37.5147 12.2778 37.7437 12.4088C37.9537 12.527 38.1605 12.6503 38.3691 12.7709L41.8605 14.7924L46.1812 17.2948C47.0076 17.7735 47.8234 18.2858 48.6667 18.7341C48.6846 18.7432 48.7021 18.7533 48.719 18.7644C48.7322 18.7732 48.719 18.7644 48.6892 18.7418C48.733 18.7777 48.7724 18.8188 48.8064 18.8641C48.9033 18.9847 48.9626 19.1313 48.9768 19.2854C49.0016 19.7761 49.7654 19.7789 49.7406 19.2854C49.73 19.0498 49.6656 18.8197 49.5522 18.613C49.4388 18.4063 49.2796 18.2285 49.0868 18.0933C49.0008 18.0378 48.9086 17.9901 48.8194 17.939L47.5352 17.1954L43.2653 14.722L39.2324 12.3872L38.2203 11.8016C37.8325 11.5647 37.3926 11.4274 36.9393 11.4016C36.486 11.3759 36.0333 11.4626 35.6214 11.6541C35.0936 11.9017 34.6613 12.3644 34.2028 12.7189C33.6809 13.1225 33.1447 13.5078 32.6047 13.887C31.4109 14.7248 30.1939 15.5289 28.9848 16.3442C27.7969 17.1452 26.6005 17.9453 25.4712 18.8279C24.408 19.6585 23.3969 20.7407 23.0116 22.0685C22.6745 23.2298 22.994 24.5243 23.707 25.4815C24.5358 26.5941 25.7693 27.2854 27.0422 27.7709C28.3508 28.2393 29.717 28.5264 31.1031 28.6244C32.5852 28.7646 34.0798 28.6918 35.5414 28.4082C36.9721 28.1272 38.358 27.6522 39.6609 26.9961C40.7336 26.4572 41.7684 25.8413 42.7847 25.2026C44.9654 23.8321 47.1369 22.3493 49.0447 20.6093C49.4599 20.2307 49.7391 19.8624 49.7398 19.2847C49.7412 18.7918 48.9773 18.791 48.9768 19.2847Z" fill="#453C3A"/>
<path id="Vector_11" d="M35.9414 15.433L38.3856 16.8482L42.2862 19.1067L43.1881 19.629C43.6147 19.8758 43.9997 19.2142 43.5736 18.9675L41.1294 17.5523L37.2288 15.2938L36.3269 14.7715C35.9005 14.5247 35.5154 15.1863 35.9414 15.433Z" fill="#453C3A"/>
<path id="Vector_12" d="M41.2048 28.3359C39.2452 29.3939 37.1806 30.241 34.9833 30.6468C33.0428 31.0039 31.0497 30.9561 29.1285 30.5062C27.9978 30.2636 26.9254 29.8011 25.9722 29.1448C25.8845 29.0943 25.7806 29.0804 25.6828 29.1061C25.585 29.1318 25.5012 29.195 25.4495 29.2821C25.4007 29.3704 25.3876 29.4741 25.4132 29.5718C25.4387 29.6694 25.5009 29.7534 25.5866 29.8062C27.2363 31.0029 29.2935 31.4085 31.2794 31.5901C33.5725 31.8007 35.8799 31.3773 38.0392 30.6083C39.2623 30.163 40.4497 29.6244 41.5909 28.9973C42.024 28.7635 41.6387 28.1021 41.2056 28.3359H41.2048Z" fill="#453C3A"/>
<path id="Vector_13" d="M15.4551 8.92456L15.4795 8.93873L20.2135 11.6791V17.0944L15.4795 14.3538C15.4795 14.3538 15.4673 9.74266 15.4551 9.73557V8.92456Z" fill="#D9D9D9"/>
<path id="Vector_14" d="M19.8317 11.6792V17.0945L20.4063 16.7638L15.6723 14.0232C15.2459 13.7771 14.8608 14.438 15.287 14.6847L20.02 17.4252C20.0782 17.4583 20.144 17.4755 20.2109 17.4753C20.2778 17.4751 20.3435 17.4575 20.4016 17.4241C20.4596 17.3908 20.508 17.3429 20.542 17.2851C20.576 17.2273 20.5945 17.1616 20.5955 17.0945V11.6792C20.5955 11.1865 19.8317 11.1855 19.8317 11.6792Z" fill="#453C3A"/>
<path id="Vector_15" d="M11.209 15.6547L16.3703 12.6654C16.6647 12.4948 17.081 12.5084 17.5712 12.7945C18.6215 13.4073 19.137 14.707 19.1344 15.5257C19.1326 15.9889 18.9883 16.3528 18.7057 16.5163L13.5444 19.5049L11.209 15.6547Z" fill="white"/>
<path id="Vector_16" d="M11.4008 15.9844C13.1042 14.9982 14.7998 13.9969 16.5112 13.0256C17.1467 12.6648 17.9242 13.4813 18.2382 13.9672C18.477 14.3335 18.6413 14.7435 18.7217 15.1736C18.7789 15.4894 18.8059 15.9779 18.5116 16.1848C18.284 16.3447 18.021 16.4688 17.7808 16.608L16.1367 17.5599L13.3507 19.1741C12.925 19.4204 13.3092 20.0826 13.7362 19.8354L16.2759 18.365C17.147 17.8608 18.0455 17.3864 18.896 16.8481C19.7608 16.3006 19.5699 15.0455 19.2363 14.2393C18.8391 13.2789 17.9569 12.2031 16.8302 12.1711C16.3853 12.1586 16.0233 12.4227 15.6559 12.6355L14.0469 13.5673L11.0153 15.323C10.5897 15.5695 10.9739 16.2315 11.4008 15.9844Z" fill="#453C3A"/>
<path id="Vector_17" d="M13.5441 19.5046C13.2693 19.6636 12.8645 19.6346 12.3336 19.3244C11.3943 18.7761 10.7386 17.6446 10.7422 16.6281C10.7439 16.1775 10.9154 15.8238 11.2087 15.6535C11.502 15.4833 11.9196 15.4965 12.4096 15.7826C13.4599 16.3954 13.9754 17.6951 13.9728 18.5138C13.9711 18.977 13.8267 19.3409 13.5441 19.5046Z" fill="white"/>
<path id="Vector_18" d="M13.3513 19.173C13.2478 19.2289 13.3855 19.1661 13.3192 19.1897C13.2877 19.2009 13.2552 19.2095 13.2222 19.2151C13.2625 19.2084 13.1332 19.2151 13.1061 19.2134C12.9468 19.1916 12.7928 19.1403 12.652 19.0623C12.2128 18.826 11.8416 18.4804 11.574 18.0586C11.3065 17.6368 11.1517 17.1531 11.1244 16.654C11.1231 16.3962 11.1851 16.0784 11.4408 15.9625C11.6751 15.8562 12.0206 15.992 12.2642 16.1412C12.7771 16.4759 13.1695 16.9666 13.3838 17.5414C13.4949 17.8151 13.5638 18.1042 13.5881 18.3988C13.6018 18.6719 13.5658 19.0393 13.3515 19.1734C12.9352 19.4335 13.3181 20.0964 13.737 19.8347C14.4881 19.3653 14.4327 18.3118 14.2005 17.5673C13.9571 16.7452 13.443 16.03 12.7422 15.5387C12.3312 15.2627 11.8118 15.0745 11.3154 15.1992C11.1014 15.2605 10.9072 15.3769 10.7518 15.5366C10.5965 15.6964 10.4855 15.8941 10.4297 16.1101C10.1778 16.9719 10.5634 17.9911 11.0772 18.6793C11.6279 19.4185 12.7685 20.358 13.7363 19.8343C14.1696 19.6003 13.7844 18.9386 13.3513 19.173Z" fill="#453C3A"/>
<path id="Vector_19" d="M4.85059 19.3335L10.0117 16.3449C10.3062 16.1745 10.7226 16.1881 11.2126 16.4742C12.2629 17.087 12.7784 18.3867 12.7758 19.2054C12.774 19.6684 12.6297 20.0325 12.3471 20.196L7.18577 23.1844L4.85059 19.3335Z" fill="white"/>
<path id="Vector_20" d="M5.04334 19.6641C6.74665 18.6781 8.44232 17.6767 10.1537 16.7053C10.7892 16.3447 11.5667 17.1612 11.8806 17.6471C12.1195 18.0133 12.2839 18.4233 12.3641 18.8535C12.4214 19.1693 12.4484 19.6578 12.1541 19.8646C11.9267 20.0244 11.6635 20.1486 11.4233 20.2879L9.7792 21.2398L6.99317 22.8546C6.56753 23.101 6.95173 23.7632 7.37871 23.516L9.9184 22.0457C10.7893 21.5414 11.6878 21.0671 12.5385 20.5286C13.4031 19.9813 13.2122 18.7262 12.8786 17.9199C12.4814 16.9596 11.5992 15.8837 10.4726 15.8517C10.0276 15.8395 9.66558 16.1036 9.29818 16.3163L7.68958 17.2478L4.6578 19.0029C4.23235 19.2492 4.61636 19.9114 5.04334 19.6641Z" fill="#453C3A"/>
<path id="Vector_21" d="M7.18665 23.1851C6.91206 23.3442 6.50724 23.3151 5.97619 23.0051C5.03708 22.4568 4.38115 21.3252 4.38478 20.3087C4.3865 19.8581 4.55798 19.5044 4.85147 19.3342C5.14497 19.1639 5.56221 19.1772 6.05219 19.4633C7.10244 20.0761 7.61802 21.3758 7.61535 22.1945C7.61363 22.6577 7.46927 23.0215 7.18665 23.1851Z" fill="white"/>
<path id="Vector_22" d="M6.99378 22.8536C6.89028 22.9097 7.02796 22.8469 6.96189 22.8702C6.9303 22.8816 6.89777 22.8901 6.86469 22.8957C6.90498 22.8892 6.77571 22.8957 6.74859 22.8942C6.58897 22.8722 6.43477 22.8208 6.29374 22.7427C5.8545 22.5064 5.48326 22.1608 5.21572 21.739C4.94819 21.3172 4.79335 20.8335 4.7661 20.3344C4.76477 20.0766 4.82683 19.7587 5.08252 19.6429C5.31682 19.5366 5.66225 19.6724 5.9061 19.8215C6.4189 20.1563 6.81122 20.647 7.02548 21.2218C7.13673 21.4955 7.20563 21.7846 7.2298 22.0791C7.24355 22.3522 7.20765 22.7197 6.99321 22.8536C6.57692 23.1138 6.95998 23.7768 7.37874 23.515C8.12996 23.0457 8.07439 21.9922 7.84219 21.2476C7.59888 20.4257 7.08485 19.7108 6.38406 19.2196C5.97313 18.9435 5.45411 18.7553 4.95782 18.8797C4.7439 18.9411 4.54968 19.0575 4.39438 19.2173C4.23908 19.3771 4.12808 19.5749 4.07237 19.7909C3.82031 20.6527 4.20604 21.6718 4.7197 22.3601C5.27041 23.0993 6.41099 24.0388 7.37874 23.515C7.81202 23.2801 7.42686 22.6186 6.99378 22.8536Z" fill="#453C3A"/>
<path id="Vector_23" d="M1.12581 22.6435C1.12581 22.3057 1.1134 18.0532 1.10156 18.0464V17.2363L1.126 17.2223L1.60969 16.9422L15.4548 8.92456L20.2138 11.6795V12.4905C17.9752 13.786 6.33868 20.5244 5.85995 20.8017V25.4059L1.126 22.6656L1.12581 22.6435Z" fill="#D9D9D9"/>
<path id="Vector_24" d="M19.8322 11.6803V12.4913L20.0212 12.1606C18.1244 13.2585 16.228 14.3565 14.3319 15.4544L7.38193 19.4784L5.66659 20.4719C5.24114 20.7182 5.62515 21.3804 6.05213 21.1332L10.4855 18.5653L17.7851 14.3393L20.406 12.822C20.4635 12.7882 20.5113 12.7399 20.5446 12.6819C20.5779 12.6239 20.5956 12.5582 20.596 12.4913V11.6803C20.596 11.1874 19.8322 11.1866 19.8322 11.6803Z" fill="#453C3A"/>
<path id="Vector_25" d="M12.2034 0.978065V6.51246L12.3925 6.18174C10.5401 7.253 8.68784 8.32496 6.83571 9.39762L5.5313 10.1527L6.10607 10.4834C6.10607 8.5005 6.10607 6.51744 6.10607 4.53425L5.91703 4.86497L12.778 0.892272L12.2034 0.561549V0.978065C12.2034 1.4708 12.9673 1.47176 12.9673 0.978065V0.561549C12.9661 0.494569 12.9477 0.429026 12.9137 0.371338C12.8798 0.31365 12.8315 0.265795 12.7735 0.232457C12.7156 0.199119 12.65 0.181442 12.5832 0.181156C12.5164 0.18087 12.4507 0.197985 12.3925 0.230826L5.53225 4.20295C5.4748 4.23686 5.42714 4.28519 5.39396 4.34318C5.36078 4.40116 5.34322 4.46682 5.34302 4.53367C5.34302 6.51674 5.34302 8.4998 5.34302 10.4829C5.34409 10.5498 5.3625 10.6154 5.39643 10.6731C5.43036 10.7308 5.47866 10.7786 5.53659 10.812C5.59452 10.8453 5.66009 10.863 5.72688 10.8633C5.79367 10.8636 5.85939 10.8464 5.9176 10.8136C7.76973 9.74118 9.62199 8.66877 11.4744 7.59636L12.7786 6.84184C12.836 6.80792 12.8837 6.75959 12.9169 6.7016C12.95 6.64362 12.9676 6.57797 12.9678 6.51112V0.978065C12.9673 0.48514 12.2034 0.484374 12.2034 0.978065Z" fill="#453C3A"/>
<path id="Vector_26" d="M5.96347 6.7933L12.7781 2.84837C13.2037 2.60191 12.8195 1.9397 12.3925 2.18693L5.57793 6.13186C5.15248 6.37813 5.53668 7.04053 5.96347 6.7933Z" fill="#453C3A"/>
<path id="Vector_27" d="M20.4051 11.3492L15.6471 8.59429C15.5884 8.5605 15.522 8.54272 15.4543 8.54272C15.3867 8.54272 15.3202 8.5605 15.2615 8.59429L12.1837 10.3766L6.01591 13.9483L1.36407 16.6421C1.23212 16.7187 1.09673 16.7909 0.967648 16.8719C0.71387 17.0301 0.73583 17.2674 0.73583 17.5267C0.736975 18.6314 0.738439 19.7362 0.740221 20.8412C0.740985 21.33 0.741685 21.8189 0.742322 22.3077C0.742322 22.598 0.704131 22.8567 0.992663 23.0318C2.18116 23.7543 3.40251 24.4273 4.60609 25.1239L5.66513 25.7367C5.72334 25.7696 5.78908 25.7868 5.85589 25.7865C5.92271 25.7863 5.98832 25.7686 6.04628 25.7353C6.10423 25.7019 6.15255 25.654 6.1865 25.5963C6.22044 25.5386 6.23884 25.473 6.2399 25.406V20.8021C6.2399 20.3094 5.47608 20.3084 5.47608 20.8021V25.4064L6.05124 25.0761L1.31805 22.3353L1.50729 22.666C1.50499 21.1225 1.50283 19.5791 1.50079 18.0357C1.50079 17.7661 1.50079 17.4964 1.50079 17.2268L1.31175 17.5575L2.71774 16.7434L6.14538 14.7585L10.2835 12.3615L13.8683 10.2856L15.0574 9.5968C15.2516 9.49868 15.4401 9.38954 15.6219 9.26991C15.6291 9.26454 15.6383 9.26052 15.6463 9.25574H15.2615L20.0195 12.0107C20.4459 12.2577 20.8311 11.5959 20.4051 11.3492Z" fill="#453C3A"/>
<path id="Vector_28" d="M4.90487 18.9962L2.64702 17.6888C2.60371 17.6634 2.55584 17.6469 2.50615 17.64C2.45645 17.6332 2.4059 17.6362 2.35737 17.649C2.30885 17.6618 2.26331 17.684 2.22335 17.7144C2.18339 17.7448 2.14979 17.7828 2.12447 17.8262C2.07335 17.9139 2.05906 18.0184 2.08476 18.1167C2.11045 18.215 2.17402 18.299 2.26148 18.3503L4.51933 19.6577C4.60679 19.7089 4.71098 19.7233 4.80898 19.6975C4.90697 19.6717 4.99075 19.608 5.04188 19.5203C5.093 19.4325 5.10729 19.3281 5.08159 19.2298C5.0559 19.1315 4.99233 19.0475 4.90487 18.9962Z" fill="#453C3A"/>
</g>
<defs>
<clipPath id="clip0_141_2431">
<rect width="53.2637" height="39.8022" fill="white" transform="translate(0.736328 0.18042)"/>
</clipPath>
</defs>
</svg>
