<svg width="30" height="30" viewBox="0 0 30 30" fill="none" xmlns="http://www.w3.org/2000/svg">
<g id="material-symbols:recommend">
<circle id="Ellipse 7" cx="15" cy="15" r="12" fill="white"/>
<path id="Vector" d="M11.25 22.5H18.125C18.4792 22.5 18.8075 22.4113 19.11 22.2338C19.4125 22.0563 19.6258 21.8117 19.75 21.5L22.375 15.375C22.4167 15.2708 22.4479 15.1667 22.4688 15.0625C22.4896 14.9583 22.5 14.8542 22.5 14.75V13.75C22.5 13.3958 22.38 13.0987 22.14 12.8587C21.9 12.6187 21.6033 12.4992 21.25 12.5H15.5L16.25 8.25C16.2917 8.04167 16.2813 7.84375 16.2188 7.65625C16.1562 7.46875 16.0521 7.30208 15.9062 7.15625L15 6.25L9.25 12.5C9.08333 12.6667 8.95833 12.8542 8.875 13.0625C8.79167 13.2708 8.75 13.5 8.75 13.75V20C8.75 20.6875 8.995 21.2763 9.485 21.7663C9.975 22.2563 10.5633 22.5008 11.25 22.5ZM15 27.5C13.2708 27.5 11.6458 27.1717 10.125 26.515C8.60417 25.8583 7.28125 24.9679 6.15625 23.8438C5.03125 22.7188 4.14083 21.3958 3.485 19.875C2.82917 18.3542 2.50083 16.7292 2.5 15C2.5 13.2708 2.82833 11.6458 3.485 10.125C4.14167 8.60417 5.03208 7.28125 6.15625 6.15625C7.28125 5.03125 8.60417 4.14083 10.125 3.485C11.6458 2.82917 13.2708 2.50083 15 2.5C16.7292 2.5 18.3542 2.82833 19.875 3.485C21.3958 4.14167 22.7188 5.03208 23.8438 6.15625C24.9688 7.28125 25.8596 8.60417 26.5162 10.125C27.1729 11.6458 27.5008 13.2708 27.5 15C27.5 16.7292 27.1717 18.3542 26.515 19.875C25.8583 21.3958 24.9679 22.7188 23.8438 23.8438C22.7188 24.9688 21.3958 25.8596 19.875 26.5162C18.3542 27.1729 16.7292 27.5008 15 27.5Z" fill="#F08D00"/>
</g>
</svg>
