<svg width="55" height="85" viewBox="0 0 55 85" fill="none" xmlns="http://www.w3.org/2000/svg">
<path d="M10.1801 14.9975C10.4618 15.0612 10.721 15.2003 10.9298 15.4C11.1386 15.5996 11.2892 15.8522 11.3656 16.1308C11.4419 16.4094 11.441 16.7036 11.3631 16.9817C11.2852 17.2599 11.1331 17.5117 10.9231 17.7101C6.9364 21.5058 4.48051 25.9819 3.55545 31.1383C3.49577 31.4785 3.62111 31.6486 3.93146 31.6486L50.6886 31.6754C51.0467 31.6814 51.2108 31.5053 51.181 31.1473C50.7602 26.1072 47.4479 20.9776 43.7417 17.54C43.5371 17.3526 43.3855 17.1145 43.3024 16.8497C43.2193 16.585 43.2076 16.303 43.2685 16.0323C43.3293 15.7615 43.4606 15.5117 43.6491 15.308C43.8375 15.1043 44.0764 14.954 44.3415 14.8722C47.6538 13.8427 50.0441 10.0201 48.1731 6.70784C46.8392 4.33552 44.431 2.54509 41.5305 3.51192C38.1287 4.64885 36.2309 7.45087 37.144 10.9333C37.3887 11.8762 37.0753 12.5566 36.204 12.9744C35.9198 13.1075 35.6005 13.1391 35.2998 13.0639C29.9166 11.7032 24.5334 11.736 19.1501 13.1624C18.89 13.2306 18.6166 13.2294 18.3571 13.1592C18.0976 13.0889 17.861 12.9518 17.6708 12.7617C17.4807 12.5716 17.3437 12.335 17.2734 12.0754C17.2031 11.8159 17.202 11.5425 17.2702 11.2824C18.7473 5.72311 12.8926 0.656181 8.0226 4.60408C5.60552 6.56162 5.11016 9.0175 6.53654 11.9717C7.3303 13.6189 8.54481 14.6275 10.1801 14.9975Z" stroke="#7A4C00" stroke-width="1.79043"/>
<path d="M22.3185 45.6231C23.6494 45.7007 24.9594 45.7514 26.2485 45.7753C29.9905 45.8469 34.0757 45.4888 38.504 44.701C40.1632 44.4026 41.876 43.8595 43.6426 43.0718C46.9459 41.5857 49.5331 39.9295 50.8849 36.3666C51.1773 35.6027 50.9117 35.2207 50.0881 35.2207L4.17249 35.167C3.83827 35.167 3.70997 35.3281 3.78755 35.6504C4.52163 38.6583 6.57167 40.9411 9.93768 42.4988C13.9244 44.343 18.0513 45.3844 22.3185 45.6231Z" stroke="#808080" stroke-width="1.79043"/>
<path d="M14.2978 56.1775C15.0438 56.4998 15.3572 57.0638 15.2378 57.8695C14.7544 61.146 14.447 64.5448 14.3158 68.066C14.3133 68.1381 14.3255 68.2098 14.3514 68.2771C14.3773 68.3443 14.4165 68.4057 14.4666 68.4575C14.5167 68.5092 14.5767 68.5504 14.6431 68.5785C14.7095 68.6066 14.7808 68.6211 14.8529 68.6211L25.3985 68.5405C25.7029 68.5345 25.8551 68.3793 25.8551 68.075V53.7336C25.8551 53.1428 25.6343 53.0473 25.1926 53.4471L24.4317 54.1275C24.2644 54.2766 24.0683 54.3898 23.8555 54.4601C23.6427 54.5304 23.4177 54.5562 23.1945 54.5361C22.9713 54.516 22.7546 54.4502 22.5578 54.343C22.361 54.2358 22.1883 54.0893 22.0504 53.9127L18.2278 49.0427C17.9995 48.7497 17.7136 48.5066 17.3878 48.3283C17.0619 48.1499 16.7031 48.0402 16.3332 48.0058C15.9634 47.9714 15.5904 48.0131 15.2373 48.1283C14.8842 48.2435 14.5584 48.4298 14.2799 48.6756C10.1381 52.3401 8.24618 57.0966 8.60427 62.9454C8.6162 63.1006 8.69676 63.1752 8.84596 63.1692L11.1556 63.1065C11.3347 63.1065 11.4361 63.017 11.46 62.838L12.1046 58.0844C12.2299 57.1593 12.7253 56.5237 13.5906 56.1775C13.8294 56.0821 14.0651 56.0821 14.2978 56.1775Z" stroke="#7A4C00" stroke-width="1.79043"/>
<path d="M41.8074 56.2401C42.7146 56.5146 43.2159 57.1204 43.3114 58.0574L43.8217 62.9453C43.8336 63.0766 43.9052 63.1392 44.0365 63.1333L46.2746 63.1064C46.4357 63.1064 46.5193 63.0258 46.5252 62.8647C46.6625 57.5292 44.9437 52.9666 41.3688 49.1768C37.967 45.5691 34.6905 51.4417 33.0254 53.6082C32.0854 54.8346 30.7515 54.5481 29.7131 53.6171C29.2058 53.1695 28.9521 53.2859 28.9521 53.9663L28.9969 68.1017C28.9969 68.43 29.164 68.5941 29.4982 68.5941L40.3662 68.5762C40.9152 68.5762 41.1629 68.3017 41.1092 67.7526C40.763 64.2672 40.4497 61.0892 40.1692 58.2185C40.0916 57.3949 40.4378 56.7563 41.2077 56.3028C41.3867 56.1894 41.5866 56.1685 41.8074 56.2401Z" stroke="#7A4C00" stroke-width="1.79043"/>
<path d="M25.5685 49.6874C25.8132 49.4666 25.7714 49.3323 25.4431 49.2846L22.8739 48.8997C22.4979 48.8459 22.3934 48.9892 22.5605 49.3294L22.9634 50.1351C23.0827 50.3738 23.2737 50.5051 23.5363 50.529C24.2047 50.5886 24.8821 50.3081 25.5685 49.6874Z" stroke="#7A4C00" stroke-width="1.79043"/>
<path d="M29.2208 49.6781C29.7938 50.2331 30.4144 50.5375 31.0829 50.5912C31.4409 50.6211 31.7065 50.4659 31.8796 50.1257C31.9274 50.0302 31.9811 49.9377 32.0407 49.8482C32.375 49.3827 32.2556 49.1589 31.6827 49.1768L29.3909 49.2394C28.9851 49.2514 28.9284 49.3976 29.2208 49.6781Z" stroke="#7A4C00" stroke-width="1.79043"/>
<path d="M44.4807 68.192C44.6524 68.2478 44.8522 68.1927 45.0363 68.039C45.2204 67.8852 45.3737 67.6453 45.4625 67.3721C45.5065 67.2368 45.5333 67.0974 45.5414 66.9618C45.5495 66.8263 45.5387 66.6972 45.5097 66.582C45.4807 66.4668 45.434 66.3678 45.3723 66.2905C45.3106 66.2132 45.2352 66.1592 45.1502 66.1316C44.9786 66.0758 44.7787 66.1309 44.5946 66.2847C44.4105 66.4384 44.2572 66.6783 44.1684 66.9515C44.1244 67.0868 44.0976 67.2262 44.0895 67.3618C44.0814 67.4973 44.0922 67.6264 44.1212 67.7416C44.1502 67.8568 44.1969 67.9559 44.2586 68.0331C44.3203 68.1104 44.3958 68.1644 44.4807 68.192Z" stroke="#808080" stroke-width="1.79043"/>
<path d="M10.5202 68.0038C10.926 68.3798 11.1737 68.2933 11.2632 67.7442C11.3289 67.3443 11.2692 66.9713 11.0842 66.6252C11.0314 66.5247 10.9504 66.4421 10.8516 66.3879C10.7528 66.3337 10.6405 66.3103 10.5291 66.3208C9.41907 66.4223 9.41607 66.9833 10.5202 68.0038Z" stroke="#808080" stroke-width="1.79043"/>
<path d="M31.7278 74.5196C32.2709 76.8591 33.1542 79.1091 34.3776 81.2696C34.5925 81.6515 34.9147 81.7858 35.3445 81.6724C35.8577 81.5411 36.365 81.5172 36.8663 81.6008C37.7735 81.756 38.3285 81.3889 38.5314 80.4997C39.2118 77.5455 39.6146 74.7852 39.74 72.2189C39.7579 71.8967 39.6057 71.7355 39.2834 71.7355L16.2943 71.7266C15.972 71.7266 15.8377 71.8847 15.8914 72.201C16.2495 74.3316 16.5031 76.3817 16.6523 78.3512C16.706 79.0554 17.0194 80.0401 17.5923 81.3054C17.7475 81.6456 18.0071 81.7709 18.3712 81.6814C19.153 81.4844 19.9139 81.4814 20.6539 81.6724C21.0359 81.7679 21.3105 81.6396 21.4776 81.2875C22.6592 78.9002 23.5664 76.4802 24.199 74.0273C24.2443 73.849 24.3413 73.6878 24.4782 73.5637C24.615 73.4396 24.7856 73.358 24.9689 73.329C26.9384 73.0187 28.881 73.1022 30.7968 73.5797C31.0237 73.6368 31.2304 73.7547 31.3946 73.9204C31.5587 74.0862 31.674 74.2934 31.7278 74.5196Z" stroke="#808080" stroke-width="1.79043"/>
<path d="M45.1069 8.2498C45.1066 8.15575 45.0878 8.06269 45.0515 7.97593C45.0152 7.88916 44.9621 7.8104 44.8954 7.74412C44.8286 7.67785 44.7495 7.62538 44.6625 7.58969C44.5755 7.554 44.4823 7.53581 44.3882 7.53614L41.8279 7.54509C41.7339 7.54542 41.6408 7.56427 41.5541 7.60056C41.4673 7.63686 41.3885 7.68989 41.3222 7.75662C41.256 7.82336 41.2035 7.90249 41.1678 7.98951C41.1321 8.07653 41.1139 8.16972 41.1143 8.26377L41.1232 10.842C41.1236 10.936 41.1424 11.0291 41.1787 11.1159C41.215 11.2026 41.268 11.2814 41.3347 11.3477C41.4015 11.4139 41.4806 11.4664 41.5676 11.5021C41.6547 11.5378 41.7478 11.556 41.8419 11.5557L44.4022 11.5467C44.4963 11.5464 44.5893 11.5275 44.6761 11.4912C44.7629 11.4549 44.8416 11.4019 44.9079 11.3352C44.9742 11.2684 45.0266 11.1893 45.0623 11.1023C45.098 11.0153 45.1162 10.9221 45.1159 10.828L45.1069 8.2498Z" stroke="#7A4C00" stroke-width="1.79043"/>
<path d="M13.4784 8.09809C13.4781 8.03343 13.4652 7.96944 13.4402 7.90978C13.4153 7.85012 13.3788 7.79596 13.3329 7.7504C13.287 7.70484 13.2326 7.66876 13.1728 7.64423C13.1129 7.61969 13.0489 7.60719 12.9842 7.60743L10.1733 7.61727C10.1087 7.6175 10.0446 7.63045 9.985 7.6554C9.92534 7.68035 9.8712 7.71681 9.82564 7.76269C9.78008 7.80856 9.74398 7.86297 9.71945 7.92279C9.69491 7.98261 9.6824 8.04668 9.68262 8.11134L9.69284 11.0477C9.69306 11.1123 9.70602 11.1763 9.73098 11.236C9.75593 11.2956 9.7924 11.3498 9.83829 11.3953C9.88418 11.4409 9.93858 11.477 9.99841 11.5015C10.0582 11.5261 10.1223 11.5386 10.187 11.5383L12.9979 11.5285C13.0625 11.5282 13.1265 11.5153 13.1862 11.4903C13.2458 11.4654 13.3 11.4289 13.3456 11.3831C13.3911 11.3372 13.4272 11.2828 13.4517 11.223C13.4763 11.1631 13.4888 11.0991 13.4885 11.0344L13.4784 8.09809Z" stroke="#7A4C00" stroke-width="1.79043"/>
<path d="M35.4512 57.7625C36.5851 57.4581 37.4833 57.3925 38.1458 57.5656C39.8646 58.0072 40.2167 57.5447 39.2021 56.178C38.8739 55.7423 37.9488 55.62 36.427 55.8109C36.0808 55.8527 35.8928 56.0497 35.863 56.4018C35.8212 56.8912 35.6839 57.3447 35.4512 57.7625Z" stroke="#F9CC80" stroke-width="1.79043"/>
<path d="M35.4516 57.7629C35.0875 57.4764 35.0129 57.0377 35.2278 56.4469C35.4009 55.9873 35.2427 55.7456 34.7533 55.7218C34.6161 55.7098 34.4818 55.7307 34.3505 55.7844C34.2861 55.8086 34.2279 55.8467 34.18 55.896C34.1321 55.9453 34.0957 56.0046 34.0734 56.0696C34.0512 56.1347 34.0436 56.2039 34.0513 56.2722C34.0589 56.3405 34.0816 56.4063 34.1177 56.4648C34.1714 56.5543 34.1893 56.6498 34.1714 56.7513C34.1615 56.8236 34.1306 56.8915 34.0827 56.9466C34.0348 57.0017 33.9719 57.0417 33.9016 57.0616C33.8314 57.0816 33.7568 57.0806 33.6871 57.0589C33.6174 57.0372 33.5555 56.9956 33.509 56.9393C33.3598 56.7542 33.2702 56.5424 33.2404 56.3037C33.2165 56.1186 33.1121 56.0112 32.9271 55.9814C32.8376 55.9635 32.754 55.9754 32.6764 56.0172C32.4556 56.1306 32.3452 56.3126 32.3452 56.5633C32.3392 56.808 32.2557 57.0288 32.0945 57.2257C31.8976 57.4645 31.7215 57.4525 31.5664 57.1899C31.453 56.9989 31.4201 56.802 31.4679 56.5991C31.5335 56.3126 31.4619 56.0649 31.253 55.856C31.0083 55.6173 30.7129 55.6382 30.3668 55.9187C30.2261 56.0339 30.119 56.1849 30.0569 56.3559C29.9948 56.5268 29.9799 56.7113 30.0138 56.8899C30.0477 57.0686 30.1292 57.2348 30.2496 57.3711C30.37 57.5074 30.5249 57.6087 30.698 57.6644L31.5395 57.924C31.8379 58.0195 32.1304 58.0046 32.4168 57.8792C33.2225 57.5331 34.0043 57.6166 34.7623 58.1299C34.9771 58.2731 35.1532 58.2373 35.2905 58.0225L35.4516 57.7629Z" stroke="#F9CC80" stroke-width="1.79043"/>
<path d="M10.8601 46.455C6.93903 45.3867 3.79682 42.9816 1.43345 39.2396C0.457668 37.6909 0.583018 35.8915 0.05484 34.1906C-0.0287135 33.9339 -0.016797 33.6833 0.090629 33.4386C0.511381 32.427 0.278629 31.4154 0.430816 30.368C1.2007 25.2473 3.13734 21.0189 6.24076 17.6828C6.5511 17.3426 6.52724 17.0293 6.16916 16.7428C-0.965719 10.9149 2.6062 -0.624406 12.4357 0.0828152C16.5059 0.369284 19.2483 2.65209 20.6627 6.93122C20.7701 7.2535 20.7791 7.57578 20.6896 7.89805C20.6179 8.17855 20.6388 8.44115 20.7522 8.68585C20.9193 9.02603 21.1879 9.16031 21.5579 9.08869C25.4432 8.33671 29.2538 8.36058 32.9898 9.16031C33.3957 9.24983 33.6105 9.08869 33.6344 8.67689C34.3058 -0.794497 47.3133 -3.43538 51.2254 5.41831C53.1531 9.78099 52.1922 13.5499 48.3428 16.7249C48.0921 16.9338 48.0742 17.1606 48.2891 17.4053C51.8073 21.4069 54.108 26.2231 54.6362 31.3348C55.3971 38.6487 50.8226 44.4945 43.9473 46.4371C43.8898 46.4548 43.8376 46.4866 43.7956 46.5298C43.7537 46.5729 43.7233 46.6259 43.7072 46.6839C43.6912 46.7419 43.69 46.803 43.7038 46.8616C43.7176 46.9201 43.7459 46.9743 43.7861 47.019C47.9399 51.4891 49.9244 57.0484 49.7394 63.6969C49.6946 65.1024 49.05 65.9528 48.7725 67.2599C48.2175 69.8381 45.6929 71.718 43.1953 72.4969C42.8611 72.6043 42.7 72.8311 42.7119 73.1772C42.8014 76.3374 42.3717 82.6307 39.4802 84.5465C39.2116 84.7255 38.9162 84.8091 38.5939 84.7971L33.5717 84.6002C32.7541 84.5704 32.1394 84.2003 31.7276 83.4901C30.5996 81.5147 29.7074 79.3542 29.0509 77.0088C28.9673 76.7104 28.7764 76.5194 28.478 76.4358C28.096 76.3344 27.7111 76.3015 27.3231 76.3374C27.0068 76.3612 26.8099 76.5283 26.7323 76.8387C26.1295 79.0827 25.2701 81.1954 24.154 83.1768C22.9903 85.2448 19.7675 84.7434 17.7622 84.7703C16.0553 84.7942 14.9244 83.9377 14.3693 82.201C13.4383 79.3184 12.9519 76.5134 12.9101 73.786C12.8982 73.0758 12.555 72.6043 11.8806 72.3715C9.0995 71.4226 7.34787 69.665 6.62572 67.0987C6.47055 66.5318 6.18407 66.0424 5.7663 65.6306C5.58129 65.4456 5.47687 65.2247 5.45299 64.9681C4.8532 58.2182 6.43771 52.256 11.0839 47.2339C11.436 46.8519 11.3614 46.5923 10.8601 46.455ZM10.1797 14.9971C10.4615 15.0608 10.7207 15.1999 10.9295 15.3995C11.1383 15.5992 11.2889 15.8518 11.3652 16.1304C11.4415 16.409 11.4407 16.7031 11.3628 16.9813C11.2848 17.2595 11.1327 17.5112 10.9228 17.7096C6.93606 21.5053 4.48017 25.9814 3.55511 31.1379C3.49543 31.4781 3.62077 31.6481 3.93111 31.6481L50.6883 31.675C51.0464 31.681 51.2105 31.5049 51.1806 31.1468C50.7599 26.1068 47.4476 20.9772 43.7414 17.5395C43.5367 17.3522 43.3852 17.1141 43.3021 16.8493C43.219 16.5846 43.2073 16.3026 43.2681 16.0318C43.329 15.7611 43.4603 15.5113 43.6487 15.3076C43.8371 15.1039 44.076 14.9535 44.3412 14.8718C47.6535 13.8423 50.0437 10.0197 48.1727 6.70742C46.8389 4.33509 44.4307 2.54466 41.5302 3.51149C38.1284 4.64842 36.2305 7.45045 37.1437 10.9328C37.3883 11.8758 37.075 12.5562 36.2037 12.9739C35.9195 13.107 35.6002 13.1386 35.2995 13.0635C29.9163 11.7027 24.533 11.7355 19.1498 13.1619C18.8897 13.2301 18.6163 13.229 18.3568 13.1587C18.0972 13.0884 17.8606 12.9514 17.6705 12.7613C17.4803 12.5712 17.3433 12.3346 17.273 12.075C17.2027 11.8155 17.2016 11.5421 17.2698 11.282C18.7469 5.72268 12.8922 0.655754 8.02226 4.60366C5.60518 6.5612 5.10982 9.01708 6.5362 11.9713C7.32996 13.6185 8.54447 14.6271 10.1797 14.9971ZM22.3189 45.6225C23.6498 45.7001 24.9597 45.7508 26.2489 45.7747C29.9909 45.8463 34.076 45.4882 38.5044 44.7004C40.1635 44.402 41.8763 43.8589 43.6429 43.0711C46.9463 41.585 49.5335 39.9289 50.8852 36.3659C51.1777 35.602 50.9121 35.2201 50.0885 35.2201L4.17281 35.1663C3.8386 35.1663 3.71029 35.3275 3.78788 35.6498C4.52195 38.6577 6.572 40.9405 9.93801 42.4982C13.9247 44.3423 18.0517 45.3838 22.3189 45.6225ZM14.2977 56.1771C15.0437 56.4994 15.3571 57.0633 15.2377 57.869C14.7543 61.1455 14.4469 64.5444 14.3156 68.0656C14.3132 68.1376 14.3253 68.2094 14.3513 68.2766C14.3772 68.3439 14.4163 68.4052 14.4665 68.457C14.5166 68.5088 14.5766 68.5499 14.643 68.5781C14.7093 68.6062 14.7807 68.6206 14.8528 68.6206L25.3984 68.54C25.7028 68.534 25.855 68.3789 25.855 68.0745V53.7331C25.855 53.1423 25.6341 53.0468 25.1925 53.4467L24.4316 54.127C24.2643 54.2761 24.0681 54.3893 23.8553 54.4596C23.6425 54.5299 23.4176 54.5558 23.1944 54.5356C22.9712 54.5155 22.7545 54.4498 22.5577 54.3425C22.3609 54.2353 22.1882 54.0888 22.0503 53.9122L18.2277 49.0422C17.9994 48.7492 17.7135 48.5061 17.3877 48.3278C17.0618 48.1495 16.7029 48.0397 16.3331 48.0054C15.9632 47.971 15.5903 48.0127 15.2372 48.1278C14.884 48.243 14.5582 48.4293 14.2798 48.6752C10.1379 52.3396 8.24606 57.0962 8.60415 62.9449C8.61608 63.1001 8.69664 63.1747 8.84584 63.1687L11.1555 63.1061C11.3346 63.1061 11.436 63.0165 11.4599 62.8375L12.1044 58.0839C12.2298 57.1588 12.7251 56.5232 13.5905 56.1771C13.8292 56.0816 14.065 56.0816 14.2977 56.1771ZM41.8077 56.2397C42.7149 56.5143 43.2162 57.12 43.3117 58.057L43.822 62.9449C43.8339 63.0762 43.9055 63.1389 44.0368 63.1329L46.2748 63.1061C46.436 63.1061 46.5195 63.0255 46.5255 62.8643C46.6628 57.5289 44.944 52.9662 41.3691 49.1765C37.9673 45.5688 34.6908 51.4414 33.0257 53.6078C32.0857 54.8343 30.7518 54.5478 29.7133 53.6168C29.206 53.1691 28.9524 53.2855 28.9524 53.9659L28.9972 68.1014C28.9972 68.4296 29.1643 68.5937 29.4985 68.5937L40.3664 68.5758C40.9155 68.5758 41.1632 68.3013 41.1095 67.7522C40.7633 64.2668 40.45 61.0888 40.1695 58.2182C40.0919 57.3946 40.4381 56.756 41.2079 56.3024C41.387 56.189 41.5869 56.1681 41.8077 56.2397ZM25.5685 49.6868C25.8132 49.4659 25.7714 49.3317 25.4432 49.2839L22.8739 48.899C22.4979 48.8453 22.3935 48.9885 22.5606 49.3287L22.9634 50.1344C23.0828 50.3731 23.2738 50.5044 23.5363 50.5283C24.2048 50.5879 24.8822 50.3074 25.5685 49.6868ZM29.221 49.6778C29.7939 50.2328 30.4146 50.5372 31.083 50.5909C31.4411 50.6208 31.7067 50.4656 31.8798 50.1254C31.9275 50.0299 31.9812 49.9374 32.0409 49.8479C32.3751 49.3824 32.2558 49.1586 31.6828 49.1765L29.3911 49.2391C28.9852 49.2511 28.9285 49.3973 29.221 49.6778ZM44.4809 68.1916C44.6525 68.2474 44.8524 68.1923 45.0365 68.0385C45.2206 67.8848 45.3739 67.6449 45.4627 67.3717C45.5067 67.2364 45.5335 67.097 45.5416 66.9614C45.5497 66.8258 45.5389 66.6968 45.5099 66.5816C45.4809 66.4664 45.4342 66.3673 45.3725 66.29C45.3108 66.2128 45.2354 66.1588 45.1504 66.1312C44.9788 66.0754 44.7789 66.1305 44.5948 66.2842C44.4107 66.438 44.2574 66.6779 44.1686 66.9511C44.1246 67.0864 44.0978 67.2258 44.0897 67.3614C44.0816 67.4969 44.0924 67.626 44.1214 67.7412C44.1504 67.8564 44.1971 67.9554 44.2588 68.0327C44.3205 68.11 44.396 68.164 44.4809 68.1916ZM10.5199 68.0029C10.9257 68.3789 11.1734 68.2923 11.2629 67.7433C11.3286 67.3434 11.2689 66.9704 11.0839 66.6243C11.0311 66.5238 10.9501 66.4412 10.8513 66.387C10.7525 66.3328 10.6403 66.3094 10.5289 66.3199C9.41879 66.4213 9.41579 66.9823 10.5199 68.0029ZM31.7276 74.5201C32.2707 76.8596 33.154 79.1095 34.3774 81.27C34.5923 81.6519 34.9146 81.7862 35.3443 81.6728C35.8575 81.5415 36.3648 81.5177 36.8661 81.6012C37.7733 81.7564 38.3283 81.3894 38.5312 80.5001C39.2116 77.5459 39.6144 74.7856 39.7398 72.2194C39.7577 71.8971 39.6055 71.7359 39.2832 71.7359L16.2941 71.727C15.9718 71.727 15.8375 71.8851 15.8912 72.2015C16.2493 74.3321 16.5029 76.3821 16.6521 78.3516C16.7058 79.0558 17.0192 80.0406 17.5921 81.3058C17.7473 81.646 18.0069 81.7713 18.371 81.6818C19.1528 81.4848 19.9137 81.4819 20.6537 81.6728C21.0357 81.7683 21.3103 81.64 21.4774 81.2879C22.659 78.9007 23.5662 76.4806 24.1988 74.0277C24.2441 73.8494 24.3411 73.6882 24.478 73.5641C24.6148 73.44 24.7854 73.3584 24.9687 73.3294C26.9382 73.0191 28.8808 73.1026 30.7966 73.5801C31.0235 73.6373 31.2302 73.7551 31.3944 73.9209C31.5585 74.0866 31.6738 74.2938 31.7276 74.5201Z" fill="black"/>
<path d="M10.1791 14.9975C8.54384 14.6275 7.32932 13.6189 6.53556 11.9717C5.10918 9.0175 5.60454 6.56163 8.02163 4.60408C12.8916 0.656181 18.7463 5.72311 17.2692 11.2824C17.201 11.5425 17.2021 11.8159 17.2724 12.0754C17.3427 12.335 17.4797 12.5716 17.6698 12.7617C17.86 12.9518 18.0966 13.0889 18.3561 13.1592C18.6157 13.2294 18.8891 13.2306 19.1492 13.1624C24.5324 11.736 29.9156 11.7032 35.2989 13.0639C35.5995 13.1391 35.9188 13.1075 36.203 12.9744C37.0744 12.5566 37.3877 11.8762 37.143 10.9333C36.2299 7.45087 38.1277 4.64885 41.5296 3.51192C44.4301 2.54509 46.8382 4.33552 48.1721 6.70784C50.0431 10.0201 47.6529 13.8427 44.3406 14.8722C44.0754 14.954 43.8365 15.1043 43.6481 15.308C43.4597 15.5117 43.3284 15.7615 43.2675 16.0323C43.2066 16.303 43.2184 16.585 43.3015 16.8497C43.3846 17.1145 43.5361 17.3526 43.7408 17.54C47.447 20.9776 50.7593 26.1072 51.18 31.1473C51.2098 31.5053 51.0457 31.6814 50.6876 31.6754L3.93048 31.6486C3.62014 31.6486 3.4948 31.4785 3.55448 31.1383C4.47953 25.9819 6.93542 21.5058 10.9221 17.7101C11.1321 17.5117 11.2842 17.2599 11.3621 16.9817C11.4401 16.7036 11.4409 16.4094 11.3646 16.1308C11.2883 15.8522 11.1377 15.5996 10.9288 15.4C10.72 15.2003 10.4609 15.0612 10.1791 14.9975ZM45.106 8.24959C45.1056 8.15554 45.0868 8.06247 45.0505 7.97571C45.0142 7.88894 44.9612 7.81018 44.8944 7.74391C44.8277 7.67764 44.7486 7.62516 44.6615 7.58947C44.5745 7.55379 44.4813 7.53559 44.3873 7.53592L41.827 7.54487C41.7329 7.5452 41.6399 7.56405 41.5531 7.60034C41.4663 7.63664 41.3876 7.68967 41.3213 7.7564C41.255 7.82314 41.2025 7.90228 41.1668 7.98929C41.1312 8.07631 41.113 8.1695 41.1133 8.26355L41.1223 10.8418C41.1226 10.9358 41.1414 11.0289 41.1777 11.1157C41.214 11.2024 41.267 11.2812 41.3338 11.3475C41.4005 11.4137 41.4797 11.4662 41.5667 11.5019C41.6537 11.5376 41.7469 11.5558 41.8409 11.5554L44.4012 11.5465C44.4953 11.5462 44.5884 11.5273 44.6751 11.491C44.7619 11.4547 44.8407 11.4017 44.9069 11.335C44.9732 11.2682 45.0257 11.1891 45.0614 11.1021C45.0971 11.0151 45.1152 10.9219 45.1149 10.8278L45.106 8.24959ZM13.4773 8.09776C13.4771 8.03309 13.4642 7.9691 13.4392 7.90944C13.4142 7.84979 13.3778 7.79563 13.3319 7.75006C13.286 7.7045 13.2316 7.66842 13.1717 7.64389C13.1119 7.61936 13.0478 7.60685 12.9832 7.60709L10.1723 7.61694C10.1076 7.61716 10.0436 7.63011 9.98398 7.65506C9.92433 7.68001 9.87019 7.71647 9.82463 7.76235C9.77906 7.80823 9.74297 7.86263 9.71843 7.92245C9.6939 7.98228 9.68138 8.04635 9.68161 8.11101L9.69182 11.0473C9.69205 11.112 9.70501 11.176 9.72996 11.2356C9.75492 11.2953 9.79139 11.3494 9.83727 11.395C9.88316 11.4406 9.93756 11.4766 9.9974 11.5012C10.0572 11.5257 10.1213 11.5382 10.186 11.538L12.9969 11.5281C13.0615 11.5279 13.1255 11.515 13.1852 11.49C13.2448 11.4651 13.299 11.4286 13.3445 11.3827C13.3901 11.3368 13.4262 11.2824 13.4507 11.2226C13.4752 11.1628 13.4878 11.0987 13.4875 11.0341L13.4773 8.09776Z" fill="#F39800"/>
<path d="M44.3878 7.53641L41.8275 7.54535C41.432 7.54673 41.1124 7.86849 41.1138 8.26402L41.1228 10.8422C41.1242 11.2378 41.446 11.5573 41.8415 11.5559L44.4018 11.547C44.7973 11.5456 45.1168 11.2238 45.1155 10.8283L45.1065 8.25008C45.1051 7.85455 44.7833 7.53503 44.3878 7.53641Z" fill="black"/>
<path d="M12.983 7.60663L10.1721 7.61645C9.90013 7.61739 9.68046 7.8386 9.68141 8.11053L9.69166 11.0468C9.69261 11.3187 9.91381 11.5384 10.1857 11.5375L12.9967 11.5277C13.2686 11.5267 13.4883 11.3055 13.4873 11.0336L13.4771 8.09728C13.4762 7.82535 13.2549 7.60568 12.983 7.60663Z" fill="black"/>
<path d="M22.3185 45.6221C18.0513 45.3834 13.9244 44.342 9.93768 42.4978C6.57167 40.9402 4.52163 38.6574 3.78755 35.6494C3.70997 35.3272 3.83827 35.166 4.17249 35.166L50.0881 35.2197C50.9117 35.2197 51.1773 35.6017 50.8849 36.3656C49.5331 39.9286 46.9459 41.5847 43.6426 43.0708C41.876 43.8586 40.1632 44.4017 38.504 44.7001C34.0757 45.4879 29.9905 45.8459 26.2485 45.7743C24.9594 45.7505 23.6494 45.6997 22.3185 45.6221Z" fill="white"/>
<path d="M14.2978 56.1775C14.0651 56.0821 13.8294 56.0821 13.5906 56.1775C12.7253 56.5237 12.2299 57.1593 12.1046 58.0844L11.46 62.838C11.4361 63.017 11.3347 63.1065 11.1556 63.1065L8.84596 63.1692C8.69676 63.1752 8.6162 63.1006 8.60427 62.9454C8.24618 57.0966 10.1381 52.3401 14.2799 48.6756C14.5584 48.4298 14.8842 48.2435 15.2373 48.1283C15.5904 48.0131 15.9634 47.9714 16.3332 48.0058C16.7031 48.0402 17.0619 48.1499 17.3878 48.3283C17.7136 48.5066 17.9995 48.7497 18.2278 49.0427L22.0504 53.9127C22.1883 54.0893 22.361 54.2358 22.5578 54.343C22.7546 54.4502 22.9713 54.516 23.1945 54.5361C23.4177 54.5562 23.6427 54.5304 23.8555 54.4601C24.0683 54.3898 24.2644 54.2766 24.4317 54.1275L25.1926 53.4471C25.6343 53.0473 25.8551 53.1428 25.8551 53.7336V68.075C25.8551 68.3793 25.7029 68.5345 25.3985 68.5405L14.8529 68.6211C14.7808 68.6211 14.7095 68.6066 14.6431 68.5785C14.5767 68.5504 14.5167 68.5092 14.4666 68.4575C14.4165 68.4057 14.3773 68.3443 14.3514 68.2771C14.3255 68.2098 14.3133 68.1381 14.3158 68.066C14.447 64.5448 14.7544 61.146 15.2378 57.8695C15.3572 57.0638 15.0438 56.4998 14.2978 56.1775Z" fill="#F39800"/>
<path d="M41.8074 56.2401C41.5866 56.1685 41.3867 56.1894 41.2077 56.3028C40.4378 56.7563 40.0916 57.3949 40.1692 58.2185C40.4497 61.0892 40.763 64.2672 41.1092 67.7526C41.1629 68.3017 40.9152 68.5762 40.3662 68.5762L29.4982 68.5941C29.164 68.5941 28.9969 68.43 28.9969 68.1017L28.9521 53.9663C28.9521 53.2859 29.2058 53.1695 29.7131 53.6171C30.7515 54.5481 32.0854 54.8346 33.0254 53.6082C34.6905 51.4417 37.967 45.5691 41.3688 49.1768C44.9437 52.9666 46.6625 57.5292 46.5252 62.8647C46.5193 63.0258 46.4357 63.1064 46.2746 63.1064L44.0365 63.1333C43.9052 63.1392 43.8336 63.0766 43.8217 62.9453L43.3114 58.0574C43.2159 57.1204 42.7146 56.5146 41.8074 56.2401ZM35.4514 57.762C36.5853 57.4576 37.4836 57.392 38.146 57.565C39.8648 58.0067 40.2169 57.5441 39.2024 56.1774C38.8741 55.7418 37.9491 55.6194 36.4272 55.8104C36.081 55.8522 35.8931 56.0491 35.8632 56.4012C35.8214 56.8906 35.6842 57.3442 35.4514 57.762C35.0873 57.4755 35.0127 57.0368 35.2276 56.446C35.4007 55.9865 35.2425 55.7448 34.7531 55.7209C34.6159 55.7089 34.4816 55.7298 34.3503 55.7835C34.2859 55.8077 34.2277 55.8458 34.1798 55.8951C34.1319 55.9444 34.0955 56.0037 34.0732 56.0688C34.051 56.1338 34.0434 56.203 34.0511 56.2713C34.0587 56.3396 34.0814 56.4054 34.1175 56.4639C34.1713 56.5534 34.1892 56.6489 34.1712 56.7504C34.1613 56.8227 34.1305 56.8906 34.0825 56.9457C34.0346 57.0009 33.9717 57.0408 33.9014 57.0608C33.8312 57.0807 33.7566 57.0797 33.6869 57.058C33.6172 57.0363 33.5553 56.9947 33.5088 56.9384C33.3596 56.7534 33.2701 56.5415 33.2402 56.3028C33.2163 56.1178 33.1119 56.0103 32.9269 55.9805C32.8374 55.9626 32.7538 55.9745 32.6762 56.0163C32.4554 56.1297 32.345 56.3117 32.345 56.5624C32.339 56.8071 32.2555 57.0279 32.0943 57.2248C31.8974 57.4636 31.7213 57.4516 31.5662 57.189C31.4528 56.9981 31.42 56.8011 31.4677 56.5982C31.5334 56.3117 31.4617 56.064 31.2528 55.8552C31.0081 55.6164 30.7127 55.6373 30.3666 55.9178C30.2259 56.033 30.1189 56.1841 30.0567 56.355C29.9946 56.5259 29.9797 56.7104 30.0136 56.8891C30.0475 57.0677 30.129 57.2339 30.2494 57.3702C30.3698 57.5065 30.5247 57.6078 30.6978 57.6635L31.5393 57.9231C31.8377 58.0186 32.1302 58.0037 32.4166 57.8784C33.2223 57.5322 34.0041 57.6158 34.7621 58.129C34.9769 58.2722 35.153 58.2364 35.2903 58.0216L35.4514 57.762Z" fill="#F39800"/>
<path d="M25.5685 49.6874C24.8821 50.3081 24.2047 50.5886 23.5363 50.529C23.2737 50.5051 23.0827 50.3738 22.9634 50.1351L22.5605 49.3294C22.3934 48.9892 22.4979 48.8459 22.8739 48.8997L25.4431 49.2846C25.7714 49.3323 25.8132 49.4666 25.5685 49.6874Z" fill="#F39800"/>
<path d="M29.2208 49.6781C28.9284 49.3976 28.9851 49.2514 29.3909 49.2394L31.6827 49.1768C32.2556 49.1589 32.375 49.3827 32.0407 49.8482C31.9811 49.9377 31.9274 50.0302 31.8796 50.1257C31.7065 50.4659 31.4409 50.6211 31.0829 50.5912C30.4144 50.5375 29.7938 50.2331 29.2208 49.6781Z" fill="#F39800"/>
<path d="M35.4516 57.7619L35.2905 58.0215C35.1532 58.2363 34.9771 58.2722 34.7623 58.1289C34.0043 57.6157 33.2225 57.5321 32.4168 57.8783C32.1304 58.0036 31.8379 58.0185 31.5395 57.923L30.698 57.6634C30.5249 57.6077 30.37 57.5064 30.2496 57.3701C30.1292 57.2338 30.0477 57.0676 30.0138 56.889C29.9799 56.7103 29.9948 56.5258 30.0569 56.3549C30.119 56.184 30.2261 56.0329 30.3668 55.9177C30.7129 55.6372 31.0083 55.6163 31.253 55.8551C31.4619 56.064 31.5335 56.3116 31.4679 56.5981C31.4201 56.801 31.453 56.998 31.5664 57.1889C31.7215 57.4515 31.8976 57.4635 32.0945 57.2248C32.2557 57.0278 32.3392 56.807 32.3452 56.5623C32.3452 56.3116 32.4556 56.1296 32.6764 56.0162C32.754 55.9744 32.8376 55.9625 32.9271 55.9804C33.1121 56.0102 33.2165 56.1177 33.2404 56.3027C33.2702 56.5414 33.3598 56.7533 33.509 56.9383C33.5555 56.9946 33.6174 57.0362 33.6871 57.0579C33.7568 57.0797 33.8314 57.0806 33.9016 57.0607C33.9719 57.0407 34.0348 57.0008 34.0827 56.9456C34.1306 56.8905 34.1615 56.8226 34.1714 56.7503C34.1893 56.6488 34.1714 56.5533 34.1177 56.4638C34.0816 56.4053 34.0589 56.3395 34.0513 56.2712C34.0436 56.2029 34.0512 56.1337 34.0734 56.0687C34.0957 56.0036 34.1321 55.9443 34.18 55.895C34.2279 55.8457 34.2861 55.8076 34.3505 55.7835C34.4818 55.7297 34.6161 55.7089 34.7533 55.7208C35.2427 55.7447 35.4009 55.9864 35.2278 56.4459C35.0129 57.0368 35.0875 57.4754 35.4516 57.7619Z" fill="white"/>
<path d="M35.4521 57.7615C35.6849 57.3438 35.8222 56.8902 35.864 56.4008C35.8938 56.0487 36.0818 55.8517 36.4279 55.81C37.9498 55.619 38.8749 55.7413 39.2031 56.177C40.2177 57.5437 39.8656 58.0062 38.1468 57.5646C37.4843 57.3915 36.5861 57.4572 35.4521 57.7615Z" fill="white"/>
<path d="M44.169 66.9515C43.9841 67.5205 44.124 68.0758 44.4813 68.1919C44.8387 68.3081 45.2783 67.941 45.4631 67.372C45.648 66.803 45.5082 66.2477 45.1508 66.1316C44.7934 66.0154 44.3539 66.3825 44.169 66.9515Z" fill="white"/>
<path d="M10.5202 68.0038C9.41607 66.9833 9.41907 66.4223 10.5291 66.3208C10.6405 66.3103 10.7528 66.3337 10.8516 66.3879C10.9504 66.4421 11.0314 66.5247 11.0842 66.6252C11.2692 66.9713 11.3289 67.3443 11.2632 67.7442C11.1737 68.2933 10.926 68.3798 10.5202 68.0038Z" fill="white"/>
<path d="M30.7958 73.5806C28.88 73.1032 26.9374 73.0196 24.9679 73.33C24.7847 73.359 24.614 73.4406 24.4772 73.5647C24.3404 73.6888 24.2433 73.85 24.1981 74.0282C23.5654 76.4811 22.6583 78.9012 21.4766 81.2885C21.3095 81.6406 21.0349 81.7689 20.653 81.6734C19.9129 81.4824 19.152 81.4854 18.3702 81.6823C18.0061 81.7719 17.7465 81.6465 17.5913 81.3064C17.0184 80.0411 16.7051 79.0564 16.6514 78.3521C16.5022 76.3827 16.2485 74.3326 15.8904 72.202C15.8367 71.8857 15.971 71.7275 16.2933 71.7275L39.2824 71.7365C39.6047 71.7365 39.7569 71.8976 39.739 72.2199C39.6137 74.7862 39.2108 77.5464 38.5304 80.5007C38.3275 81.3899 37.7725 81.7569 36.8654 81.6018C36.364 81.5182 35.8567 81.5421 35.3435 81.6734C34.9138 81.7868 34.5915 81.6525 34.3767 81.2705C33.1532 79.1101 32.2699 76.8601 31.7268 74.5206C31.673 74.2944 31.5577 74.0871 31.3936 73.9214C31.2294 73.7557 31.0227 73.6378 30.7958 73.5806Z" fill="white"/>
</svg>
