<svg width="55" height="85" viewBox="0 0 55 85" fill="none" xmlns="http://www.w3.org/2000/svg">
<path d="M7.03441 13.5819C4.55167 18.0401 3.31627 22.7191 3.32821 27.6189C3.35507 34.2793 7.48201 39.3552 13.2651 42.3273C18.8274 45.1801 25.1596 46.0753 32.2616 45.013C38.4684 44.0939 43.4369 41.4709 47.167 37.144C50.9985 32.6948 50.9179 27.046 50.0943 21.621C49.969 20.7616 49.4319 20.2692 49.405 19.4277C49.3871 18.8249 49.2677 18.255 49.0469 17.7178C46.3553 11.3618 42.2791 7.14234 36.8183 5.05947C31.9721 3.20936 26.574 2.85127 20.6238 3.98521C18.5051 4.38508 16.4252 5.19376 14.3841 6.41125C11.3404 8.22854 8.75322 10.4934 7.03441 13.5819Z" stroke="#808080" stroke-width="1.79043"/>
<path d="M14.5724 56.6861C14.6537 56.7758 14.7149 56.8813 14.752 56.9956C14.7891 57.1098 14.8011 57.2302 14.7872 57.3485L13.6861 68.1448C13.6798 68.2026 13.6855 68.2611 13.7029 68.3164C13.7203 68.3718 13.749 68.4227 13.787 68.4658C13.8251 68.5089 13.8717 68.5433 13.9237 68.5667C13.9758 68.59 14.0321 68.6019 14.089 68.6014L24.93 68.5745C25.2404 68.5745 25.3955 68.4194 25.3955 68.109L25.3687 54.1257C25.3687 53.0933 25.0345 52.9739 24.366 53.7677C23.3276 54.9941 22.0922 54.5465 21.2775 53.4812C19.7736 51.4998 18.2726 49.596 16.7746 47.7697C16.2972 47.1968 15.76 47.1371 15.1632 47.5907C10.156 51.4162 7.7926 56.5219 8.0731 62.9078C8.07907 63.0272 8.14173 63.0869 8.2611 63.0869L10.6782 63.0779C10.8035 63.0779 10.8751 63.0152 10.893 62.8899L11.7703 57.3396C11.7991 57.1716 11.8842 57.0172 12.0121 56.9009C13.0266 55.9759 13.8801 55.9042 14.5724 56.6861Z" stroke="#7A4C00" stroke-width="1.79043"/>
<path d="M41.3925 55.9878C42.2639 56.0475 42.7384 56.513 42.8159 57.3843L43.2546 62.4871C43.2904 62.8869 43.5082 63.0869 43.9081 63.0869H45.3763C45.7164 63.0869 45.8955 62.9168 45.9134 62.5766C46.2357 56.3519 43.9141 51.3148 38.9486 47.4653C38.6869 47.2624 38.3553 47.1713 38.0254 47.2114C37.6955 47.2516 37.3937 47.42 37.185 47.6802L32.324 53.8214C32.1812 54.0015 32.0022 54.1497 31.7987 54.2564C31.5952 54.3632 31.3716 54.4262 31.1422 54.4414C30.9129 54.4566 30.6829 54.4236 30.4671 54.3446C30.2512 54.2655 30.0543 54.1422 29.889 53.9825L29.1549 53.2663C28.7372 52.8665 28.5313 52.956 28.5372 53.5349L28.6089 68.1986C28.6088 68.2522 28.6196 68.3053 28.6404 68.3548C28.6612 68.4043 28.6916 68.4491 28.73 68.4866C28.7684 68.5241 28.8138 68.5536 28.8637 68.5733C28.9137 68.5931 28.967 68.6026 29.0207 68.6014L40.0855 68.4671C40.4018 68.4671 40.557 68.309 40.551 67.9927C40.4615 64.8654 40.2168 61.6754 39.817 58.4228C39.6916 57.3903 40.0915 56.6115 41.0166 56.0863C41.1359 56.0147 41.2612 55.9818 41.3925 55.9878Z" stroke="#7A4C00" stroke-width="1.79043"/>
<path d="M32.0288 48.3701L28.7345 48.9519C28.7099 48.9563 28.688 48.9699 28.673 48.9898C28.6581 49.0097 28.6512 49.0346 28.6539 49.0594V49.0952C28.691 49.3097 28.7723 49.5145 28.8932 49.6977C29.0141 49.8809 29.1721 50.039 29.3584 50.1629C29.5447 50.2868 29.7554 50.374 29.9786 50.4197C30.2018 50.4654 30.4331 50.4686 30.6592 50.4291L30.7129 50.4201C30.9387 50.3804 31.1549 50.2989 31.3491 50.1802C31.5433 50.0616 31.7117 49.9081 31.8447 49.7285C31.9777 49.549 32.0727 49.3469 32.1243 49.1337C32.1758 48.9206 32.183 48.7007 32.1452 48.4864V48.4506C32.1431 48.4376 32.1383 48.4251 32.1313 48.414C32.1242 48.4028 32.115 48.3932 32.1041 48.3857C32.0933 48.3782 32.081 48.3729 32.0681 48.3702C32.0551 48.3675 32.0418 48.3675 32.0288 48.3701Z" stroke="#7A4C00" stroke-width="1.79043"/>
<path d="M25.2795 49.4975C25.3475 49.452 25.4 49.3869 25.4301 49.3108C25.4602 49.2348 25.4664 49.1514 25.448 49.0717C25.4295 48.992 25.3872 48.9198 25.3268 48.8647C25.2663 48.8097 25.1905 48.7743 25.1094 48.7634L22.003 48.4232C21.9201 48.4126 21.8359 48.428 21.7622 48.4673C21.6884 48.5066 21.6287 48.5679 21.5914 48.6426C21.554 48.7174 21.5408 48.8019 21.5536 48.8845C21.5664 48.9671 21.6046 49.0436 21.6628 49.1036L23.0773 50.5628C23.1428 50.6296 23.2296 50.6716 23.3227 50.6814C23.4159 50.6912 23.5095 50.6682 23.5875 50.6165L25.2795 49.4975Z" stroke="#7A4C00" stroke-width="1.79043"/>
<path d="M10.4844 68.1143C10.6579 68.0649 10.7939 67.9104 10.8623 67.685C10.9307 67.4595 10.926 67.1814 10.8493 66.912C10.8113 66.7786 10.7567 66.6513 10.6887 66.5374C10.6207 66.4235 10.5406 66.3252 10.453 66.2482C10.3654 66.1711 10.2719 66.1168 10.178 66.0884C10.084 66.06 9.99147 66.0579 9.90554 66.0824C9.732 66.1318 9.59607 66.2863 9.52764 66.5118C9.45921 66.7373 9.46389 67.0153 9.54065 67.2848C9.57865 67.4182 9.6332 67.5455 9.7012 67.6594C9.76919 67.7733 9.84929 67.8715 9.93692 67.9486C10.0246 68.0256 10.118 68.0799 10.2119 68.1083C10.3059 68.1368 10.3985 68.1388 10.4844 68.1143Z" stroke="#808080" stroke-width="1.79043"/>
<path d="M44.4277 67.9394C44.8157 67.6051 45.1051 67.1933 45.2961 66.704C45.4214 66.3936 45.317 66.2355 44.9828 66.2295H44.1413C44.0668 66.2295 43.9932 66.2444 43.9246 66.2734C43.8561 66.3024 43.7941 66.3449 43.7423 66.3983C43.6905 66.4518 43.65 66.5151 43.6232 66.5845C43.5964 66.6539 43.5838 66.728 43.5862 66.8024L43.6131 67.5813C43.637 68.2736 43.9085 68.3929 44.4277 67.9394Z" stroke="#808080" stroke-width="1.79043"/>
<path d="M31.0352 74.269L33.3896 80.6429C33.6164 81.2576 34.0551 81.565 34.7056 81.565H36.8004C37.6419 81.565 38.1194 81.1502 38.2328 80.3206L39.3697 72.2816C39.4234 71.8758 39.2473 71.6729 38.8415 71.6729L15.8613 71.7087C15.4674 71.7087 15.3152 71.9026 15.4047 72.2906C15.548 72.8724 15.8882 73.4454 15.8703 74.0541C15.7807 76.507 16.1925 78.8674 17.1057 81.1353C17.1842 81.3264 17.3309 81.4812 17.5166 81.5691C17.7023 81.657 17.9135 81.6715 18.1083 81.6098C18.723 81.4247 19.3437 81.4277 19.9704 81.6187C20.3881 81.75 20.7074 81.6247 20.9282 81.2427C22.1398 79.1658 22.9932 76.9397 23.4886 74.5644C23.5647 74.2077 23.7523 73.8845 24.0243 73.6415C24.2963 73.3985 24.6385 73.2483 25.0015 73.2126C26.6188 73.0515 28.2541 73.0962 29.9073 73.3469C30.4623 73.4305 30.8383 73.7378 31.0352 74.269Z" stroke="#808080" stroke-width="1.79043"/>
<path d="M13.3212 24.087C13.3214 24.0106 13.3065 23.9349 13.2774 23.8642C13.2482 23.7936 13.2055 23.7293 13.1515 23.6752C13.0976 23.6211 13.0335 23.5781 12.963 23.5487C12.8924 23.5194 12.8168 23.5042 12.7403 23.504L9.83984 23.499C9.68553 23.4988 9.53743 23.5598 9.42813 23.6687C9.31882 23.7776 9.25725 23.9255 9.25697 24.0798L9.25195 26.9445C9.25181 27.021 9.26673 27.0967 9.29585 27.1673C9.32496 27.238 9.36771 27.3022 9.42166 27.3563C9.4756 27.4105 9.53968 27.4535 9.61023 27.4828C9.68079 27.5122 9.75644 27.5274 9.83286 27.5275L12.7334 27.5325C12.8877 27.5328 13.0358 27.4717 13.1451 27.3628C13.2544 27.2539 13.316 27.106 13.3162 26.9517L13.3212 24.087Z" stroke="#808080" stroke-width="1.79043"/>
<path d="M44.6961 24.1455C44.6961 23.9746 44.6282 23.8106 44.5073 23.6898C44.3865 23.5689 44.2225 23.501 44.0516 23.501H41.2227C41.0517 23.501 40.8878 23.5689 40.7669 23.6898C40.646 23.8106 40.5781 23.9746 40.5781 24.1455V26.9028C40.5781 27.0737 40.646 27.2377 40.7669 27.3586C40.8878 27.4794 41.0517 27.5474 41.2227 27.5474H44.0516C44.2225 27.5474 44.3865 27.4794 44.5073 27.3586C44.6282 27.2377 44.6961 27.0737 44.6961 26.9028V24.1455Z" stroke="#808080" stroke-width="1.79043"/>
<path d="M34.911 32.7035C36.3881 31.7636 37.0506 29.7225 35.8242 28.2722C34.4933 26.6966 32.9266 25.8074 31.1243 25.6045C28.8087 25.3478 26.2692 25.2911 23.506 25.4344C22.0289 25.506 21.0352 26.2938 19.7282 26.8399C16.9978 27.9768 16.953 31.1638 19.0926 32.8468C19.136 32.8815 19.1708 32.9259 19.1941 32.9764C19.2175 33.0269 19.2287 33.0821 19.227 33.1377C19.2252 33.1933 19.2106 33.2478 19.1841 33.2967C19.1577 33.3457 19.1202 33.3878 19.0747 33.4197C17.7915 34.309 17.3379 35.5861 17.7139 37.2512C18.6092 41.217 27.1406 41.4677 30.0142 40.85C32.0613 40.4143 33.2698 40.1249 33.6398 39.9816C34.9289 39.4744 35.8152 38.5016 36.2986 37.0632C36.8089 35.5593 36.0032 34.3507 34.8752 33.4734C34.5231 33.1989 34.5351 32.9423 34.911 32.7035Z" stroke="#808080" stroke-width="1.79043"/>
<path d="M32.5393 30.0742C32.5403 29.8884 32.3954 29.7037 32.1129 29.5306C31.8304 29.3576 31.4158 29.1994 30.8928 29.0654C30.3697 28.9313 29.7486 28.8238 29.0647 28.7492C28.3808 28.6745 27.6476 28.6341 26.907 28.6302C26.1663 28.6263 25.4328 28.6591 24.7481 28.7266C24.0635 28.7941 23.4412 28.895 22.9169 29.0236C22.3925 29.1522 21.9762 29.3059 21.6919 29.4761C21.4076 29.6462 21.2607 29.8293 21.2598 30.0151C21.2588 30.2008 21.4037 30.3855 21.6862 30.5586C21.9687 30.7317 22.3833 30.8898 22.9063 31.0239C23.4293 31.158 24.0505 31.2654 24.7344 31.3401C25.4183 31.4148 26.1515 31.4552 26.8921 31.4591C27.6327 31.463 28.3663 31.4302 29.0509 31.3627C29.7356 31.2952 30.3578 31.1943 30.8822 31.0657C31.4066 30.9371 31.8229 30.7833 32.1072 30.6132C32.3915 30.4431 32.5383 30.2599 32.5393 30.0742Z" stroke="#7A4C00" stroke-width="1.79043"/>
<path d="M32.5567 36.24C32.5567 35.8743 31.9748 35.5237 30.9389 35.2651C29.9031 35.0066 28.4982 34.8613 27.0333 34.8613C25.5683 34.8613 24.1634 35.0066 23.1276 35.2651C22.0917 35.5237 21.5098 35.8743 21.5098 36.24C21.5098 36.6056 22.0917 36.9563 23.1276 37.2148C24.1634 37.4733 25.5683 37.6186 27.0333 37.6186C28.4982 37.6186 29.9031 37.4733 30.9389 37.2148C31.9748 36.9563 32.5567 36.6056 32.5567 36.24Z" stroke="#7A4C00" stroke-width="1.79043"/>
<path d="M37.845 56.4662C37.8465 56.3968 37.8344 56.3278 37.8093 56.2632C37.7842 56.1985 37.7467 56.1394 37.6987 56.0893C37.6508 56.0391 37.5935 55.9989 37.53 55.9709C37.4666 55.943 37.3982 55.9277 37.3289 55.9262L31.7262 55.799C31.6569 55.7974 31.5879 55.8095 31.5233 55.8346C31.4586 55.8597 31.3995 55.8972 31.3494 55.9452C31.2992 55.9931 31.259 56.0504 31.231 56.1139C31.203 56.1774 31.1878 56.2457 31.1862 56.3151L31.172 56.9415C31.1704 57.0109 31.1825 57.0798 31.2076 57.1445C31.2327 57.2092 31.2703 57.2683 31.3182 57.3184C31.3661 57.3686 31.4235 57.4088 31.4869 57.4368C31.5504 57.4647 31.6188 57.48 31.6881 57.4815L37.2907 57.6087C37.3601 57.6103 37.429 57.5982 37.4937 57.5731C37.5584 57.548 37.6175 57.5104 37.6676 57.4625C37.7178 57.4146 37.758 57.3573 37.786 57.2938C37.8139 57.2303 37.8292 57.162 37.8307 57.0926L37.845 56.4662Z" stroke="#F9CC80" stroke-width="1.79043"/>
<path d="M42.5033 73.0059C42.3004 76.7837 41.7185 79.9677 40.7576 82.5578C40.4533 83.3814 39.752 84.1036 38.6539 84.7242C38.3614 84.8854 38.0511 84.9391 37.7228 84.8854C36.2905 84.6288 34.8999 84.5631 33.5511 84.6884C33.0889 84.7311 32.6244 84.6377 32.2155 84.4197C31.8065 84.2017 31.471 83.8687 31.2504 83.462C30.2358 81.5761 29.3526 79.4484 28.6006 77.0791C28.4753 76.6792 28.2156 76.4286 27.8217 76.3271C27.4338 76.2257 27.0668 76.2555 26.7206 76.4166C26.4103 76.5658 26.2163 76.8046 26.1387 77.1328C25.6106 79.2724 24.4199 82.8622 22.7011 84.2766C22.4684 84.4676 22.2028 84.575 21.9044 84.5989C20.2631 84.7302 18.5473 84.7571 16.7569 84.6795C13.0238 84.5094 12.4777 76.2018 12.5404 73.3013C12.5523 72.8775 12.3554 72.603 11.9496 72.4777C9.08487 71.5825 6.83787 69.9442 6.24703 66.9363C6.18823 66.6541 6.06545 66.3932 5.88894 66.1754C5.55771 65.7636 5.19963 65.495 5.13696 64.9221C4.27756 57.2769 6.48874 51.0581 11.7705 46.2657C11.821 46.2193 11.8602 46.1619 11.885 46.0979C11.9098 46.0339 11.9195 45.965 11.9135 45.8967C11.9074 45.8283 11.8857 45.7623 11.8501 45.7037C11.8144 45.645 11.7658 45.5954 11.7079 45.5585C8.41346 43.4369 4.90421 40.9124 2.84521 37.6001C-0.628231 31.996 -0.556614 25.3177 1.11744 19.1138C3.73744 9.39178 9.67571 3.31327 18.9322 0.878277C21.8447 0.114359 25.4494 -0.151222 29.7465 0.0815343C33.8466 0.302354 37.3827 1.22144 40.3548 2.8388C46.12 5.98399 50.044 10.5436 52.1269 16.5177C52.4492 17.4547 52.9117 19.3436 53.5145 22.1844C54.0038 24.518 54.1769 26.5232 54.0337 28.2003C53.4309 35.2486 50.0768 40.6796 43.9715 44.4932C43.6969 44.6663 43.4045 44.7767 43.0941 44.8244C42.7181 44.8901 42.4347 45.0572 42.2437 45.3258C42.0467 45.6063 42.0736 45.8659 42.3243 46.1046C47.8627 51.3506 50.053 57.7603 48.8951 65.3339C48.364 68.8073 46.3856 71.1587 42.9599 72.3882C42.6734 72.4896 42.5212 72.6955 42.5033 73.0059ZM7.03482 13.5814C4.55209 18.0396 3.31669 22.7186 3.32863 27.6184C3.35548 34.2788 7.48243 39.3547 13.2655 42.3268C18.8278 45.1796 25.16 46.0748 32.262 45.0124C38.4689 44.0934 43.4373 41.4704 47.1674 37.1435C50.9989 32.6943 50.9183 27.0455 50.0947 21.6204C49.9694 20.761 49.4323 20.2687 49.4054 19.4272C49.3875 18.8244 49.2682 18.2544 49.0473 17.7173C46.3557 11.3613 42.2795 7.14181 36.8187 5.05894C31.9726 3.20882 26.5744 2.85074 20.6242 3.98468C18.5055 4.38454 16.4256 5.19322 14.3845 6.41072C11.3408 8.228 8.75364 10.4929 7.03482 13.5814ZM14.5725 56.6861C14.6539 56.7758 14.7151 56.8813 14.7522 56.9956C14.7892 57.1098 14.8012 57.2302 14.7874 57.3485L13.6863 68.1448C13.68 68.2026 13.6857 68.2611 13.7031 68.3164C13.7205 68.3718 13.7492 68.4227 13.7872 68.4658C13.8253 68.5089 13.8719 68.5433 13.9239 68.5667C13.9759 68.59 14.0322 68.6019 14.0891 68.6014L24.9302 68.5745C25.2405 68.5745 25.3957 68.4194 25.3957 68.109L25.3689 54.1257C25.3689 53.0933 25.0346 52.9739 24.3662 53.7677C23.3278 54.9941 22.0924 54.5465 21.2777 53.4812C19.7738 51.4998 18.2728 49.596 16.7748 47.7697C16.2973 47.1968 15.7602 47.1371 15.1634 47.5907C10.1561 51.4162 7.79277 56.5219 8.07327 62.9078C8.07924 63.0272 8.14191 63.0869 8.26127 63.0869L10.6784 63.0779C10.8037 63.0779 10.8753 63.0152 10.8932 62.8899L11.7705 57.3396C11.7993 57.1716 11.8844 57.0172 12.0122 56.9009C13.0268 55.9759 13.8802 55.9042 14.5725 56.6861ZM41.3932 55.9878C42.2646 56.0475 42.739 56.513 42.8166 57.3843L43.2553 62.4871C43.2911 62.8869 43.5089 63.0869 43.9088 63.0869H45.3769C45.7171 63.0869 45.8962 62.9168 45.9141 62.5766C46.2364 56.3519 43.9148 51.3148 38.9493 47.4653C38.6875 47.2624 38.356 47.1712 38.0261 47.2114C37.6962 47.2516 37.3944 47.42 37.1857 47.6802L32.3247 53.8214C32.1819 54.0015 32.0029 54.1497 31.7994 54.2564C31.5959 54.3632 31.3722 54.4262 31.1429 54.4414C30.9135 54.4566 30.6836 54.4236 30.4677 54.3446C30.2519 54.2655 30.055 54.1422 29.8897 53.9825L29.1556 53.2663C28.7379 52.8665 28.5319 52.956 28.5379 53.5349L28.6095 68.1985C28.6095 68.2522 28.6202 68.3053 28.641 68.3548C28.6618 68.4043 28.6923 68.4491 28.7307 68.4866C28.769 68.5241 28.8145 68.5536 28.8644 68.5733C28.9143 68.5931 28.9677 68.6026 29.0213 68.6014L40.0862 68.4671C40.4025 68.4671 40.5577 68.309 40.5517 67.9927C40.4622 64.8654 40.2175 61.6754 39.8176 58.4228C39.6923 57.3903 40.0922 56.6115 41.0172 56.0863C41.1366 56.0147 41.2619 55.9818 41.3932 55.9878ZM32.0293 48.3695L28.7349 48.9514C28.7103 48.9558 28.6884 48.9693 28.6734 48.9892C28.6585 49.0092 28.6516 49.034 28.6543 49.0588V49.0946C28.6914 49.3092 28.7727 49.5139 28.8936 49.6971C29.0145 49.8804 29.1726 50.0384 29.3588 50.1623C29.5451 50.2862 29.7558 50.3735 29.979 50.4192C30.2022 50.4648 30.4335 50.468 30.6596 50.4285L30.7133 50.4196C30.9391 50.3799 31.1553 50.2984 31.3495 50.1797C31.5437 50.061 31.7121 49.9075 31.8451 49.728C31.9781 49.5484 32.0731 49.3463 32.1247 49.1332C32.1763 48.9201 32.1834 48.7001 32.1456 48.4859V48.4501C32.1435 48.437 32.1387 48.4246 32.1317 48.4134C32.1246 48.4023 32.1154 48.3926 32.1045 48.3851C32.0937 48.3776 32.0814 48.3724 32.0685 48.3697C32.0556 48.367 32.0422 48.3669 32.0293 48.3695ZM25.2793 49.4975C25.3473 49.452 25.3999 49.3869 25.4299 49.3109C25.46 49.2348 25.4663 49.1514 25.4478 49.0717C25.4293 48.992 25.3871 48.9198 25.3266 48.8648C25.2661 48.8097 25.1903 48.7743 25.1092 48.7634L22.0028 48.4232C21.9199 48.4126 21.8358 48.428 21.762 48.4673C21.6883 48.5066 21.6286 48.5679 21.5912 48.6426C21.5538 48.7174 21.5406 48.8019 21.5534 48.8845C21.5662 48.9671 21.6044 49.0437 21.6627 49.1036L23.0771 50.5628C23.1427 50.6297 23.2295 50.6716 23.3226 50.6814C23.4157 50.6912 23.5093 50.6682 23.5874 50.6165L25.2793 49.4975ZM10.4844 68.1134C10.6579 68.064 10.7938 67.9095 10.8623 67.684C10.9307 67.4585 10.926 67.1805 10.8492 66.911C10.8112 66.7776 10.7567 66.6503 10.6887 66.5364C10.6207 66.4225 10.5406 66.3243 10.453 66.2472C10.3653 66.1702 10.2719 66.1159 10.178 66.0875C10.084 66.059 9.99144 66.057 9.90551 66.0815C9.73198 66.1309 9.59604 66.2854 9.52761 66.5108C9.45918 66.7363 9.46386 67.0144 9.54062 67.2838C9.57862 67.4172 9.63318 67.5445 9.70117 67.6584C9.76917 67.7723 9.84927 67.8706 9.9369 67.9476C10.0245 68.0247 10.118 68.079 10.2119 68.1074C10.3059 68.1358 10.3984 68.1379 10.4844 68.1134ZM44.428 67.9389C44.8159 67.6047 45.1054 67.1929 45.2964 66.7035C45.4217 66.3932 45.3173 66.235 44.983 66.2291H44.1415C44.0671 66.229 43.9935 66.244 43.9249 66.273C43.8564 66.302 43.7944 66.3445 43.7426 66.3979C43.6908 66.4514 43.6503 66.5147 43.6235 66.5841C43.5967 66.6535 43.5841 66.7276 43.5865 66.802L43.6134 67.5808C43.6372 68.2731 43.9088 68.3925 44.428 67.9389ZM31.0356 74.2681L33.39 80.6421C33.6168 81.2568 34.0554 81.5641 34.706 81.5641H36.8008C37.6423 81.5641 38.1197 81.1493 38.2331 80.3198L39.37 72.2807C39.4238 71.8749 39.2477 71.672 38.8419 71.672L15.8617 71.7078C15.4678 71.7078 15.3156 71.9018 15.4051 72.2897C15.5483 72.8716 15.8885 73.4445 15.8706 74.0533C15.7811 76.5062 16.1929 78.8665 17.106 81.1344C17.1845 81.3255 17.3312 81.4803 17.5169 81.5682C17.7026 81.6561 17.9138 81.6706 18.1086 81.6089C18.7234 81.4239 19.344 81.4269 19.9707 81.6178C20.3885 81.7491 20.7078 81.6238 20.9286 81.2419C22.1401 79.1649 22.9935 76.9388 23.4889 74.5635C23.565 74.2068 23.7527 73.8836 24.0246 73.6406C24.2966 73.3976 24.6388 73.2474 25.0018 73.2118C26.6192 73.0506 28.2544 73.0954 29.9076 73.346C30.4626 73.4296 30.8386 73.737 31.0356 74.2681Z" fill="black"/>
<path d="M7.03441 13.5819C8.75322 10.4934 11.3404 8.22854 14.3841 6.41125C16.4252 5.19376 18.5051 4.38508 20.6238 3.98521C26.574 2.85127 31.9721 3.20936 36.8183 5.05947C42.2791 7.14234 46.3553 11.3618 49.0469 17.7178C49.2677 18.255 49.3871 18.8249 49.405 19.4277C49.4319 20.2692 49.969 20.7616 50.0943 21.621C50.9179 27.046 50.9985 32.6948 47.167 37.144C43.4369 41.4709 38.4684 44.0939 32.2616 45.013C25.1596 46.0753 18.8274 45.1801 13.2651 42.3273C7.48201 39.3552 3.35507 34.2793 3.32821 27.6189C3.31627 22.7191 4.55167 18.0401 7.03441 13.5819ZM13.3213 24.0864C13.3215 24.01 13.3066 23.9343 13.2774 23.8636C13.2483 23.793 13.2056 23.7287 13.1516 23.6746C13.0977 23.6205 13.0336 23.5775 12.9631 23.5481C12.8925 23.5188 12.8168 23.5036 12.7404 23.5034L9.83992 23.4984C9.68561 23.4982 9.53752 23.5592 9.42821 23.6681C9.3189 23.7771 9.25733 23.9249 9.25705 24.0792L9.25204 26.9439C9.25189 27.0204 9.26681 27.0961 9.29593 27.1667C9.32505 27.2374 9.3678 27.3016 9.42174 27.3557C9.47568 27.4099 9.53976 27.4529 9.61032 27.4822C9.68087 27.5116 9.75652 27.5268 9.83294 27.5269L12.7334 27.5319C12.8878 27.5322 13.0359 27.4711 13.1452 27.3622C13.2545 27.2533 13.316 27.1054 13.3163 26.9511L13.3213 24.0864ZM44.6962 24.1455C44.6962 23.9745 44.6283 23.8106 44.5074 23.6897C44.3865 23.5688 44.2225 23.5009 44.0516 23.5009H41.2227C41.0518 23.5009 40.8878 23.5688 40.7669 23.6897C40.6461 23.8106 40.5782 23.9745 40.5782 24.1455V26.9028C40.5782 27.0737 40.6461 27.2376 40.7669 27.3585C40.8878 27.4794 41.0518 27.5473 41.2227 27.5473H44.0516C44.2225 27.5473 44.3865 27.4794 44.5074 27.3585C44.6283 27.2376 44.6962 27.0737 44.6962 26.9028V24.1455ZM34.9114 32.7038C36.3886 31.7638 37.051 29.7227 35.8246 28.2724C34.4937 26.6969 32.927 25.8076 31.1247 25.6047C28.8091 25.3481 26.2696 25.2914 23.5064 25.4346C22.0293 25.5062 21.0356 26.294 19.7286 26.8401C16.9982 27.977 16.9534 31.164 19.093 32.847C19.1364 32.8817 19.1712 32.9261 19.1945 32.9766C19.2179 33.0271 19.2291 33.0823 19.2274 33.1379C19.2256 33.1935 19.211 33.248 19.1845 33.2969C19.1581 33.3459 19.1206 33.388 19.0751 33.4199C17.7919 34.3092 17.3383 35.5864 17.7143 37.2515C18.6096 41.2173 27.141 41.4679 30.0146 40.8502C32.0617 40.4146 33.2702 40.1251 33.6402 39.9819C34.9293 39.4746 35.8156 38.5018 36.299 37.0635C36.8093 35.5595 36.0036 34.351 34.8756 33.4736C34.5235 33.1991 34.5355 32.9425 34.9114 32.7038Z" fill="white"/>
<path d="M12.7402 23.5031L9.8397 23.4981C9.51833 23.4975 9.25736 23.7576 9.2568 24.079L9.2518 26.9436C9.25124 27.265 9.5113 27.526 9.83267 27.5266L12.7332 27.5316C13.0545 27.5322 13.3155 27.2721 13.3161 26.9507L13.3211 24.0861C13.3216 23.7647 13.0616 23.5037 12.7402 23.5031Z" fill="black"/>
<path d="M44.0516 23.501H41.2227C40.8667 23.501 40.5781 23.7896 40.5781 24.1455V26.9028C40.5781 27.2588 40.8667 27.5474 41.2227 27.5474H44.0516C44.4075 27.5474 44.6961 27.2588 44.6961 26.9028V24.1455C44.6961 23.7896 44.4075 23.501 44.0516 23.501Z" fill="black"/>
<path d="M34.8752 33.4734C36.0032 34.3507 36.8089 35.5593 36.2986 37.0632C35.8152 38.5016 34.9289 39.4744 33.6398 39.9816C33.2698 40.1249 32.0613 40.4143 30.0142 40.85C27.1406 41.4677 18.6092 41.217 17.7139 37.2512C17.3379 35.5861 17.7915 34.309 19.0747 33.4197C19.1202 33.3878 19.1577 33.3457 19.1841 33.2967C19.2106 33.2478 19.2252 33.1933 19.227 33.1377C19.2287 33.0821 19.2175 33.0269 19.1941 32.9764C19.1708 32.9259 19.136 32.8815 19.0926 32.8468C16.953 31.1638 16.9978 27.9768 19.7282 26.8399C21.0352 26.2938 22.0289 25.506 23.506 25.4344C26.2692 25.2911 28.8087 25.3478 31.1243 25.6045C32.9266 25.8074 34.4933 26.6966 35.8242 28.2722C37.0506 29.7225 36.3881 31.7636 34.911 32.7035C34.5351 32.9423 34.5231 33.1989 34.8752 33.4734ZM32.5386 30.0743C32.5396 29.8885 32.3947 29.7039 32.1122 29.5308C31.8297 29.3577 31.4151 29.1996 30.8921 29.0655C30.3691 28.9314 29.7479 28.8239 29.064 28.7493C28.3801 28.6746 27.6469 28.6342 26.9063 28.6303C26.1657 28.6264 25.4321 28.6592 24.7475 28.7267C24.0628 28.7942 23.4406 28.8951 22.9162 29.0237C22.3918 29.1523 21.9755 29.3061 21.6912 29.4762C21.4069 29.6463 21.26 29.8295 21.2591 30.0152C21.2581 30.201 21.403 30.3856 21.6855 30.5587C21.968 30.7318 22.3826 30.8899 22.9056 31.024C23.4287 31.1581 24.0498 31.2656 24.7337 31.3402C25.4176 31.4149 26.1508 31.4553 26.8914 31.4592C27.6321 31.4631 28.3656 31.4303 29.0503 31.3628C29.7349 31.2953 30.3572 31.1944 30.8815 31.0658C31.4059 30.9372 31.8222 30.7834 32.1065 30.6133C32.3908 30.4432 32.5377 30.26 32.5386 30.0743ZM32.5566 36.2396C32.5566 35.874 31.9747 35.5233 30.9388 35.2648C29.903 35.0063 28.4981 34.861 27.0331 34.861C25.5682 34.861 24.1633 35.0063 23.1274 35.2648C22.0916 35.5233 21.5097 35.874 21.5097 36.2396C21.5097 36.6053 22.0916 36.9559 23.1274 37.2145C24.1633 37.473 25.5682 37.6183 27.0331 37.6183C28.4981 37.6183 29.903 37.473 30.9388 37.2145C31.9747 36.9559 32.5566 36.6053 32.5566 36.2396Z" fill="black"/>
<path d="M26.8926 31.459C30.0073 31.4753 32.5357 30.8552 32.5397 30.0741C32.5438 29.2929 30.0221 28.6464 26.9074 28.6301C23.7926 28.6138 21.2643 29.2338 21.2602 30.015C21.2561 30.7962 23.7778 31.4427 26.8926 31.459Z" fill="#F39800"/>
<path d="M27.0342 37.6176C30.0848 37.6176 32.5577 37.0004 32.5577 36.239C32.5577 35.4776 30.0848 34.8604 27.0342 34.8604C23.9837 34.8604 21.5107 35.4776 21.5107 36.239C21.5107 37.0004 23.9837 37.6176 27.0342 37.6176Z" fill="#F39800"/>
<path d="M14.5724 56.687C13.8801 55.9052 13.0266 55.9768 12.0121 56.9019C11.8842 57.0182 11.7991 57.1726 11.7703 57.3406L10.893 62.8909C10.8751 63.0162 10.8035 63.0789 10.6782 63.0789L8.2611 63.0878C8.14173 63.0878 8.07907 63.0282 8.0731 62.9088C7.7926 56.5229 10.156 51.4172 15.1632 47.5916C15.76 47.1381 16.2972 47.1977 16.7746 47.7707C18.2726 49.5969 19.7736 51.5008 21.2775 53.4822C22.0922 54.5475 23.3276 54.9951 24.366 53.7686C25.0345 52.9749 25.3687 53.0942 25.3687 54.1267L25.3955 68.11C25.3955 68.4203 25.2404 68.5755 24.93 68.5755L14.089 68.6024C14.0321 68.6029 13.9758 68.591 13.9237 68.5677C13.8717 68.5443 13.8251 68.5099 13.787 68.4668C13.749 68.4236 13.7203 68.3727 13.7029 68.3174C13.6855 68.2621 13.6798 68.2036 13.6861 68.1458L14.7872 57.3495C14.8011 57.2312 14.7891 57.1108 14.752 56.9965C14.7149 56.8823 14.6537 56.7767 14.5724 56.687Z" fill="#F39800"/>
<path d="M41.3925 55.9878C41.2612 55.9818 41.1359 56.0147 41.0166 56.0863C40.0915 56.6115 39.6916 57.3903 39.817 58.4228C40.2168 61.6754 40.4615 64.8654 40.551 67.9927C40.557 68.309 40.4018 68.4671 40.0855 68.4671L29.0207 68.6014C28.967 68.6026 28.9137 68.5931 28.8637 68.5733C28.8138 68.5536 28.7684 68.5241 28.73 68.4866C28.6916 68.4491 28.6612 68.4043 28.6404 68.3548C28.6196 68.3053 28.6088 68.2522 28.6089 68.1986L28.5372 53.5349C28.5313 52.956 28.7372 52.8665 29.1549 53.2663L29.889 53.9825C30.0543 54.1422 30.2512 54.2655 30.4671 54.3446C30.6829 54.4236 30.9129 54.4566 31.1422 54.4414C31.3716 54.4262 31.5952 54.3632 31.7987 54.2564C32.0022 54.1497 32.1812 54.0015 32.324 53.8214L37.185 47.6802C37.3937 47.42 37.6955 47.2516 38.0254 47.2114C38.3553 47.1713 38.6869 47.2624 38.9486 47.4653C43.9141 51.3148 46.2357 56.3519 45.9134 62.5766C45.8955 62.9168 45.7164 63.0869 45.3763 63.0869H43.9081C43.5082 63.0869 43.2904 62.8869 43.2546 62.4871L42.8159 57.3843C42.7384 56.513 42.2639 56.0475 41.3925 55.9878ZM37.8448 56.4663C37.8464 56.3969 37.8343 56.328 37.8092 56.2633C37.7841 56.1986 37.7465 56.1396 37.6986 56.0894C37.6507 56.0393 37.5933 55.9991 37.5299 55.9711C37.4664 55.9431 37.3981 55.9279 37.3287 55.9263L31.7261 55.7991C31.6567 55.7975 31.5878 55.8096 31.5231 55.8347C31.4584 55.8598 31.3993 55.8974 31.3492 55.9453C31.2991 55.9932 31.2588 56.0506 31.2309 56.114C31.2029 56.1775 31.1877 56.2458 31.1861 56.3152L31.1719 56.9417C31.1703 57.011 31.1824 57.08 31.2075 57.1446C31.2326 57.2093 31.2701 57.2684 31.3181 57.3185C31.366 57.3687 31.4233 57.4089 31.4868 57.4369C31.5503 57.4649 31.6186 57.4801 31.688 57.4816L37.2906 57.6089C37.3599 57.6104 37.4289 57.5983 37.4936 57.5732C37.5582 57.5482 37.6173 57.5106 37.6675 57.4626C37.7176 57.4147 37.7578 57.3574 37.7858 57.2939C37.8138 57.2305 37.829 57.1621 37.8306 57.0928L37.8448 56.4663Z" fill="#F39800"/>
<path d="M32.0288 48.3701C32.0418 48.3675 32.0551 48.3675 32.0681 48.3702C32.081 48.3729 32.0933 48.3782 32.1041 48.3857C32.115 48.3932 32.1242 48.4028 32.1313 48.414C32.1383 48.4251 32.1431 48.4376 32.1452 48.4506V48.4864C32.183 48.7007 32.1758 48.9206 32.1243 49.1337C32.0727 49.3469 31.9777 49.549 31.8447 49.7285C31.7117 49.9081 31.5433 50.0616 31.3491 50.1802C31.1549 50.2989 30.9387 50.3804 30.7129 50.4201L30.6592 50.4291C30.4331 50.4686 30.2018 50.4654 29.9786 50.4197C29.7554 50.374 29.5447 50.2868 29.3584 50.1629C29.1721 50.039 29.0141 49.8809 28.8932 49.6977C28.7723 49.5145 28.691 49.3097 28.6539 49.0952V49.0594C28.6512 49.0346 28.6581 49.0097 28.673 48.9898C28.688 48.9699 28.7099 48.9563 28.7345 48.9519L32.0288 48.3701Z" fill="#F39800"/>
<path d="M25.2785 49.4975L23.5866 50.6165C23.5085 50.6682 23.4149 50.6912 23.3218 50.6814C23.2286 50.6716 23.1418 50.6296 23.0763 50.5628L21.6618 49.1036C21.6036 49.0436 21.5654 48.9671 21.5526 48.8845C21.5398 48.8019 21.553 48.7174 21.5904 48.6426C21.6278 48.5679 21.6875 48.5066 21.7612 48.4673C21.835 48.428 21.9191 48.4126 22.002 48.4232L25.1084 48.7634C25.1895 48.7743 25.2653 48.8097 25.3258 48.8647C25.3863 48.9198 25.4285 48.992 25.447 49.0717C25.4655 49.1514 25.4592 49.2348 25.4291 49.3108C25.399 49.3869 25.3465 49.452 25.2785 49.4975Z" fill="#F39800"/>
<path d="M37.3289 55.9262L31.7263 55.7991C31.4347 55.7925 31.1929 56.0235 31.1863 56.3152L31.172 56.9416C31.1654 57.2333 31.3965 57.475 31.6881 57.4817L37.2907 57.6088C37.5823 57.6154 37.8241 57.3844 37.8307 57.0927L37.845 56.4663C37.8516 56.1746 37.6205 55.9329 37.3289 55.9262Z" fill="white"/>
<path d="M9.5403 67.2842C9.70013 67.8453 10.1227 68.2167 10.484 68.1138C10.8454 68.0108 11.0088 67.4725 10.849 66.9114C10.6891 66.3504 10.2666 65.979 9.90524 66.0819C9.54386 66.1848 9.38047 66.7231 9.5403 67.2842Z" fill="white"/>
<path d="M44.4277 67.9394C43.9085 68.3929 43.637 68.2736 43.6131 67.5813L43.5862 66.8024C43.5838 66.728 43.5964 66.6539 43.6232 66.5845C43.65 66.5151 43.6905 66.4518 43.7423 66.3983C43.7941 66.3449 43.8561 66.3024 43.9246 66.2734C43.9932 66.2444 44.0668 66.2295 44.1413 66.2295H44.9828C45.317 66.2355 45.4214 66.3936 45.2961 66.704C45.1051 67.1933 44.8157 67.6051 44.4277 67.9394Z" fill="white"/>
<path d="M29.9073 73.3459C28.2541 73.0953 26.6188 73.0505 25.0015 73.2116C24.6385 73.2473 24.2963 73.3975 24.0243 73.6405C23.7523 73.8835 23.5647 74.2067 23.4886 74.5634C22.9932 76.9387 22.1398 79.1648 20.9282 81.2417C20.7074 81.6237 20.3881 81.749 19.9704 81.6177C19.3437 81.4268 18.723 81.4238 18.1083 81.6088C17.9135 81.6705 17.7023 81.656 17.5166 81.5681C17.3309 81.4802 17.1842 81.3254 17.1057 81.1343C16.1925 78.8664 15.7807 76.506 15.8703 74.0532C15.8882 73.4444 15.548 72.8715 15.4047 72.2896C15.3152 71.9016 15.4674 71.7077 15.8613 71.7077L38.8415 71.6719C39.2473 71.6719 39.4234 71.8748 39.3697 72.2806L38.2328 80.3197C38.1194 81.1492 37.6419 81.564 36.8004 81.564H34.7056C34.0551 81.564 33.6164 81.2567 33.3896 80.6419L31.0352 74.268C30.8383 73.7368 30.4623 73.4295 29.9073 73.3459Z" fill="white"/>
</svg>
